<svg width="65" height="93" viewBox="0 0 65 93" fill="none" xmlns="http://www.w3.org/2000/svg">
<path d="M0 22.1792L0.167999 24.8372L1.82399 24.8942L2.25599 22.3022L0 22.1792Z" fill="#CBCBCB"/>
<path d="M15.36 17.2986C14.904 18.7206 14.403 20.0886 13.845 21.4656C13.2836 22.866 12.6425 24.2333 11.925 25.5606L11.625 26.0766L11.289 26.6016C11.256 26.6496 11.244 26.6766 11.196 26.7426C11.148 26.8086 11.109 26.8656 11.061 26.9256C10.9674 27.0479 10.8673 27.1651 10.761 27.2766C10.5256 27.5169 10.2544 27.7193 9.957 27.8766C9.38915 28.1654 8.75362 28.295 8.11799 28.2516C7.61232 28.2123 7.11612 28.0928 6.648 27.8976C6.24334 27.7358 5.85549 27.5349 5.49 27.2976C5.14487 27.0824 4.81417 26.8449 4.5 26.5866C4.1958 26.3385 3.90442 26.0752 3.627 25.7976C3.34392 25.5219 3.07555 25.2315 2.823 24.9276L4.023 23.6316C4.293 23.7906 4.602 23.9826 4.893 24.1476C5.184 24.3126 5.493 24.4656 5.793 24.6156C6.33914 24.8933 6.91612 25.1058 7.51199 25.2486C7.72533 25.2915 7.94433 25.2986 8.15999 25.2696C8.32499 25.2456 8.388 25.1916 8.409 25.1526L8.45399 25.0776L8.48699 25.0116L8.508 24.9696L8.55299 24.8796L8.76899 24.4716L8.982 24.0276C9.537 22.8126 10.047 21.4896 10.533 20.1636C11.019 18.8376 11.508 17.4846 11.979 16.1646L15.36 17.2986Z" fill="#CBCBCB"/>
<path d="M4.07703 23.6702L2.25903 22.3022L1.82404 24.8942C1.82404 24.8942 3.32403 26.0402 4.39803 25.0412L4.07703 23.6702Z" fill="#CBCBCB"/>
<path d="M16.941 14.8953C17.703 16.9113 13.668 24.0933 13.668 24.0933L8.60101 22.3683C8.60101 22.3683 10.401 17.4423 11.949 15.1263C13.56 12.7473 16.107 12.6693 16.941 14.8953Z" fill="#EFEFEF"/>
<path opacity="0.3" d="M16.941 14.8953C17.703 16.9113 13.668 24.0933 13.668 24.0933L8.60101 22.3683C8.60101 22.3683 10.401 17.4423 11.949 15.1263C13.56 12.7473 16.107 12.6693 16.941 14.8953Z" fill="black"/>
<path d="M14.265 13.3502C14.265 13.3502 11.601 18.3872 14.13 31.0682H26.193C26.277 29.2172 25.113 21.9602 26.898 13.2362C25.5646 12.978 24.2157 12.8076 22.86 12.7262C21.1524 12.6271 19.4405 12.6271 17.733 12.7262C16.5625 12.8438 15.403 13.0524 14.265 13.3502V13.3502Z" fill="#EFEFEF"/>
<path opacity="0.3" d="M14.265 13.3502C14.265 13.3502 11.601 18.3872 14.13 31.0682H26.193C26.277 29.2172 25.113 21.9602 26.898 13.2362C25.5646 12.978 24.2157 12.8076 22.86 12.7262C21.1524 12.6271 19.4405 12.6271 17.733 12.7262C16.5625 12.8438 15.403 13.0524 14.265 13.3502V13.3502Z" fill="black"/>
<path d="M29.3039 90.2612H27.0989L26.6819 85.1582H28.8839L29.3039 90.2612Z" fill="#CBCBCB"/>
<path d="M26.6819 85.1614L26.8979 87.7894H29.1029L28.8869 85.1614H26.6819Z" fill="#A5A5A5"/>
<path d="M16.344 90.2612H14.142L14.067 85.1582H16.272L16.344 90.2612Z" fill="#CBCBCB"/>
<path d="M14.067 85.1614L14.106 87.7894H16.311L16.272 85.1614H14.067Z" fill="#A5A5A5"/>
<path d="M14.13 31.0684C14.13 31.0684 12.51 51.7444 12.207 58.6204C11.892 65.7694 13.392 87.1593 13.392 87.1593H16.977C16.977 87.1593 18.285 67.3203 18.9 60.3184C19.572 52.6864 22.059 31.0684 22.059 31.0684H14.13Z" fill="#EFEFEF"/>
<path opacity="0.7" d="M14.13 31.0684C14.13 31.0684 12.51 51.7444 12.207 58.6204C11.892 65.7694 13.392 87.1593 13.392 87.1593H16.977C16.977 87.1593 18.285 67.3203 18.9 60.3184C19.572 52.6864 22.059 31.0684 22.059 31.0684H14.13Z" fill="black"/>
<path d="M27.015 90.0063H29.415C29.4592 90.0067 29.5019 90.022 29.5363 90.0498C29.5706 90.0776 29.5945 90.1162 29.604 90.1593L30.039 92.1183C30.0494 92.1656 30.049 92.2146 30.0378 92.2617C30.0266 92.3088 30.0049 92.3527 29.9743 92.3902C29.9437 92.4277 29.905 92.4578 29.8612 92.4783C29.8173 92.4988 29.7694 92.509 29.721 92.5083C28.854 92.4933 27.6 92.4423 26.508 92.4423C25.233 92.4423 25.056 92.5143 23.559 92.5143C22.659 92.5143 22.401 91.6143 22.782 91.5153C24.504 91.1373 24.987 91.0983 26.478 90.1803C26.6368 90.0724 26.8231 90.012 27.015 90.0063V90.0063Z" fill="#263238"/>
<path d="M14.055 90.0063H16.455C16.4989 90.0062 16.5416 90.0215 16.5755 90.0494C16.6095 90.0773 16.6326 90.1162 16.641 90.1593L17.079 92.1183C17.0894 92.1656 17.089 92.2146 17.0778 92.2617C17.0666 92.3088 17.0449 92.3527 17.0143 92.3902C16.9837 92.4277 16.945 92.4578 16.9012 92.4783C16.8573 92.4988 16.8094 92.509 16.761 92.5083C15.891 92.4933 14.637 92.4423 13.548 92.4423C12.27 92.4423 11.169 92.5143 9.67199 92.5143C8.77199 92.5143 8.51699 91.6143 8.89499 91.5153C10.62 91.1373 12.027 91.0983 13.518 90.1803C13.6765 90.0719 13.863 90.0115 14.055 90.0063Z" fill="#263238"/>
<path d="M13.146 90.3453C12.9962 90.3813 12.8386 90.3654 12.699 90.3003C12.6522 90.274 12.6133 90.2357 12.5864 90.1892C12.5595 90.1428 12.5455 90.09 12.546 90.0363C12.5411 90.0059 12.5446 89.9746 12.5562 89.9461C12.5679 89.9175 12.5872 89.8927 12.612 89.8743C12.834 89.7093 13.626 90.0363 13.716 90.0753C13.7253 90.0796 13.7333 90.0863 13.7391 90.0948C13.7449 90.1032 13.7483 90.1131 13.749 90.1233C13.7485 90.134 13.7452 90.1443 13.7394 90.1533C13.7336 90.1623 13.7255 90.1695 13.716 90.1743C13.5325 90.251 13.3414 90.3083 13.146 90.3453V90.3453ZM12.741 89.9373C12.7172 89.9392 12.6944 89.9475 12.675 89.9613C12.66 89.9613 12.648 89.9853 12.651 90.0273C12.6521 90.0633 12.662 90.0986 12.6797 90.1299C12.6975 90.1613 12.7227 90.1878 12.753 90.2073C13.02 90.2822 13.3055 90.2522 13.551 90.1233C13.2954 90.0099 13.0204 89.9468 12.741 89.9373Z" fill="#EFEFEF"/>
<path d="M13.704 90.1773H13.677C13.425 90.0873 12.903 89.6703 12.912 89.4153C12.9129 89.3753 12.9278 89.3368 12.9541 89.3067C12.9804 89.2765 13.0165 89.2566 13.056 89.2503C13.0956 89.2392 13.1371 89.2364 13.1779 89.2421C13.2187 89.2478 13.2579 89.2618 13.293 89.2833C13.593 89.4543 13.74 90.0873 13.746 90.1143C13.7488 90.1233 13.7488 90.133 13.7462 90.1421C13.7435 90.1511 13.7382 90.1592 13.731 90.1653C13.7231 90.1715 13.7138 90.1756 13.704 90.1773V90.1773ZM13.104 89.3433H13.08C13.014 89.3643 13.014 89.3943 13.011 89.4093C13.011 89.5593 13.35 89.8833 13.611 90.0093C13.5551 89.7581 13.4256 89.5294 13.239 89.3523C13.1982 89.3349 13.1528 89.3318 13.11 89.3433H13.104Z" fill="#EFEFEF"/>
<path d="M17.667 87.2496H13.218L12.831 85.5696L17.745 85.6566L17.667 87.2496Z" fill="#EFEFEF"/>
<path d="M26.106 90.3453C25.9562 90.3813 25.7986 90.3654 25.659 90.3003C25.614 90.2721 25.5765 90.2333 25.5498 90.1873C25.5232 90.1413 25.5081 90.0894 25.506 90.0363C25.5011 90.0059 25.5046 89.9746 25.5163 89.9461C25.5279 89.9175 25.5472 89.8927 25.572 89.8743C25.797 89.7093 26.586 90.0363 26.676 90.0753C26.6858 90.079 26.6941 90.0856 26.7 90.0941C26.7059 90.1027 26.7091 90.1129 26.709 90.1233C26.7093 90.1341 26.7062 90.1448 26.7004 90.1539C26.6945 90.163 26.686 90.1701 26.676 90.1743C26.4925 90.251 26.3015 90.3083 26.106 90.3453V90.3453ZM25.701 89.9373C25.6774 89.9398 25.6547 89.948 25.635 89.9613C25.6252 89.969 25.6177 89.9792 25.6135 89.9909C25.6093 90.0025 25.6084 90.0152 25.611 90.0273C25.6121 90.0633 25.622 90.0986 25.6398 90.1299C25.6575 90.1613 25.6827 90.1878 25.713 90.2073C25.98 90.2822 26.2655 90.2522 26.511 90.1233C26.2554 90.0099 25.9804 89.9468 25.701 89.9373Z" fill="#EFEFEF"/>
<path d="M26.664 90.1773H26.637C26.388 90.0873 25.863 89.6703 25.872 89.4152C25.8736 89.375 25.8891 89.3365 25.9159 89.3064C25.9428 89.2763 25.9792 89.2565 26.019 89.2502C26.0581 89.2385 26.0992 89.2353 26.1396 89.241C26.18 89.2467 26.2187 89.2611 26.253 89.2832C26.553 89.4542 26.7 90.0873 26.706 90.1143C26.7108 90.1219 26.7133 90.1307 26.7133 90.1398C26.7133 90.1488 26.7108 90.1576 26.706 90.1653C26.694 90.1744 26.679 90.1787 26.664 90.1773V90.1773ZM26.064 89.3432H26.043C25.974 89.3642 25.974 89.3942 25.974 89.4092C25.974 89.5592 26.31 89.8832 26.574 90.0093C26.5171 89.7578 26.3866 89.5291 26.199 89.3522C26.1582 89.3349 26.1128 89.3317 26.07 89.3432H26.064Z" fill="#EFEFEF"/>
<path d="M18.411 31.0684C18.411 31.0684 19.434 51.2794 20.838 57.7354C22.377 64.8064 25.737 87.1593 25.737 87.1593H29.865C29.865 87.1593 28.482 65.3763 27.603 58.3774C26.652 50.7784 26.193 31.0774 26.193 31.0774L18.411 31.0684Z" fill="#EFEFEF"/>
<path opacity="0.7" d="M18.411 31.0684C18.411 31.0684 19.434 51.2794 20.838 57.7354C22.377 64.8064 25.737 87.1593 25.737 87.1593H29.865C29.865 87.1593 28.482 65.3763 27.603 58.3774C26.652 50.7784 26.193 31.0774 26.193 31.0774L18.411 31.0684Z" fill="black"/>
<path d="M28.2 84.7204C28.2047 84.7196 28.2093 84.718 28.2134 84.7155C28.2175 84.7129 28.2211 84.7096 28.2239 84.7057C28.2267 84.7018 28.2286 84.6974 28.2297 84.6927C28.2307 84.688 28.2308 84.6831 28.23 84.6784C28.197 84.4684 27.186 64.9204 26.397 58.6324C25.542 51.8074 25.275 33.6994 25.257 33.5464C25.2548 33.5363 25.2491 33.5274 25.2408 33.5213C25.2325 33.5152 25.2222 33.5124 25.212 33.5134C25.207 33.5137 25.2021 33.5151 25.1976 33.5175C25.1932 33.5198 25.1893 33.5231 25.1862 33.527C25.1831 33.531 25.1808 33.5356 25.1796 33.5404C25.1783 33.5453 25.1781 33.5504 25.179 33.5554C25.197 33.7084 25.479 51.8164 26.322 58.6414C27.111 64.9414 28.122 84.4804 28.155 84.6904C28.1572 84.7002 28.163 84.7088 28.1714 84.7144C28.1798 84.72 28.1901 84.7222 28.2 84.7204V84.7204Z" fill="#EFEFEF"/>
<path opacity="0.4" d="M28.2 84.7204C28.2047 84.7196 28.2093 84.718 28.2134 84.7155C28.2175 84.7129 28.2211 84.7096 28.2239 84.7057C28.2267 84.7018 28.2286 84.6974 28.2297 84.6927C28.2307 84.688 28.2308 84.6831 28.23 84.6784C28.197 84.4684 27.186 64.9204 26.397 58.6324C25.542 51.8074 25.275 33.6994 25.257 33.5464C25.2548 33.5363 25.2491 33.5274 25.2408 33.5213C25.2325 33.5152 25.2222 33.5124 25.212 33.5134C25.207 33.5137 25.2021 33.5151 25.1976 33.5175C25.1932 33.5198 25.1893 33.5231 25.1862 33.527C25.1831 33.531 25.1808 33.5356 25.1796 33.5404C25.1783 33.5453 25.1781 33.5504 25.179 33.5554C25.197 33.7084 25.479 51.8164 26.322 58.6414C27.111 64.9414 28.122 84.4804 28.155 84.6904C28.1572 84.7002 28.163 84.7088 28.1714 84.7144C28.1798 84.72 28.1901 84.7222 28.2 84.7204V84.7204Z" fill="black"/>
<path d="M30.027 87.2494H25.575L25.188 85.5694L30.114 85.4314L30.027 87.2494Z" fill="#EFEFEF"/>
<path d="M22.353 6.95142C22.029 8.60142 21.705 11.6254 22.86 12.7264C22.86 12.7264 22.341 13.8334 19.275 13.8334C16.473 13.8334 17.733 12.7264 17.733 12.7264C19.572 12.2854 19.533 10.9264 19.206 9.63941L22.353 6.95142Z" fill="#CBCBCB"/>
<path d="M21.06 8.04932L19.197 9.63931C19.2768 9.93395 19.33 10.2352 19.356 10.5393C19.956 11.1093 21.024 9.66631 21.099 8.93131C21.1386 8.63734 21.1254 8.33865 21.06 8.04932Z" fill="#A5A5A5"/>
<path d="M16.713 1.92332C15.711 2.59232 15.696 5.76033 17.226 6.19833C18.756 6.63633 18.612 0.669322 16.713 1.92332Z" fill="#263238"/>
<path d="M22.56 4.47021C22.425 6.70221 22.458 8.01621 21.33 9.16521C19.632 10.8902 16.875 9.8642 16.341 7.63521C15.861 5.62821 16.167 2.31321 18.354 1.42221C18.8353 1.22366 19.3594 1.15159 19.8764 1.21284C20.3934 1.27409 20.8862 1.46664 21.3078 1.77215C21.7294 2.07767 22.0658 2.48598 22.2849 2.95825C22.5041 3.43051 22.5988 3.95101 22.56 4.47021V4.47021Z" fill="#CBCBCB"/>
<path d="M23.334 1.65332L21.177 2.61932C22.023 4.19732 20.121 6.86133 22.038 6.57033C22.917 6.43533 25.689 3.69332 23.334 1.65332Z" fill="#263238"/>
<path d="M22.776 5.70025C22.242 5.57725 20.58 5.23524 20.562 5.23224C20.5495 5.22936 20.5386 5.22191 20.5314 5.21135C20.5241 5.20079 20.5212 5.1879 20.523 5.17524C20.5241 5.16888 20.5264 5.16281 20.5299 5.15738C20.5334 5.15195 20.5379 5.14728 20.5432 5.14364C20.5485 5.14 20.5545 5.13747 20.5608 5.1362C20.5672 5.13493 20.5737 5.13494 20.58 5.13624C20.598 5.13624 22.263 5.48125 22.8 5.60425C22.8127 5.60425 22.8249 5.60931 22.8339 5.61831C22.8429 5.62731 22.848 5.63952 22.848 5.65225C22.848 5.66498 22.8429 5.67719 22.8339 5.68619C22.8249 5.6952 22.8127 5.70025 22.8 5.70025H22.776Z" fill="#263238"/>
<path d="M23.559 6.9303C23.4107 7.16639 23.2172 7.37087 22.9897 7.53201C22.7621 7.69315 22.505 7.80777 22.233 7.8693C21.504 8.0313 21.18 7.3683 21.417 6.7023C21.633 6.1023 22.269 5.2983 22.983 5.4363C23.1384 5.4697 23.2829 5.54125 23.4037 5.64449C23.5244 5.74773 23.6176 5.8794 23.6748 6.02764C23.7319 6.17588 23.7513 6.33602 23.731 6.49361C23.7108 6.6512 23.6517 6.80127 23.559 6.9303Z" fill="#CBCBCB"/>
<path d="M19.299 5.0944C19.299 5.2744 19.2 5.4214 19.083 5.4214C18.966 5.4214 18.867 5.2744 18.867 5.0944C18.867 4.9144 18.963 4.7644 19.083 4.7644C19.203 4.7644 19.299 4.9114 19.299 5.0944Z" fill="#263238"/>
<path d="M17.241 5.0944C17.241 5.2744 17.145 5.4214 17.025 5.4214C16.905 5.4214 16.812 5.2744 16.812 5.0944C16.812 4.9144 16.908 4.7644 17.025 4.7644C17.142 4.7644 17.241 4.9114 17.241 5.0944Z" fill="#263238"/>
<path d="M17.7599 5.18433C17.5433 5.73951 17.2516 6.26237 16.8929 6.73833C17.0165 6.82785 17.1582 6.88905 17.308 6.91757C17.4579 6.94608 17.6122 6.94122 17.7599 6.90333V5.18433Z" fill="#ADADAD"/>
<path d="M18.03 7.68043C18.0229 7.68005 18.016 7.67827 18.0096 7.6752C18.0032 7.67212 17.9974 7.66782 17.9927 7.66252C17.988 7.65723 17.9843 7.65105 17.982 7.64434C17.9796 7.63763 17.9786 7.63053 17.979 7.62343C17.979 7.61648 17.9804 7.60959 17.9832 7.6032C17.9859 7.59681 17.99 7.59104 17.995 7.58627C18.0001 7.58149 18.0061 7.5778 18.0126 7.57542C18.0191 7.57304 18.0261 7.57202 18.033 7.57243C18.2593 7.58698 18.4857 7.54813 18.6942 7.45901C18.9026 7.3699 19.0872 7.23302 19.233 7.05943C19.2414 7.04808 19.2538 7.04026 19.2676 7.03748C19.2815 7.03471 19.2959 7.03719 19.308 7.04443C19.3177 7.0545 19.3232 7.06794 19.3232 7.08193C19.3232 7.09592 19.3177 7.10937 19.308 7.11943C19.1548 7.3076 18.9589 7.4566 18.7367 7.55415C18.5145 7.6517 18.2723 7.69498 18.03 7.68043V7.68043Z" fill="#263238"/>
<path d="M20.226 3.5614C20.2099 3.56319 20.1936 3.56113 20.1785 3.5554C20.1634 3.54966 20.1498 3.5404 20.139 3.5284C20.0528 3.42477 19.9429 3.34342 19.8186 3.2912C19.6943 3.23898 19.5593 3.21744 19.425 3.22839C19.3969 3.23193 19.3685 3.22457 19.3456 3.20784C19.3227 3.19111 19.3071 3.16626 19.302 3.1384C19.2976 3.1106 19.3042 3.08219 19.3205 3.05922C19.3367 3.03624 19.3613 3.02052 19.389 3.01539C19.557 3.00003 19.7263 3.02495 19.8829 3.08808C20.0394 3.15121 20.1786 3.25073 20.289 3.3784C20.3084 3.39853 20.3193 3.42542 20.3193 3.4534C20.3193 3.48138 20.3084 3.50826 20.289 3.5284C20.2718 3.54551 20.2498 3.55702 20.226 3.5614V3.5614Z" fill="#263238"/>
<path d="M24.2214 18.7231L20.6984 18.605L20.6887 18.8928L24.2117 19.0109L24.2214 18.7231Z" fill="#E0E0E0"/>
<path d="M16.326 3.54039C16.3105 3.5354 16.2962 3.52722 16.284 3.51639C16.2644 3.49575 16.2534 3.46836 16.2534 3.43989C16.2534 3.41141 16.2644 3.38402 16.284 3.36339C16.4007 3.24019 16.5452 3.14675 16.7055 3.0909C16.8657 3.03505 17.037 3.01842 17.205 3.04239C17.2203 3.04341 17.2353 3.0477 17.2488 3.05496C17.2624 3.06222 17.2742 3.07229 17.2836 3.0845C17.2929 3.0967 17.2995 3.11076 17.303 3.12574C17.3065 3.14071 17.3067 3.15625 17.3037 3.17133C17.3007 3.1864 17.2945 3.20065 17.2855 3.21314C17.2766 3.22563 17.265 3.23605 17.2517 3.24373C17.2384 3.2514 17.2236 3.25614 17.2083 3.25763C17.193 3.25913 17.1775 3.25734 17.163 3.25239V3.25239C17.03 3.23571 16.8949 3.25065 16.7688 3.296C16.6426 3.34136 16.5289 3.41584 16.437 3.51339C16.4227 3.52753 16.4048 3.53751 16.3852 3.54226C16.3657 3.54702 16.3452 3.54637 16.326 3.54039V3.54039Z" fill="#263238"/>
<path d="M18.567 1.65338C18.567 1.65338 18.501 -0.0866254 20.259 0.00337477C21.624 0.0723749 24.183 2.05238 24.984 1.65338C24.984 1.65338 23.484 3.42338 21.51 2.85338C20.4802 2.58564 19.4905 2.1821 18.567 1.65338V1.65338Z" fill="#263238"/>
<path d="M18.567 1.65353C18.567 1.65353 20.043 0.753532 19.065 0.240531C17.643 -0.49747 15.933 2.18453 15.135 1.78553C15.135 1.78553 15.309 3.06054 17.214 2.31353C17.6812 2.1284 18.1335 1.90775 18.567 1.65353Z" fill="#263238"/>
<path d="M19.299 6.63029C18.573 6.63029 17.982 5.89229 17.982 4.98628C17.982 4.18228 18.45 3.73828 19.299 3.73828C20.148 3.73828 20.619 4.18228 20.619 4.98628C20.619 5.89229 20.028 6.63029 19.299 6.63029ZM19.299 3.83428C18.744 3.83428 18.078 4.03528 18.078 4.98628C18.078 5.83829 18.627 6.53129 19.299 6.53129C19.971 6.53129 20.52 5.83829 20.52 4.98628C20.52 4.03528 19.86 3.83428 19.299 3.83428V3.83428Z" fill="#263238"/>
<path d="M16.323 6.63029C15.723 6.63029 15.216 5.89229 15.216 4.98628C15.216 3.90028 15.909 3.73828 16.323 3.73828C16.737 3.73828 17.43 3.90028 17.43 4.98628C17.43 5.89229 16.935 6.63029 16.323 6.63029ZM16.323 3.83428C15.861 3.83428 15.312 4.03528 15.312 4.98628C15.312 5.83829 15.765 6.53129 16.323 6.53129C16.881 6.53129 17.334 5.83829 17.334 4.98628C17.334 4.03528 16.785 3.83428 16.323 3.83428V3.83428Z" fill="#263238"/>
<path d="M17.292 4.45539C17.2835 4.45546 17.2751 4.45328 17.2677 4.44906C17.2604 4.44485 17.2542 4.43875 17.25 4.43139C17.2463 4.42601 17.2439 4.41991 17.2428 4.41349C17.2417 4.40708 17.2421 4.40051 17.2438 4.39424C17.2455 4.38797 17.2485 4.38214 17.2527 4.37716C17.2569 4.37218 17.2621 4.36816 17.268 4.36539C17.404 4.28397 17.5595 4.24097 17.718 4.24097C17.8765 4.24097 18.032 4.28397 18.168 4.36539C18.1792 4.37172 18.1875 4.38204 18.1914 4.39428C18.1953 4.40651 18.1944 4.41976 18.189 4.43139C18.1861 4.43719 18.1821 4.44236 18.1772 4.44658C18.1723 4.45081 18.1666 4.45399 18.1605 4.45595C18.1543 4.45792 18.1478 4.45861 18.1414 4.458C18.1349 4.45738 18.1287 4.45548 18.123 4.45239C18.0024 4.37869 17.8638 4.33969 17.7225 4.33969C17.5812 4.33969 17.4426 4.37869 17.322 4.45239L17.292 4.45539Z" fill="#263238"/>
<path d="M19.902 13.5125C19.902 13.5125 20.676 14.5955 20.826 15.3785C21.75 14.9945 23.499 14.0345 23.733 12.6785C23.3954 12.5717 23.0736 12.4204 22.776 12.2285C22.776 12.2285 21.843 13.0205 19.902 13.5125Z" fill="#F0F0F0"/>
<path d="M19.278 13.4613C18.7958 13.9224 18.4794 14.5299 18.378 15.1893C17.454 14.8053 17.091 13.5513 17.334 12.7204C17.6847 12.5606 18.0519 12.4399 18.429 12.3604C18.4152 12.6151 18.4932 12.8664 18.6491 13.0685C18.8049 13.2706 19.0281 13.41 19.278 13.4613Z" fill="#F0F0F0"/>
<path d="M25.11 12.8284L24.54 12.7774C24.5129 12.7754 24.486 12.7835 24.4644 12.8001C24.4428 12.8167 24.4281 12.8407 24.423 12.8674C22.836 21.3784 23.727 30.4144 23.727 30.4144H24.36C24.0147 24.5805 24.3024 18.7263 25.218 12.9544C25.2201 12.9388 25.2189 12.923 25.2145 12.908C25.2101 12.893 25.2025 12.879 25.1923 12.8671C25.1821 12.8552 25.1695 12.8456 25.1553 12.8389C25.1411 12.8323 25.1257 12.8287 25.11 12.8284V12.8284Z" fill="#EFEFEF"/>
<path opacity="0.7" d="M25.11 12.8284L24.54 12.7774C24.5129 12.7754 24.486 12.7835 24.4644 12.8001C24.4428 12.8167 24.4281 12.8407 24.423 12.8674C22.836 21.3784 23.727 30.4144 23.727 30.4144H24.36C24.0147 24.5805 24.3024 18.7263 25.218 12.9544C25.2201 12.9388 25.2189 12.923 25.2145 12.908C25.2101 12.893 25.2025 12.879 25.1923 12.8671C25.1821 12.8552 25.1695 12.8456 25.1553 12.8389C25.1411 12.8323 25.1257 12.8287 25.11 12.8284V12.8284Z" fill="black"/>
<path d="M24.243 30.6152H23.808C23.7547 30.6152 23.7036 30.594 23.6659 30.5563C23.6282 30.5186 23.607 30.4675 23.607 30.4142V30.4142C23.607 30.3606 23.6281 30.3092 23.6657 30.271C23.7033 30.2328 23.7544 30.211 23.808 30.2102H24.243C24.2969 30.211 24.3483 30.2327 24.3864 30.2708C24.4245 30.3089 24.4462 30.3603 24.447 30.4142V30.4142C24.4462 30.4678 24.4244 30.5189 24.3862 30.5565C24.348 30.5941 24.2966 30.6152 24.243 30.6152V30.6152Z" fill="#E0E0E0"/>
<path d="M23.7599 31.1463V30.5763C23.7599 30.5414 23.7669 30.5068 23.7803 30.4745C23.7938 30.4423 23.8135 30.4131 23.8383 30.3885C23.8632 30.364 23.8926 30.3446 23.925 30.3315C23.9574 30.3184 23.992 30.3119 24.027 30.3123C24.097 30.3123 24.1641 30.3401 24.2136 30.3896C24.2631 30.4391 24.291 30.5063 24.291 30.5763V31.1463C24.2902 31.216 24.2621 31.2827 24.2128 31.3321C24.1634 31.3814 24.0967 31.4095 24.027 31.4103V31.4103C23.9567 31.4103 23.8892 31.3826 23.8392 31.3331C23.7892 31.2837 23.7607 31.2166 23.7599 31.1463Z" fill="#E0E0E0"/>
<path d="M15.561 12.9423L14.997 13.0473C14.9737 13.0516 14.9524 13.0633 14.9362 13.0805C14.9201 13.0978 14.9098 13.1198 14.907 13.1433C13.707 21.6573 15.024 30.4143 15.024 30.4143H15.66C14.721 21.1473 15.555 14.1633 15.699 13.0653C15.7024 13.047 15.701 13.0282 15.695 13.0106C15.689 12.993 15.6786 12.9772 15.6647 12.9649C15.6508 12.9525 15.634 12.9439 15.6158 12.94C15.5976 12.936 15.5788 12.9368 15.561 12.9423V12.9423Z" fill="#EFEFEF"/>
<path opacity="0.7" d="M15.561 12.9423L14.997 13.0473C14.9737 13.0516 14.9524 13.0633 14.9362 13.0805C14.9201 13.0978 14.9098 13.1198 14.907 13.1433C13.707 21.6573 15.024 30.4143 15.024 30.4143H15.66C14.721 21.1473 15.555 14.1633 15.699 13.0653C15.7024 13.047 15.701 13.0282 15.695 13.0106C15.689 12.993 15.6786 12.9772 15.6647 12.9649C15.6508 12.9525 15.634 12.9439 15.6158 12.94C15.5976 12.936 15.5788 12.9368 15.561 12.9423V12.9423Z" fill="black"/>
<path d="M15.549 30.6152H15.114C15.0598 30.6146 15.0077 30.5936 14.9683 30.5563C14.9288 30.5191 14.9048 30.4683 14.901 30.4142V30.4142C14.9002 30.388 14.9047 30.3618 14.9141 30.3373C14.9235 30.3128 14.9377 30.2904 14.9558 30.2714C14.974 30.2524 14.9957 30.2372 15.0198 30.2267C15.0439 30.2162 15.0698 30.2106 15.096 30.2102H15.531C15.5855 30.2109 15.6376 30.2325 15.6766 30.2704C15.7157 30.3083 15.7387 30.3598 15.741 30.4142V30.4142C15.7427 30.4403 15.7389 30.4664 15.73 30.4909C15.7211 30.5155 15.7071 30.5379 15.6891 30.5568C15.671 30.5757 15.6493 30.5906 15.6252 30.6007C15.6011 30.6107 15.5752 30.6157 15.549 30.6152Z" fill="#E0E0E0"/>
<path d="M15.09 31.1465L15.063 30.5765C15.0614 30.5422 15.0668 30.5079 15.0789 30.4757C15.091 30.4435 15.1096 30.4142 15.1335 30.3894C15.1574 30.3647 15.1861 30.3451 15.2178 30.3319C15.2495 30.3187 15.2837 30.3121 15.318 30.3125C15.389 30.3132 15.457 30.3408 15.5083 30.3899C15.5596 30.4389 15.5902 30.5057 15.594 30.5765L15.621 31.1465C15.6227 31.1806 15.6173 31.2147 15.6054 31.2466C15.5935 31.2786 15.5752 31.3078 15.5516 31.3325C15.528 31.3572 15.4997 31.3768 15.4683 31.3902C15.4369 31.4037 15.4032 31.4106 15.369 31.4105V31.4105C15.2978 31.4099 15.2294 31.3823 15.1776 31.3334C15.1259 31.2844 15.0946 31.2176 15.09 31.1465V31.1465Z" fill="#E0E0E0"/>
<path d="M21.465 19.8693C21.4215 19.8662 21.3809 19.8463 21.3518 19.8139C21.3227 19.7814 21.3074 19.7389 21.309 19.6953L21.393 18.1953C21.3938 18.1735 21.3989 18.152 21.4082 18.1322C21.4174 18.1125 21.4305 18.0948 21.4468 18.0802C21.463 18.0656 21.4821 18.0545 21.5027 18.0475C21.5234 18.0404 21.5453 18.0376 21.567 18.0393C21.5887 18.0404 21.6099 18.0458 21.6295 18.0552C21.6491 18.0646 21.6666 18.0777 21.6811 18.0939C21.6956 18.1101 21.7068 18.1289 21.714 18.1494C21.7212 18.1699 21.7242 18.1916 21.723 18.2133L21.639 19.7133C21.6383 19.7351 21.6331 19.7565 21.6239 19.7763C21.6146 19.7961 21.6015 19.8138 21.5853 19.8284C21.569 19.8429 21.55 19.8541 21.5293 19.8611C21.5087 19.8681 21.4868 19.8709 21.465 19.8693V19.8693Z" fill="#EFEFEF"/>
<path d="M21.978 20.4094C21.9646 20.4094 21.9513 20.4067 21.9391 20.4013C21.9268 20.3959 21.9158 20.388 21.9067 20.3782C21.8977 20.3683 21.8908 20.3566 21.8866 20.3439C21.8823 20.3312 21.8808 20.3177 21.882 20.3044L21.984 18.1684C21.9856 18.1411 21.9977 18.1154 22.0179 18.0969C22.0381 18.0784 22.0647 18.0686 22.092 18.0694C22.1054 18.0701 22.1185 18.0736 22.1306 18.0794C22.1427 18.0852 22.1535 18.0934 22.1624 18.1035C22.1714 18.1135 22.1782 18.1252 22.1826 18.1379C22.187 18.1506 22.1888 18.164 22.188 18.1774L22.086 20.3134C22.0853 20.3268 22.0819 20.3399 22.076 20.352C22.0702 20.3641 22.062 20.3749 22.052 20.3838C22.0419 20.3927 22.0302 20.3996 22.0175 20.404C22.0048 20.4083 21.9914 20.4102 21.978 20.4094V20.4094Z" fill="#EFEFEF"/>
<path opacity="0.7" d="M21.465 19.8693C21.4215 19.8662 21.3809 19.8463 21.3518 19.8139C21.3227 19.7814 21.3074 19.7389 21.309 19.6953L21.393 18.1953C21.3938 18.1735 21.3989 18.152 21.4082 18.1322C21.4174 18.1125 21.4305 18.0948 21.4468 18.0802C21.463 18.0656 21.4821 18.0545 21.5027 18.0475C21.5234 18.0404 21.5453 18.0376 21.567 18.0393C21.5887 18.0404 21.6099 18.0458 21.6295 18.0552C21.6491 18.0646 21.6666 18.0777 21.6811 18.0939C21.6956 18.1101 21.7068 18.1289 21.714 18.1494C21.7212 18.1699 21.7242 18.1916 21.723 18.2133L21.639 19.7133C21.6383 19.7351 21.6331 19.7565 21.6239 19.7763C21.6146 19.7961 21.6015 19.8138 21.5853 19.8284C21.569 19.8429 21.55 19.8541 21.5293 19.8611C21.5087 19.8681 21.4868 19.8709 21.465 19.8693V19.8693Z" fill="black"/>
<path opacity="0.7" d="M21.978 20.4094C21.9646 20.4094 21.9513 20.4067 21.9391 20.4013C21.9268 20.3959 21.9158 20.388 21.9067 20.3782C21.8977 20.3683 21.8908 20.3566 21.8866 20.3439C21.8823 20.3312 21.8808 20.3177 21.882 20.3044L21.984 18.1684C21.9856 18.1411 21.9977 18.1154 22.0179 18.0969C22.0381 18.0784 22.0647 18.0686 22.092 18.0694C22.1054 18.0701 22.1185 18.0736 22.1306 18.0794C22.1427 18.0852 22.1535 18.0934 22.1624 18.1035C22.1714 18.1135 22.1782 18.1252 22.1826 18.1379C22.187 18.1506 22.1888 18.164 22.188 18.1774L22.086 20.3134C22.0853 20.3268 22.0819 20.3399 22.076 20.352C22.0702 20.3641 22.062 20.3749 22.052 20.3838C22.0419 20.3927 22.0302 20.3996 22.0175 20.404C22.0048 20.4083 21.9914 20.4102 21.978 20.4094V20.4094Z" fill="black"/>
<path d="M19.461 13.8305L19.902 13.5125L20.838 14.4125L19.461 13.8305Z" fill="#EFEFEF"/>
<path opacity="0.5" d="M19.461 13.8305L19.902 13.5125L20.838 14.4125L19.461 13.8305Z" fill="black"/>
<path d="M19.461 13.8304L19.278 13.4614L18.069 14.4124L19.461 13.8304Z" fill="#EFEFEF"/>
<path opacity="0.5" d="M19.461 13.8304L19.278 13.4614L18.069 14.4124L19.461 13.8304Z" fill="black"/>
<path d="M19.881 14.2925C20.403 14.0975 22.491 12.4115 23.085 13.2875C23.679 14.1635 22.878 14.4875 23.139 15.0875C23.4 15.6875 23.793 16.7015 22.482 16.4375C21.018 16.1375 20.358 15.1145 19.935 15.0905C19.911 14.7365 19.881 14.2925 19.881 14.2925Z" fill="#EFEFEF"/>
<path opacity="0.7" d="M19.881 14.2925C20.403 14.0975 22.491 12.4115 23.085 13.2875C23.679 14.1635 22.878 14.4875 23.139 15.0875C23.4 15.6875 23.793 16.7015 22.482 16.4375C21.018 16.1375 20.358 15.1145 19.935 15.0905C19.911 14.7365 19.881 14.2925 19.881 14.2925Z" fill="black"/>
<path d="M19.05 14.1695C18.612 13.9835 16.806 12.4055 16.368 13.2155C15.93 14.0255 16.605 14.3225 16.422 14.8745C16.239 15.4265 15.975 16.3745 17.037 16.1345C18.219 15.8705 18.705 14.9195 19.05 14.8985V14.1695Z" fill="#EFEFEF"/>
<path opacity="0.7" d="M19.05 14.1695C18.612 13.9835 16.806 12.4055 16.368 13.2155C15.93 14.0255 16.605 14.3225 16.422 14.8745C16.239 15.4265 15.975 16.3745 17.037 16.1345C18.219 15.8705 18.705 14.9195 19.05 14.8985V14.1695Z" fill="black"/>
<path d="M19.974 15.1353C20.19 14.7723 20.334 13.7733 19.872 13.9503C19.41 14.1273 19.359 14.1513 19.227 14.0643C19.095 13.9773 18.75 13.8183 18.69 14.1843C18.63 14.5503 18.72 15.2793 19.062 15.2643C19.404 15.2493 19.755 15.5073 19.974 15.1353Z" fill="#EFEFEF"/>
<path opacity="0.7" d="M19.974 15.1353C20.19 14.7723 20.334 13.7733 19.872 13.9503C19.41 14.1273 19.359 14.1513 19.227 14.0643C19.095 13.9773 18.75 13.8183 18.69 14.1843C18.63 14.5503 18.72 15.2793 19.062 15.2643C19.404 15.2493 19.755 15.5073 19.974 15.1353Z" fill="black"/>
<path d="M3.828 21.5853L3.168 26.4693C3.16211 26.5074 3.14229 26.542 3.11237 26.5664C3.08245 26.5908 3.04455 26.6032 3.006 26.6013L0.906003 26.4753C0.867499 26.4717 0.831636 26.4541 0.80513 26.426C0.778624 26.3978 0.763288 26.3609 0.761999 26.3223L0.746999 25.2213L0.708002 22.6533L0.690002 21.4053L3.828 21.5853Z" fill="#EFEFEF"/>
<path opacity="0.3" d="M3.828 21.5853L3.168 26.4693C3.16211 26.5074 3.14229 26.542 3.11237 26.5664C3.08245 26.5908 3.04455 26.6032 3.006 26.6013L0.906003 26.4753C0.867499 26.4717 0.831636 26.4541 0.80513 26.426C0.778624 26.3978 0.763288 26.3609 0.761999 26.3223L0.746999 25.2213L0.708002 22.6533L0.690002 21.4053L3.828 21.5853Z" fill="black"/>
<path d="M4.18463 21.3635L0.354553 21.1333L0.324852 21.6274L4.15493 21.8576L4.18463 21.3635Z" fill="#EFEFEF"/>
<path d="M3.94198 21.1004L0.626953 20.9011L0.597251 21.3952L3.91228 21.5945L3.94198 21.1004Z" fill="#EFEFEF"/>
<path d="M3.94198 21.1004L0.626953 20.9011L0.597251 21.3952L3.91228 21.5945L3.94198 21.1004Z" fill="#F5F5F5"/>
<path d="M4.18463 21.3635L0.354553 21.1333L0.324852 21.6274L4.15493 21.8576L4.18463 21.3635Z" fill="#EBEBEB"/>
<path opacity="0.43" d="M1.94401 22.7193L1.79101 25.2753L0.726013 25.2123L0.687012 22.6443L1.94401 22.7193Z" fill="#EBEBEB"/>
<path d="M31.05 37.8694L19.713 37.6144C19.5658 37.606 19.422 37.567 19.2907 37.5C19.1594 37.4329 19.0435 37.3393 18.9504 37.225C18.8572 37.1107 18.7889 36.9783 18.7498 36.8361C18.7106 36.694 18.7015 36.5453 18.723 36.3994L19.662 26.4604C19.6662 26.315 19.7023 26.1723 19.7679 26.0424C19.8335 25.9126 19.9269 25.7988 20.0415 25.7091C20.1561 25.6195 20.289 25.5562 20.4308 25.5237C20.5726 25.4913 20.7198 25.4905 20.862 25.5214L31.962 28.0654C32.34 28.1524 32.61 28.6414 32.562 29.1514L31.842 36.9514C31.788 37.4554 31.437 37.8694 31.05 37.8694Z" fill="#EFEFEF"/>
<path opacity="0.3" d="M31.05 37.8694L19.713 37.6144C19.5658 37.606 19.422 37.567 19.2907 37.5C19.1594 37.4329 19.0435 37.3393 18.9504 37.225C18.8572 37.1107 18.7889 36.9783 18.7498 36.8361C18.7106 36.694 18.7015 36.5453 18.723 36.3994L19.662 26.4604C19.6662 26.315 19.7023 26.1723 19.7679 26.0424C19.8335 25.9126 19.9269 25.7988 20.0415 25.7091C20.1561 25.6195 20.289 25.5562 20.4308 25.5237C20.5726 25.4913 20.7198 25.4905 20.862 25.5214L31.962 28.0654C32.34 28.1524 32.61 28.6414 32.562 29.1514L31.842 36.9514C31.788 37.4554 31.437 37.8694 31.05 37.8694Z" fill="white"/>
<path d="M31.26 37.8692L20.025 37.6142C19.8798 37.6053 19.7381 37.5664 19.6087 37.5C19.4793 37.4336 19.365 37.3411 19.2731 37.2284C19.1812 37.1157 19.1137 36.9851 19.0748 36.845C19.0359 36.7048 19.0264 36.5582 19.047 36.4142L19.98 26.5142C19.9825 26.3708 20.0165 26.2298 20.0795 26.101C20.1424 25.9722 20.2329 25.8587 20.3444 25.7686C20.456 25.6785 20.5859 25.614 20.7251 25.5795C20.8642 25.5451 21.0093 25.5415 21.15 25.5692L32.148 28.0892C32.526 28.1732 32.793 28.6622 32.748 29.1722L32.031 36.9392C31.983 37.4612 31.632 37.8692 31.26 37.8692Z" fill="#EFEFEF"/>
<path opacity="0.7" d="M31.26 37.8692L20.025 37.6142C19.8798 37.6053 19.7381 37.5664 19.6087 37.5C19.4793 37.4336 19.365 37.3411 19.2731 37.2284C19.1812 37.1157 19.1137 36.9851 19.0748 36.845C19.0359 36.7048 19.0264 36.5582 19.047 36.4142L19.98 26.5142C19.9825 26.3708 20.0165 26.2298 20.0795 26.101C20.1424 25.9722 20.2329 25.8587 20.3444 25.7686C20.456 25.6785 20.5859 25.614 20.7251 25.5795C20.8642 25.5451 21.0093 25.5415 21.15 25.5692L32.148 28.0892C32.526 28.1732 32.793 28.6622 32.748 29.1722L32.031 36.9392C31.983 37.4612 31.632 37.8692 31.26 37.8692Z" fill="white"/>
<path d="M31.302 37.4072L20.079 37.0412C20.0104 37.0394 19.9429 37.0233 19.8809 36.9938C19.8189 36.9644 19.7638 36.9223 19.719 36.8702C19.6672 36.8087 19.6283 36.7375 19.6046 36.6607C19.5809 36.5839 19.5729 36.5032 19.581 36.4232L20.505 26.6282C20.5118 26.5505 20.5344 26.4749 20.5716 26.4063C20.6087 26.3377 20.6596 26.2774 20.721 26.2292C20.7764 26.1897 20.8394 26.1621 20.906 26.1481C20.9726 26.1342 21.0414 26.1342 21.108 26.1482L32.121 28.5482C32.2267 28.5928 32.314 28.6721 32.3686 28.773C32.4231 28.8739 32.4416 28.9904 32.421 29.1032L31.701 36.9302C31.7032 37.0445 31.664 37.1557 31.5907 37.2433C31.5173 37.3309 31.4148 37.3892 31.302 37.4072ZM20.991 26.1962C20.9033 26.196 20.818 26.2244 20.748 26.2772C20.6928 26.3199 20.6471 26.3738 20.614 26.4353C20.581 26.4968 20.5612 26.5646 20.556 26.6342L19.629 36.4292C19.6154 36.5742 19.6596 36.7187 19.752 36.8312C19.7918 36.8768 19.8406 36.9137 19.8953 36.9395C19.95 36.9653 20.0095 36.9795 20.07 36.9812V36.9812L31.293 37.3502C31.461 37.3502 31.614 37.1642 31.635 36.9332L32.355 29.1062C32.3749 29.0059 32.3591 28.9019 32.3104 28.812C32.2616 28.7221 32.1829 28.6522 32.088 28.6142L21.078 26.2142C21.0499 26.2046 21.0206 26.1985 20.991 26.1962V26.1962Z" fill="white"/>
<path d="M26.667 34.1372H26.553C26.3771 34.1168 26.2071 34.0617 26.0526 33.9752C25.8981 33.8887 25.7623 33.7725 25.653 33.6332C25.3286 33.2217 25.1788 32.6992 25.236 32.1782C25.253 31.9239 25.3217 31.6757 25.4377 31.4488C25.5538 31.2219 25.7148 31.0209 25.911 30.8582C26.0483 30.7482 26.2068 30.6677 26.3766 30.6217C26.5465 30.5758 26.724 30.5654 26.898 30.5912C27.0887 30.6248 27.2702 30.6979 27.4309 30.8059C27.5916 30.9139 27.7279 31.0544 27.831 31.2182C27.8336 31.2208 27.8357 31.2238 27.8372 31.2271C27.8386 31.2305 27.8393 31.2341 27.8393 31.2377C27.8393 31.2414 27.8386 31.245 27.8372 31.2483C27.8357 31.2517 27.8336 31.2547 27.831 31.2572C27.8285 31.2599 27.8255 31.262 27.8221 31.2634C27.8188 31.2648 27.8152 31.2656 27.8115 31.2656C27.8079 31.2656 27.8043 31.2648 27.8009 31.2634C27.7976 31.262 27.7945 31.2599 27.792 31.2572C27.6915 31.1006 27.5596 30.9664 27.4047 30.8632C27.2498 30.7599 27.0753 30.6898 26.892 30.6572C26.7257 30.6329 26.5561 30.6433 26.394 30.6877C26.2319 30.7321 26.0807 30.8096 25.95 30.9152C25.7604 31.0725 25.6047 31.2666 25.4923 31.4857C25.3799 31.7049 25.3131 31.9445 25.296 32.1902C25.2407 32.697 25.3861 33.2053 25.701 33.6062C25.9174 33.8755 26.2309 34.0489 26.574 34.0892C26.755 34.1026 26.9366 34.0765 27.1065 34.0128C27.2764 33.9491 27.4305 33.8493 27.558 33.7202C27.5636 33.7147 27.5712 33.7117 27.579 33.7117C27.5869 33.7117 27.5944 33.7147 27.6 33.7202C27.6049 33.7261 27.6076 33.7336 27.6076 33.7412C27.6076 33.7489 27.6049 33.7563 27.6 33.7622C27.4769 33.8832 27.3311 33.9786 27.171 34.043C27.0109 34.1073 26.8396 34.1394 26.667 34.1372V34.1372Z" fill="white"/>
<path d="M27.561 33.7564C27.5532 33.7592 27.5448 33.7592 27.537 33.7564C27.2763 33.3663 27.1606 32.8971 27.21 32.4304C27.2466 31.9754 27.447 31.549 27.774 31.2304C27.78 31.2249 27.7879 31.2219 27.7961 31.2222C27.8042 31.2225 27.8119 31.226 27.8175 31.2319C27.8231 31.2379 27.826 31.2458 27.8258 31.254C27.8255 31.2622 27.822 31.2699 27.816 31.2754C27.4938 31.5848 27.2981 32.0029 27.267 32.4484C27.2207 32.9004 27.3331 33.3544 27.585 33.7324C27.5881 33.735 27.5907 33.7382 27.5924 33.7418C27.5941 33.7454 27.595 33.7494 27.595 33.7534C27.595 33.7575 27.5941 33.7614 27.5924 33.7651C27.5907 33.7687 27.5881 33.7719 27.585 33.7744L27.561 33.7564Z" fill="white"/>
<path d="M29.106 15.9094C29.517 17.4904 29.874 19.0684 30.192 20.6704C30.351 21.4714 30.492 22.2724 30.633 23.0854C30.702 23.4904 30.771 23.8984 30.828 24.3124L30.912 24.9364L30.96 25.2694L30.981 25.4284L30.999 25.6204C31.0634 26.5446 31.0171 27.4732 30.861 28.3864C30.7265 29.2296 30.5463 30.0648 30.321 30.8884C29.8854 32.4967 29.3247 34.0685 28.644 35.5894L26.964 35.0464C27.264 33.4984 27.507 31.9114 27.702 30.3694C27.798 29.5984 27.867 28.8304 27.903 28.0834C27.9463 27.3933 27.9171 26.7005 27.816 26.0164L27.798 25.9084L27.768 25.7704L27.711 25.4884L27.585 24.9214L27.318 23.7694L26.76 21.4294C26.382 19.8784 26.007 18.3094 25.656 16.7524L29.106 15.9094Z" fill="#CBCBCB"/>
<path d="M28.716 34.3022L27.276 34.5032L26.118 36.4022L25.608 37.8512L27.909 37.7372L28.461 36.8582C28.461 36.8582 29.484 35.5562 28.716 34.3022Z" fill="#CBCBCB"/>
<path d="M26.898 13.2364C29.298 13.6624 31.923 22.6114 31.923 22.6114L26.382 24.5044C26.382 24.5044 24.534 20.0614 24.882 17.3044C25.212 14.5804 24.621 12.8314 26.898 13.2364Z" fill="#EFEFEF"/>
<path opacity="0.3" d="M26.898 13.2364C29.298 13.6624 31.923 22.6114 31.923 22.6114L26.382 24.5044C26.382 24.5044 24.534 20.0614 24.882 17.3044C25.212 14.5804 24.621 12.8314 26.898 13.2364Z" fill="black"/>
<path d="M53.478 9.87336C52.449 9.47736 49.767 8.52036 51.414 5.28936C53.061 2.05836 57.075 6.46836 58.44 4.98936C58.26 6.86436 56.655 11.0944 53.478 9.87336Z" fill="#263238"/>
<path d="M51.636 9.98724C50.418 9.37224 50.136 8.78723 50.055 8.52323C50.045 8.4863 50.0444 8.44744 50.0533 8.41021C50.0622 8.37299 50.0803 8.33861 50.106 8.31024C50.334 8.05224 51.051 7.34724 51.666 7.95324C52.281 8.55924 52.866 8.62224 51.93 9.91224C51.8979 9.95762 51.8507 9.9901 51.7968 10.0038C51.743 10.0176 51.686 10.0117 51.636 9.98724V9.98724Z" fill="#EFEFEF"/>
<path opacity="0.3" d="M51.636 9.98724C50.418 9.37224 50.136 8.78723 50.055 8.52323C50.045 8.4863 50.0444 8.44744 50.0533 8.41021C50.0622 8.37299 50.0803 8.33861 50.106 8.31024C50.334 8.05224 51.051 7.34724 51.666 7.95324C52.281 8.55924 52.866 8.62224 51.93 9.91224C51.8979 9.95762 51.8507 9.9901 51.7968 10.0038C51.743 10.0176 51.686 10.0117 51.636 9.98724V9.98724Z" fill="black"/>
<path d="M49.737 20.5862C48.2539 20.4796 46.7651 20.4796 45.282 20.5862C46.287 19.6292 46.005 16.8722 45.723 15.4382L47.616 17.0552L48.459 17.7752C48.3907 18.0298 48.3446 18.2897 48.321 18.5522C48.246 19.4372 48.504 20.2892 49.737 20.5862Z" fill="#CBCBCB"/>
<path d="M54.606 23.8652C54.657 24.4112 54.72 25.0112 54.795 25.5842C54.87 26.1572 54.96 26.7452 55.056 27.3212C55.2456 28.4677 55.496 29.6033 55.806 30.7232C55.965 31.2752 56.136 31.8212 56.334 32.3522L56.595 33.0302C56.6367 33.1361 56.7001 33.2322 56.781 33.3122C56.8927 33.3967 57.0256 33.4486 57.165 33.4622C57.3838 33.4856 57.6048 33.4795 57.822 33.4442C58.3468 33.3527 58.8592 33.2007 59.349 32.9912L60.048 33.9962C59.7961 34.2259 59.5252 34.4336 59.238 34.6172C58.9472 34.8099 58.6376 34.9728 58.314 35.1032C57.9539 35.251 57.5737 35.344 57.186 35.3792C56.7042 35.4267 56.2187 35.3396 55.7834 35.1278C55.3481 34.916 54.98 34.5876 54.72 34.1792C54.6042 34.0127 54.5038 33.836 54.42 33.6512L54.222 33.2102C53.961 32.6102 53.739 32.0102 53.541 31.4102C53.1502 30.2134 52.8405 28.9917 52.614 27.7532C52.491 27.1532 52.395 26.5232 52.314 25.9052C52.233 25.2872 52.164 24.6782 52.125 24.0152L54.606 23.8652Z" fill="#CBCBCB"/>
<path d="M53.823 21.0693C54.819 21.3213 55.515 25.4193 55.515 25.4193L52.77 27.2853C52.77 27.2853 50.139 23.1513 50.904 22.0593C51.702 20.9223 52.368 20.7063 53.823 21.0693Z" fill="#EFEFEF"/>
<path opacity="0.7" d="M53.823 21.0693C54.819 21.3213 55.515 25.4193 55.515 25.4193L52.77 27.2853C52.77 27.2853 50.139 23.1513 50.904 22.0593C51.702 20.9223 52.368 20.7063 53.823 21.0693Z" fill="black"/>
<path d="M63.948 28.2904L59.877 27.6394L59.67 28.4794L57.642 32.8744L61.713 33.5254L63.741 29.1304L63.948 28.2904Z" fill="#263238"/>
<path d="M64.1791 28.3292L60.1081 27.6782L59.9011 28.5152L57.873 32.9132L61.9441 33.5642L63.9721 29.1662L64.1791 28.3292Z" fill="#EFEFEF"/>
<path d="M59.946 34.0562L61.869 32.5562L59.469 32.0522C59.469 32.0522 58.458 33.2282 58.821 34.1523L59.946 34.0562Z" fill="#CBCBCB"/>
<path d="M62.358 30.5823L60.321 30.2673L59.463 32.0493L61.869 32.5533L62.358 30.5823Z" fill="#CBCBCB"/>
<path d="M53.823 21.0694C53.823 21.0694 54.972 21.4744 52.668 35.6524H42.855C43.02 31.6564 43.023 29.1964 41.115 21.0004C42.4893 20.7228 43.882 20.5453 45.282 20.4694C46.7651 20.3627 48.2539 20.3627 49.737 20.4694C51.66 20.6314 53.823 21.0694 53.823 21.0694Z" fill="#EFEFEF"/>
<path opacity="0.7" d="M53.823 21.0694C53.823 21.0694 54.972 21.4744 52.668 35.6524H42.855C43.02 31.6564 43.023 29.1964 41.115 21.0004C42.4893 20.7228 43.882 20.5453 45.282 20.4694C46.7651 20.3627 48.2539 20.3627 49.737 20.4694C51.66 20.6314 53.823 21.0694 53.823 21.0694Z" fill="black"/>
<path d="M48.354 90.0455H50.769L51.093 84.4504H48.678L48.354 90.0455Z" fill="#CBCBCB"/>
<path d="M37.3621 90.0455H39.7771L40.8151 84.4504H38.4001L37.3621 90.0455Z" fill="#CBCBCB"/>
<path d="M40.023 89.7694H37.323C37.2764 89.769 37.2313 89.7854 37.196 89.8158C37.1606 89.8461 37.1376 89.8883 37.131 89.9344L36.831 92.0824C36.8251 92.1367 36.8307 92.1915 36.8475 92.2434C36.8643 92.2954 36.8918 92.3431 36.9284 92.3837C36.9649 92.4242 37.0096 92.4565 37.0595 92.4785C37.1095 92.5005 37.1635 92.5118 37.218 92.5114C38.163 92.4964 38.619 92.4394 39.813 92.4394C40.548 92.4394 41.613 92.5174 42.636 92.5174C43.659 92.5174 43.704 91.5124 43.281 91.4224C41.388 91.0144 41.088 90.4534 40.452 89.9224C40.3325 89.8207 40.1799 89.7663 40.023 89.7694V89.7694Z" fill="#263238"/>
<path d="M50.934 89.7693H48.219C48.1723 89.7682 48.1268 89.7845 48.0913 89.8149C48.0558 89.8454 48.0329 89.888 48.027 89.9343L47.727 92.0823C47.7211 92.1366 47.7267 92.1915 47.7435 92.2434C47.7603 92.2953 47.7878 92.3431 47.8244 92.3836C47.8609 92.4241 47.9056 92.4564 47.9555 92.4784C48.0055 92.5005 48.0595 92.5117 48.114 92.5114C49.059 92.4964 49.515 92.4393 50.709 92.4393C51.444 92.4393 52.962 92.5173 53.976 92.5173C54.99 92.5173 55.044 91.5123 54.624 91.4223C52.728 91.0143 51.984 90.4533 51.345 89.9223C51.2309 89.8235 51.085 89.7692 50.934 89.7693V89.7693Z" fill="#263238"/>
<path d="M51.093 84.4534L50.925 87.3364H48.51L48.678 84.4534H51.093Z" fill="#A5A5A5"/>
<path d="M38.4 84.4534H40.815L40.281 87.3364H37.863L38.4 84.4534Z" fill="#A5A5A5"/>
<path d="M45.705 19.7314C45.3792 19.8809 45.0988 20.1138 44.892 20.4064C45.129 20.7934 46.956 21.5164 47.451 21.4714C47.4331 21.0781 47.553 20.6909 47.79 20.3764C47.79 20.3764 46.518 20.3344 45.705 19.7314Z" fill="#EFEFEF"/>
<path d="M48.66 19.7944C48.9902 19.9372 49.2943 20.1339 49.56 20.3764C49.458 20.7064 48.66 21.3064 48.312 21.4384C48.242 21.0403 48.0575 20.6713 47.781 20.3764C48.1145 20.2519 48.4152 20.0529 48.66 19.7944V19.7944Z" fill="#EFEFEF"/>
<path d="M52.668 35.6584C52.668 35.6584 54.573 54.2584 54.414 61.6354C54.249 69.3004 51.441 86.7784 51.441 86.7784H48.174C48.174 86.7784 48.693 69.7474 48.402 62.2204C48.087 54.0154 45.483 35.6584 45.483 35.6584H52.668Z" fill="#EFEFEF"/>
<path d="M50.076 35.6584C50.076 35.6584 48.675 52.2394 47.22 61.5844C46.044 69.1324 40.833 86.7844 40.833 86.7844H37.533C37.533 86.7844 40.251 69.7444 40.833 62.2774C42.333 43.3774 39.696 40.0414 42.84 35.6644L50.076 35.6584Z" fill="#EFEFEF"/>
<path opacity="0.57" d="M47.83 27.968L49.1402 28.0142C49.7512 28.0358 50.264 27.5579 50.2855 26.9469L50.3298 25.6907C50.3514 25.0797 49.8736 24.5669 49.2626 24.5454L47.9524 24.4992C47.3414 24.4776 46.8286 24.9554 46.807 25.5664L46.7627 26.8227C46.7412 27.4337 47.219 27.9464 47.83 27.968Z" fill="#EFEFEF"/>
<path d="M48.459 17.7692C48.3907 18.0238 48.3446 18.2837 48.321 18.5462C47.664 18.4322 46.803 17.7812 46.737 17.1602C46.6972 16.9024 46.7094 16.6392 46.773 16.3862L47.616 17.0492L48.459 17.7692Z" fill="#A5A5A5"/>
<path d="M44.9461 12.1775C45.0931 14.5775 45.1051 15.5855 46.3141 16.8155C48.1321 18.6635 51.0391 17.9585 51.6091 15.5705C52.1251 13.4195 51.7981 9.8705 49.4551 8.9135C48.9394 8.70059 48.3778 8.62316 47.8238 8.68857C47.2697 8.75398 46.7416 8.96005 46.2897 9.28719C45.8378 9.61433 45.4771 10.0517 45.2419 10.5576C45.0067 11.0635 44.9049 11.6211 44.9461 12.1775V12.1775Z" fill="#CBCBCB"/>
<path d="M44.571 13.2033C44.5602 13.2064 44.5488 13.2064 44.538 13.2033C44.5289 13.1995 44.5207 13.1938 44.5139 13.1866C44.5071 13.1794 44.5019 13.1709 44.4985 13.1617C44.4951 13.1524 44.4937 13.1425 44.4943 13.1326C44.4949 13.1228 44.4975 13.1131 44.502 13.1043C44.802 12.4863 47.223 12.0633 47.502 12.0153C48.287 11.9036 49.0824 11.8835 49.872 11.9553C49.9658 11.9108 50.0682 11.8877 50.172 11.8877C50.2758 11.8877 50.3783 11.9108 50.472 11.9553C50.9845 11.8985 51.5016 11.8985 52.014 11.9553C52.0241 11.956 52.0339 11.9588 52.0428 11.9635C52.0516 11.9683 52.0595 11.9748 52.0657 11.9827C52.0719 11.9906 52.0764 11.9997 52.0789 12.0095C52.0813 12.0193 52.0817 12.0294 52.08 12.0393C52.0771 12.0587 52.0666 12.0762 52.0509 12.088C52.0352 12.0998 52.0155 12.1049 51.996 12.1023C51.4885 12.0466 50.9765 12.0466 50.469 12.1023C50.4562 12.1053 50.4429 12.1053 50.43 12.1023C50.3541 12.0627 50.2697 12.0419 50.184 12.0419C50.0983 12.0419 50.0139 12.0627 49.938 12.1023C49.9299 12.1057 49.9213 12.1075 49.9125 12.1075C49.9038 12.1075 49.8951 12.1057 49.887 12.1023C49.1025 12.0272 48.3117 12.0473 47.532 12.1623C46.809 12.2853 44.874 12.7023 44.649 13.1673C44.6416 13.1809 44.63 13.1918 44.616 13.1982C44.6019 13.2047 44.5862 13.2065 44.571 13.2033V13.2033Z" fill="#263238"/>
<path d="M48.675 13.9744H48.603C48.4502 13.9736 48.2994 13.939 48.1614 13.8731C48.0235 13.8073 47.9018 13.7118 47.805 13.5934C47.373 13.0444 47.544 12.1174 47.55 12.0934C47.5507 12.0883 47.5525 12.0835 47.5552 12.0791C47.5579 12.0748 47.5615 12.0711 47.5657 12.0682C47.57 12.0654 47.5748 12.0635 47.5799 12.0627C47.5849 12.0618 47.5901 12.0621 47.595 12.0634C47.5998 12.0641 47.6043 12.0658 47.6084 12.0683C47.6125 12.0709 47.6161 12.0742 47.6189 12.0781C47.6217 12.082 47.6237 12.0864 47.6247 12.0911C47.6258 12.0958 47.6259 12.1007 47.625 12.1054C47.625 12.1054 47.454 13.0414 47.865 13.5634C47.9551 13.6736 48.0687 13.7622 48.1974 13.8229C48.3261 13.8837 48.4667 13.9149 48.609 13.9144C48.7451 13.9281 48.8825 13.9113 49.0112 13.8651C49.1399 13.8189 49.2567 13.7445 49.353 13.6474C49.86 13.1344 49.794 12.0544 49.794 12.0424C49.7936 12.0377 49.7941 12.0329 49.7956 12.0284C49.797 12.0239 49.7993 12.0197 49.8024 12.0161C49.8055 12.0124 49.8092 12.0094 49.8134 12.0073C49.8177 12.0051 49.8223 12.0038 49.827 12.0034V12.0034C49.8369 12.0034 49.8464 12.0071 49.8536 12.0138C49.8608 12.0204 49.8653 12.0296 49.866 12.0394C49.866 12.0844 49.932 13.1644 49.404 13.7014C49.3071 13.7935 49.1925 13.8652 49.0673 13.9121C48.942 13.959 48.8086 13.9802 48.675 13.9744V13.9744Z" fill="#263238"/>
<path d="M51.336 13.9203C51.2208 13.9247 51.1059 13.9041 50.9993 13.8601C50.8926 13.8161 50.7967 13.7497 50.718 13.6654C50.262 13.1644 50.418 12.1204 50.418 12.0754C50.4183 12.0704 50.4197 12.0656 50.422 12.0612C50.4244 12.0569 50.4278 12.0531 50.4318 12.0502C50.4358 12.0474 50.4405 12.0454 50.4454 12.0446C50.4502 12.0437 50.4553 12.044 50.46 12.0454C50.4648 12.0461 50.4693 12.0478 50.4734 12.0503C50.4775 12.0528 50.4811 12.0561 50.4839 12.06C50.4867 12.0639 50.4887 12.0684 50.4897 12.0731C50.4908 12.0778 50.4909 12.0826 50.49 12.0874C50.49 12.0874 50.334 13.1403 50.763 13.6143C50.8429 13.6991 50.9414 13.7641 51.0508 13.8042C51.1601 13.8443 51.2773 13.8584 51.393 13.8453C51.4711 13.8426 51.5475 13.8223 51.6165 13.7859C51.6856 13.7496 51.7456 13.6981 51.792 13.6353C52.1491 13.1614 51.897 12.0424 51.894 12.0304C51.8929 12.0205 51.8954 12.0106 51.9008 12.0024C51.9063 11.9942 51.9146 11.9881 51.9241 11.9854C51.929 11.984 51.9342 11.9838 51.9392 11.9846C51.9443 11.9854 51.9491 11.9873 51.9533 11.9902C51.9576 11.993 51.9612 11.9967 51.9639 12.0011C51.9666 12.0054 51.9684 12.0103 51.969 12.0154C51.969 12.0634 52.2301 13.1793 51.8521 13.6803C51.7986 13.7517 51.73 13.8103 51.6511 13.8518C51.5722 13.8933 51.4851 13.9167 51.396 13.9203H51.336Z" fill="#263238"/>
<path d="M44.571 13.4435C48.27 12.6935 49.833 9.31851 49.833 9.31851C49.833 9.31851 49.362 7.81851 47.202 8.01951C45.483 8.18451 42.012 11.1935 44.571 13.4435Z" fill="#263238"/>
<path d="M43.098 9.90937C44.268 9.53437 47.298 8.63737 45.258 5.09436C43.218 1.55136 38.79 6.09037 37.158 4.44036C37.461 6.45637 39.498 11.0644 43.098 9.90937Z" fill="#263238"/>
<path d="M51.633 11.9222C50.241 9.01221 47.853 8.79321 47.853 8.79321C47.853 8.79321 49.194 7.62022 51.033 8.76021C52.35 9.57921 52.146 10.9892 51.633 11.9222Z" fill="#263238"/>
<path d="M44.367 13.5065C44.4168 13.968 44.6477 14.391 45.0091 14.6825C45.4891 15.0635 45.9661 14.6825 46.0321 14.1125C46.0921 13.5905 45.9121 12.7655 45.3331 12.6125C45.2063 12.5807 45.0737 12.581 44.9471 12.6134C44.8205 12.6458 44.704 12.7093 44.6081 12.798C44.5122 12.8867 44.4399 12.998 44.3978 13.1217C44.3558 13.2454 44.3452 13.3776 44.367 13.5065Z" fill="#CBCBCB"/>
<path d="M48.561 13.2002C48.6886 13.2002 48.792 13.0417 48.792 12.8462C48.792 12.6507 48.6886 12.4922 48.561 12.4922C48.4334 12.4922 48.33 12.6507 48.33 12.8462C48.33 13.0417 48.4334 13.2002 48.561 13.2002Z" fill="#263238"/>
<path d="M50.802 13.2002C50.9296 13.2002 51.033 13.0417 51.033 12.8462C51.033 12.6507 50.9296 12.4922 50.802 12.4922C50.6744 12.4922 50.571 12.6507 50.571 12.8462C50.571 13.0417 50.6744 13.2002 50.802 13.2002Z" fill="#263238"/>
<path d="M50.76 12.5044L51.228 12.3694C51.228 12.3694 50.973 12.7354 50.76 12.5044Z" fill="#263238"/>
<path d="M50.196 13.1792C50.3705 13.6238 50.6046 14.0427 50.892 14.4242C50.7923 14.4951 50.6784 14.5433 50.5582 14.5656C50.438 14.5879 50.3144 14.5836 50.196 14.5532V13.1792Z" fill="#ADADAD"/>
<path d="M49.512 15.3213C49.2502 15.3287 48.9904 15.2731 48.7544 15.1594C48.5185 15.0456 48.3133 14.8768 48.156 14.6673C48.148 14.6541 48.1454 14.6383 48.1488 14.6232C48.1521 14.6081 48.1612 14.5949 48.174 14.5863C48.1868 14.5785 48.2021 14.576 48.2167 14.5793C48.2313 14.5827 48.244 14.5917 48.252 14.6043C48.4009 14.7955 48.5923 14.9493 48.811 15.0534C49.0298 15.1576 49.2698 15.2093 49.512 15.2043C49.5269 15.2051 49.541 15.2113 49.5515 15.2218C49.5621 15.2324 49.5683 15.2465 49.569 15.2613C49.5694 15.2691 49.5683 15.2768 49.5656 15.2841C49.5629 15.2913 49.5588 15.298 49.5534 15.3036C49.5481 15.3092 49.5417 15.3137 49.5346 15.3167C49.5274 15.3198 49.5198 15.3213 49.512 15.3213V15.3213Z" fill="#263238"/>
<path d="M48.021 11.2205C47.9965 11.2202 47.9727 11.212 47.9532 11.1971C47.9337 11.1822 47.9196 11.1614 47.9128 11.1379C47.9061 11.1143 47.9071 11.0892 47.9158 11.0662C47.9245 11.0433 47.9403 11.0238 47.961 11.0105C48.1627 10.8932 48.3881 10.8225 48.6207 10.8038C48.8533 10.7851 49.0871 10.8189 49.305 10.9025C49.319 10.9081 49.3319 10.9165 49.3427 10.9271C49.3535 10.9377 49.3621 10.9504 49.3679 10.9643C49.3738 10.9783 49.3768 10.9933 49.3768 11.0084C49.3768 11.0236 49.3738 11.0386 49.368 11.0525C49.3555 11.0799 49.3329 11.1014 49.305 11.1126C49.2771 11.1238 49.2459 11.1237 49.218 11.1125C49.0331 11.0445 48.8356 11.0176 48.6392 11.0337C48.4429 11.0497 48.2524 11.1084 48.081 11.2055C48.0628 11.2161 48.042 11.2213 48.021 11.2205V11.2205Z" fill="#263238"/>
<path d="M51.2671 11.1034C51.2448 11.1035 51.2229 11.0973 51.2041 11.0854C51.0856 11.0043 50.9494 10.9527 50.807 10.935C50.6645 10.9172 50.5198 10.9338 50.3851 10.9834C50.3713 10.9897 50.3564 10.9932 50.3412 10.9938C50.3261 10.9943 50.311 10.9919 50.2968 10.9866C50.2826 10.9813 50.2695 10.9733 50.2584 10.9629C50.2473 10.9526 50.2384 10.9402 50.2321 10.9264C50.2258 10.9126 50.2222 10.8977 50.2217 10.8826C50.2211 10.8674 50.2236 10.8523 50.2289 10.8381C50.2342 10.8239 50.2422 10.8109 50.2525 10.7998C50.2629 10.7887 50.2753 10.7797 50.2891 10.7734C50.459 10.7087 50.6421 10.6858 50.8227 10.7067C51.0034 10.7276 51.1764 10.7916 51.3271 10.8934C51.3524 10.9095 51.3703 10.9348 51.3771 10.964C51.3838 10.9932 51.3788 11.0239 51.3631 11.0494C51.3532 11.066 51.3391 11.0797 51.3223 11.0892C51.3054 11.0986 51.2864 11.1035 51.2671 11.1034V11.1034Z" fill="#263238"/>
<path d="M40.86 90.1891C40.6446 90.184 40.4304 90.1558 40.221 90.1051C40.2097 90.1024 40.1994 90.0964 40.1914 90.0879C40.1834 90.0793 40.178 90.0687 40.176 90.0571C40.1735 90.0459 40.1744 90.0341 40.1787 90.0234C40.183 90.0127 40.1904 90.0035 40.2 89.9971C40.284 89.9401 41.022 89.4662 41.301 89.5952C41.3328 89.6099 41.3602 89.6325 41.3807 89.6608C41.4012 89.6892 41.4141 89.7224 41.418 89.7571C41.4283 89.8112 41.4249 89.8669 41.4081 89.9193C41.3914 89.9717 41.3618 90.0191 41.322 90.0571C41.1889 90.1553 41.0249 90.2022 40.86 90.1891V90.1891ZM40.389 90.0181C40.806 90.1021 41.118 90.0871 41.241 89.9761C41.2667 89.9502 41.2855 89.9181 41.2954 89.883C41.3054 89.8478 41.3063 89.8107 41.298 89.7751C41.2979 89.7602 41.2937 89.7455 41.2857 89.7328C41.2778 89.7201 41.2665 89.7098 41.253 89.7031C41.097 89.6371 40.677 89.8381 40.38 90.0181H40.389Z" fill="#EFEFEF"/>
<path d="M40.224 90.1053C40.2142 90.108 40.2038 90.108 40.194 90.1053C40.1854 90.1 40.1783 90.0925 40.1736 90.0835C40.1688 90.0746 40.1665 90.0645 40.167 90.0544C40.167 90.0244 40.167 89.3284 40.431 89.0944C40.4639 89.0644 40.503 89.0421 40.5455 89.0292C40.5881 89.0162 40.633 89.0128 40.677 89.0194C40.723 89.0204 40.7673 89.037 40.8027 89.0664C40.8381 89.0958 40.8625 89.1363 40.872 89.1814C40.926 89.4544 40.485 89.9763 40.254 90.1053C40.2442 90.1084 40.2338 90.1084 40.224 90.1053ZM40.635 89.1273C40.5893 89.1269 40.5453 89.1441 40.512 89.1753C40.3612 89.3972 40.2826 89.6602 40.287 89.9284C40.518 89.7454 40.788 89.3583 40.755 89.1933C40.755 89.1693 40.734 89.1363 40.662 89.1273H40.635Z" fill="#EFEFEF"/>
<path d="M51.84 90.1893C51.585 90.1841 51.331 90.156 51.081 90.1053C51.069 90.1029 51.058 90.0969 51.0495 90.0881C51.041 90.0793 51.0354 90.0681 51.0335 90.056C51.0315 90.044 51.0333 90.0316 51.0386 90.0205C51.0439 90.0095 51.0524 90.0003 51.063 89.9943C51.174 89.9373 52.137 89.4453 52.434 89.6073C52.4623 89.6221 52.4862 89.644 52.5036 89.6708C52.5209 89.6976 52.5311 89.7284 52.533 89.7603C52.5389 89.8122 52.5325 89.8648 52.5142 89.9138C52.496 89.9628 52.4664 90.0068 52.428 90.0423C52.2542 90.1562 52.047 90.208 51.84 90.1893V90.1893ZM51.279 90.0183C51.81 90.1083 52.203 90.0843 52.347 89.9523C52.372 89.93 52.391 89.9019 52.4025 89.8705C52.414 89.8391 52.4176 89.8054 52.413 89.7723C52.4133 89.7599 52.41 89.7477 52.4036 89.7371C52.3973 89.7265 52.3881 89.7179 52.377 89.7123C52.218 89.6223 51.66 89.8323 51.279 90.0183Z" fill="#EFEFEF"/>
<path d="M51.09 90.1054C51.0794 90.1095 51.0676 90.1095 51.057 90.1054C51.0484 90.1002 51.0416 90.0926 51.0373 90.0835C51.0331 90.0744 51.0316 90.0643 51.033 90.0544C51.033 90.0244 51.09 89.3734 51.396 89.1214C51.4393 89.0838 51.4899 89.0555 51.5446 89.0385C51.5994 89.0214 51.6571 89.016 51.714 89.0224C51.882 89.0224 51.921 89.1304 51.93 89.1844C51.975 89.4634 51.411 89.9794 51.117 90.1114L51.09 90.1054ZM51.666 89.1274C51.5945 89.1274 51.5254 89.1529 51.471 89.1994C51.2958 89.4088 51.1908 89.668 51.171 89.9404C51.471 89.7604 51.846 89.3554 51.819 89.1934C51.819 89.1784 51.819 89.1394 51.708 89.1274H51.666Z" fill="#EFEFEF"/>
<path d="M48.504 12.5044L48.96 12.3694C48.96 12.3694 48.732 12.7354 48.504 12.5044Z" fill="#263238"/>
<path d="M40.9711 86.8563H37.2841L37.3171 84.7083L41.6851 84.7563L40.9711 86.8563Z" fill="#EFEFEF"/>
<path opacity="0.7" d="M40.9711 86.8563H37.2841L37.3171 84.7083L41.6851 84.7563L40.9711 86.8563Z" fill="white"/>
<path d="M51.873 86.8563H47.877L47.907 84.7083L52.134 84.7563L51.873 86.8563Z" fill="#EFEFEF"/>
<path opacity="0.7" d="M51.873 86.8563H47.877L47.907 84.7083L52.134 84.7563L51.873 86.8563Z" fill="white"/>
<path d="M42.747 35.1694L42.306 36.0484C42.27 36.1144 42.351 36.1834 42.465 36.1834H52.755C52.842 36.1834 52.917 36.1414 52.923 36.0844L53.01 35.2084C53.01 35.1454 52.941 35.0944 52.842 35.0944H42.906C42.8752 35.0917 42.8443 35.0972 42.8163 35.1104C42.7884 35.1236 42.7645 35.1439 42.747 35.1694V35.1694Z" fill="#EFEFEF"/>
<path opacity="0.6" d="M42.747 35.1694L42.306 36.0484C42.27 36.1144 42.351 36.1834 42.465 36.1834H52.755C52.842 36.1834 52.917 36.1414 52.923 36.0844L53.01 35.2084C53.01 35.1454 52.941 35.0944 52.842 35.0944H42.906C42.8752 35.0917 42.8443 35.0972 42.8163 35.1104C42.7884 35.1236 42.7645 35.1439 42.747 35.1694V35.1694Z" fill="white"/>
<path d="M43.662 36.1922H43.395C43.341 36.1922 43.302 36.1652 43.305 36.1322L43.431 34.9892C43.431 34.9562 43.479 34.9292 43.533 34.9292H43.8C43.851 34.9292 43.893 34.9562 43.89 34.9892L43.764 36.1322C43.761 36.1652 43.713 36.1922 43.662 36.1922Z" fill="#EFEFEF"/>
<path d="M52.26 36.1922H51.993C51.942 36.1922 51.9 36.1652 51.903 36.1322L52.029 34.9892C52.029 34.9562 52.08 34.9292 52.131 34.9292H52.398C52.452 34.9292 52.491 34.9562 52.488 34.9892L52.362 36.1322C52.359 36.1652 52.314 36.1922 52.26 36.1922Z" fill="#EFEFEF"/>
<path d="M48.783 36.1922H48.519C48.465 36.1922 48.426 36.1652 48.429 36.1322L48.552 34.9892C48.552 34.9562 48.603 34.9292 48.657 34.9292H48.924C48.975 34.9292 49.017 34.9562 49.011 34.9892L48.888 36.1322C48.885 36.1652 48.837 36.1922 48.783 36.1922Z" fill="#EFEFEF"/>
<path d="M44.7 34.5695H45.135C45.1907 34.5687 45.2443 34.548 45.2861 34.5111C45.3279 34.4743 45.3552 34.4237 45.363 34.3686V34.3686C45.3669 34.3432 45.3653 34.3172 45.3582 34.2925C45.351 34.2678 45.3386 34.245 45.3218 34.2256C45.3049 34.2061 45.2841 34.1906 45.2606 34.1801C45.2372 34.1696 45.2117 34.1643 45.186 34.1646H44.76C44.7039 34.1655 44.6499 34.1867 44.6081 34.2241C44.5662 34.2616 44.5392 34.3129 44.532 34.3686C44.5282 34.3931 44.5296 34.4181 44.5362 34.442C44.5428 34.4659 44.5545 34.4881 44.5704 34.5072C44.5863 34.5262 44.6061 34.5416 44.6285 34.5524C44.6508 34.5631 44.6752 34.569 44.7 34.5695V34.5695Z" fill="#E0E0E0"/>
<path d="M45.12 35.0974L45.189 34.5274C45.1944 34.494 45.1923 34.4599 45.1828 34.4275C45.1734 34.3951 45.1569 34.3652 45.1345 34.34C45.1121 34.3147 45.0844 34.2947 45.0534 34.2815C45.0223 34.2682 44.9887 34.262 44.955 34.2634V34.2634C44.8813 34.2628 44.81 34.2894 44.7547 34.3381C44.6993 34.3868 44.6639 34.4542 44.655 34.5274L44.586 35.0974C44.5807 35.1307 44.5828 35.1648 44.5922 35.1972C44.6016 35.2296 44.6181 35.2595 44.6405 35.2848C44.6629 35.31 44.6906 35.33 44.7217 35.3433C44.7527 35.3565 44.7863 35.3627 44.82 35.3614V35.3614C44.8937 35.3619 44.965 35.3353 45.0204 35.2866C45.0757 35.2379 45.1112 35.1705 45.12 35.0974Z" fill="#E0E0E0"/>
<path d="M50.922 34.5696H51.36C51.4154 34.5686 51.4685 34.5478 51.5098 34.5109C51.5511 34.474 51.5778 34.4235 51.585 34.3686V34.3686C51.5889 34.3432 51.5873 34.3172 51.5801 34.2925C51.573 34.2678 51.5606 34.245 51.5438 34.2256C51.5269 34.2061 51.506 34.1906 51.4826 34.1801C51.4591 34.1696 51.4337 34.1643 51.408 34.1646H50.97C50.9142 34.1667 50.8609 34.1883 50.8193 34.2255C50.7777 34.2628 50.7503 34.3133 50.742 34.3686V34.3686C50.7385 34.394 50.7406 34.4199 50.7481 34.4444C50.7556 34.469 50.7684 34.4916 50.7855 34.5107C50.8026 34.5298 50.8237 34.545 50.8473 34.5552C50.8708 34.5653 50.8963 34.5702 50.922 34.5696V34.5696Z" fill="#E0E0E0"/>
<path d="M51.339 35.0974L51.408 34.5274C51.4133 34.494 51.4112 34.4599 51.4018 34.4275C51.3924 34.3951 51.3759 34.3652 51.3535 34.34C51.3311 34.3147 51.3034 34.2947 51.2724 34.2815C51.2413 34.2682 51.2077 34.262 51.174 34.2634V34.2634C51.1003 34.2628 51.029 34.2894 50.9736 34.3381C50.9183 34.3868 50.8828 34.4542 50.874 34.5274L50.805 35.0974C50.8002 35.1306 50.8027 35.1645 50.8123 35.1967C50.8219 35.2288 50.8385 35.2585 50.8607 35.2836C50.883 35.3088 50.9105 35.3288 50.9413 35.3422C50.9721 35.3556 51.0054 35.3621 51.039 35.3614C51.1127 35.3619 51.184 35.3353 51.2393 35.2866C51.2947 35.2379 51.3301 35.1705 51.339 35.0974Z" fill="#E0E0E0"/>
<path d="M43.335 20.4694L43.824 20.4214C43.8612 20.4185 43.8982 20.4286 43.9288 20.45C43.9594 20.4713 43.9817 20.5025 43.992 20.5384C46.029 27.3064 45.252 34.3804 45.252 34.3804H44.625C45.099 25.9624 43.458 21.5674 43.2 20.6644C43.1942 20.6426 43.1933 20.6198 43.1972 20.5976C43.2011 20.5754 43.2097 20.5543 43.2226 20.5358C43.2354 20.5172 43.2521 20.5017 43.2715 20.4902C43.2909 20.4788 43.3126 20.4717 43.335 20.4694V20.4694Z" fill="#EFEFEF"/>
<path opacity="0.6" d="M43.335 20.4694L43.824 20.4214C43.8612 20.4185 43.8982 20.4286 43.9288 20.45C43.9594 20.4713 43.9817 20.5025 43.992 20.5384C46.029 27.3064 45.252 34.3804 45.252 34.3804H44.625C45.099 25.9624 43.458 21.5674 43.2 20.6644C43.1942 20.6426 43.1933 20.6198 43.1972 20.5976C43.2011 20.5754 43.2097 20.5543 43.2226 20.5358C43.2354 20.5172 43.2521 20.5017 43.2715 20.4902C43.2909 20.4788 43.3126 20.4717 43.335 20.4694V20.4694Z" fill="white"/>
<path d="M50.862 20.4424L51.291 20.5024C51.3242 20.5087 51.3546 20.525 51.3782 20.5491C51.4018 20.5733 51.4174 20.6041 51.423 20.6374C52.641 25.8934 51.474 34.3654 51.474 34.3654H50.844C51.642 25.1704 50.826 21.4654 50.688 20.6194C50.6846 20.5956 50.6867 20.5714 50.6942 20.5485C50.7017 20.5257 50.7143 20.5049 50.7312 20.4878C50.748 20.4707 50.7686 20.4577 50.7913 20.4498C50.814 20.4419 50.8382 20.4394 50.862 20.4424V20.4424Z" fill="#EFEFEF"/>
<path opacity="0.6" d="M50.862 20.4424L51.291 20.5024C51.3242 20.5087 51.3546 20.525 51.3782 20.5491C51.4018 20.5733 51.4174 20.6041 51.423 20.6374C52.641 25.8934 51.474 34.3654 51.474 34.3654H50.844C51.642 25.1704 50.826 21.4654 50.688 20.6194C50.6846 20.5956 50.6867 20.5714 50.6942 20.5485C50.7017 20.5257 50.7143 20.5049 50.7312 20.4878C50.748 20.4707 50.7686 20.4577 50.7913 20.4498C50.814 20.4419 50.8382 20.4394 50.862 20.4424V20.4424Z" fill="white"/>
<path d="M42.435 23.9554C42.435 24.6304 42.456 25.3504 42.495 26.0554C42.534 26.7604 42.564 27.4564 42.636 28.1554C42.708 28.8544 42.798 29.5234 42.936 30.1774C43.002 30.5014 43.077 30.8194 43.164 31.1194C43.21 31.2694 43.258 31.4134 43.308 31.5514L43.377 31.7254C43.3757 31.7282 43.375 31.7313 43.375 31.7344C43.375 31.7375 43.3757 31.7406 43.377 31.7434C43.377 31.7704 43.491 31.8664 43.716 31.9324C43.9832 32.0034 44.2585 32.0397 44.535 32.0404C45.1975 32.0452 45.8591 31.991 46.512 31.8784C47.193 31.7734 47.883 31.6264 48.567 31.4584C49.251 31.2904 49.95 31.1044 50.622 30.9124L51.084 32.0434C49.7456 32.7189 48.3451 33.2634 46.902 33.6694C46.1426 33.8888 45.3624 34.0285 44.574 34.0864C44.1256 34.118 43.6751 34.0928 43.233 34.0114C42.9684 33.9599 42.7114 33.8752 42.468 33.7594C42.1734 33.6209 41.9101 33.4239 41.694 33.1804C41.5776 33.0496 41.477 32.9056 41.394 32.7514C41.346 32.6644 41.334 32.6344 41.307 32.5804L41.235 32.4334C41.148 32.2354 41.067 32.0404 40.995 31.8334C40.8556 31.4563 40.7374 31.0717 40.641 30.6814C40.4546 29.9366 40.3133 29.1813 40.218 28.4194C40.022 26.9278 39.9367 25.4237 39.963 23.9194L42.435 23.9554Z" fill="#CBCBCB"/>
<path d="M50.0911 31.2184L50.8501 28.8994L52.143 30.9994C52.143 30.9994 51.3841 32.3524 50.3791 32.3314L50.0911 31.2184Z" fill="#CBCBCB"/>
<path d="M52.536 27.7683L53.526 29.5743L52.143 30.9873L50.85 28.8993L52.536 27.7683Z" fill="#CBCBCB"/>
<path d="M41.115 21.0063C40.131 21.3063 38.952 24.6903 38.952 24.6903L42.765 27.4173C42.765 27.4173 44.157 24.5913 43.743 23.3193C43.314 21.9963 42.237 20.6643 41.115 21.0063Z" fill="#EFEFEF"/>
<path opacity="0.7" d="M41.115 21.0063C40.131 21.3063 38.952 24.6903 38.952 24.6903L42.765 27.4173C42.765 27.4173 44.157 24.5913 43.743 23.3193C43.314 21.9963 42.237 20.6643 41.115 21.0063Z" fill="black"/>
<path d="M45 9.89444C46.335 9.39344 46.71 8.80544 46.8 8.55044C46.8145 8.51297 46.8193 8.47245 46.8141 8.43262C46.8088 8.39278 46.7937 8.3549 46.77 8.32244C46.563 8.02244 45.897 7.21244 45.189 7.77344C44.481 8.33444 43.875 8.33444 44.688 9.78345C44.7168 9.83746 44.7648 9.87878 44.8225 9.89931C44.8802 9.91983 44.9435 9.9181 45 9.89444V9.89444Z" fill="#EFEFEF"/>
<path opacity="0.3" d="M45 9.89444C46.335 9.39344 46.71 8.80544 46.8 8.55044C46.8145 8.51297 46.8193 8.47245 46.8141 8.43262C46.8088 8.39278 46.7937 8.3549 46.77 8.32244C46.563 8.02244 45.897 7.21244 45.189 7.77344C44.481 8.33444 43.875 8.33444 44.688 9.78345C44.7168 9.83746 44.7648 9.87878 44.8225 9.89931C44.8802 9.91983 44.9435 9.9181 45 9.89444V9.89444Z" fill="black"/>
</svg>
