<svg width="64" height="93" viewBox="0 0 64 93" fill="none" xmlns="http://www.w3.org/2000/svg">
<path d="M0 22.1793L0.165759 24.8373L1.79967 24.8943L2.22591 22.3023L0 22.1793Z" fill="#E4897B"/>
<path d="M15.1552 17.2984C14.7053 18.7204 14.2109 20.0884 13.6604 21.4654C13.1064 22.8659 12.4739 24.2331 11.766 25.5604L11.47 26.0764L11.1385 26.6014C11.1059 26.6494 11.0941 26.6764 11.0467 26.7424C10.9993 26.8084 10.9609 26.8654 10.9135 26.9254C10.8212 27.0478 10.7223 27.1649 10.6175 27.2764C10.3852 27.5167 10.1176 27.7191 9.82422 27.8764C9.26394 28.1653 8.63689 28.2949 8.00974 28.2514C7.51081 28.2121 7.02122 28.0926 6.55934 27.8974C6.16007 27.7357 5.7774 27.5348 5.41678 27.2974C5.07626 27.0822 4.74996 26.8447 4.43998 26.5864C4.13983 26.3384 3.85234 26.0751 3.57862 25.7974C3.29931 25.5217 3.03452 25.2313 2.78534 24.9274L3.96934 23.6314C4.23574 23.7904 4.54062 23.9824 4.82774 24.1474C5.11486 24.3124 5.41974 24.4654 5.71574 24.6154C6.2546 24.8932 6.82389 25.1057 7.41182 25.2484C7.62231 25.2914 7.83839 25.2985 8.05118 25.2694C8.21398 25.2454 8.27614 25.1914 8.29686 25.1524L8.34126 25.0774L8.37382 25.0114L8.39454 24.9694L8.43894 24.8794L8.65206 24.4714L8.86222 24.0274C9.40982 22.8124 9.91302 21.4894 10.3925 20.1634C10.8721 18.8374 11.3545 17.4844 11.8193 16.1644L15.1552 17.2984Z" fill="#E4897B"/>
<path d="M4.0227 23.6704L2.22894 22.3024L1.79974 24.8944C1.79974 24.8944 3.27974 26.0404 4.33942 25.0414L4.0227 23.6704Z" fill="#E4897B"/>
<path d="M16.7151 14.8954C17.467 16.9114 13.4858 24.0934 13.4858 24.0934L8.48633 22.3684C8.48633 22.3684 10.2623 17.4424 11.7897 15.1264C13.3792 12.7474 15.8922 12.6694 16.7151 14.8954Z" fill="#2354D7"/>
<path opacity="0.3" d="M16.7151 14.8954C17.467 16.9114 13.4858 24.0934 13.4858 24.0934L8.48633 22.3684C8.48633 22.3684 10.2623 17.4424 11.7897 15.1264C13.3792 12.7474 15.8922 12.6694 16.7151 14.8954Z" fill="black"/>
<path d="M14.0747 13.3503C14.0747 13.3503 11.4462 18.3873 13.9415 31.0683H25.8437C25.9266 29.2173 24.7781 21.9603 26.5393 13.2363C25.2237 12.9781 23.8928 12.8078 22.5551 12.7263C20.8703 12.6272 19.1813 12.6272 17.4965 12.7263C16.3416 12.8439 15.1976 13.0525 14.0747 13.3503V13.3503Z" fill="#2354D7"/>
<path opacity="0.3" d="M14.0747 13.3503C14.0747 13.3503 11.4462 18.3873 13.9415 31.0683H25.8437C25.9266 29.2173 24.7781 21.9603 26.5393 13.2363C25.2237 12.9781 23.8928 12.8078 22.5551 12.7263C20.8703 12.6272 19.1813 12.6272 17.4965 12.7263C16.3416 12.8439 15.1976 13.0525 14.0747 13.3503V13.3503Z" fill="black"/>
<path d="M28.9133 90.2612H26.7377L26.3262 85.1582H28.4989L28.9133 90.2612Z" fill="#E4897B"/>
<path d="M26.3262 85.1614L26.5394 87.7894H28.715L28.5018 85.1614H26.3262Z" fill="#CE6F64"/>
<path d="M16.126 90.2612H13.9534L13.8794 85.1582H16.055L16.126 90.2612Z" fill="#E4897B"/>
<path d="M13.8794 85.1614L13.9179 87.7894H16.0935L16.055 85.1614H13.8794Z" fill="#CE6F64"/>
<path d="M13.9416 31.0684C13.9416 31.0684 12.3432 51.7444 12.0442 58.6204C11.7334 65.7694 13.2134 87.1593 13.2134 87.1593H16.7506C16.7506 87.1593 18.0412 67.3203 18.648 60.3184C19.311 52.6864 21.7649 31.0684 21.7649 31.0684H13.9416Z" fill="#2354D7"/>
<path opacity="0.7" d="M13.9416 31.0684C13.9416 31.0684 12.3432 51.7444 12.0442 58.6204C11.7334 65.7694 13.2134 87.1593 13.2134 87.1593H16.7506C16.7506 87.1593 18.0412 67.3203 18.648 60.3184C19.311 52.6864 21.7649 31.0684 21.7649 31.0684H13.9416Z" fill="black"/>
<path d="M26.6548 90.0063H29.0228C29.0664 90.0067 29.1085 90.022 29.1424 90.0498C29.1763 90.0776 29.1999 90.1162 29.2093 90.1593L29.6385 92.1183C29.6487 92.1656 29.6483 92.2146 29.6373 92.2617C29.6262 92.3088 29.6048 92.3527 29.5746 92.3902C29.5444 92.4277 29.5063 92.4578 29.463 92.4783C29.4197 92.4988 29.3724 92.509 29.3247 92.5083C28.4693 92.4933 27.232 92.4423 26.1545 92.4423C24.8965 92.4423 24.7219 92.5143 23.2448 92.5143C22.3568 92.5143 22.1023 91.6143 22.4782 91.5153C24.1773 91.1373 24.6538 91.0983 26.1249 90.1803C26.2816 90.0724 26.4654 90.012 26.6548 90.0063V90.0063Z" fill="#263238"/>
<path d="M13.8676 90.0063H16.2356C16.279 90.0062 16.321 90.0215 16.3545 90.0494C16.388 90.0773 16.4109 90.1162 16.4191 90.1593L16.8513 92.1183C16.8616 92.1656 16.8612 92.2146 16.8501 92.2617C16.839 92.3088 16.8176 92.3527 16.7874 92.3902C16.7573 92.4277 16.7191 92.4578 16.6758 92.4783C16.6326 92.4988 16.5853 92.509 16.5375 92.5083C15.6791 92.4933 14.4418 92.4423 13.3674 92.4423C12.1064 92.4423 11.0201 92.5143 9.54304 92.5143C8.65504 92.5143 8.40344 91.6143 8.7764 91.5153C10.4784 91.1373 11.8666 91.0983 13.3378 90.1803C13.4942 90.0719 13.6782 90.0115 13.8676 90.0063Z" fill="#263238"/>
<path d="M12.9707 90.3453C12.8229 90.3813 12.6674 90.3654 12.5297 90.3003C12.4835 90.274 12.4452 90.2357 12.4186 90.1892C12.3921 90.1428 12.3783 90.09 12.3787 90.0363C12.3739 90.0059 12.3774 89.9746 12.3888 89.9461C12.4003 89.9175 12.4194 89.8927 12.4438 89.8743C12.6629 89.7093 13.4443 90.0363 13.5331 90.0753C13.5423 90.0796 13.5502 90.0863 13.5559 90.0948C13.5616 90.1032 13.565 90.1131 13.5657 90.1233C13.5652 90.134 13.562 90.1443 13.5562 90.1533C13.5505 90.1623 13.5425 90.1695 13.5331 90.1743C13.3521 90.251 13.1636 90.3083 12.9707 90.3453V90.3453ZM12.5711 89.9373C12.5477 89.9392 12.5252 89.9475 12.506 89.9613C12.4912 89.9613 12.4794 89.9853 12.4823 90.0273C12.4834 90.0633 12.4932 90.0986 12.5107 90.1299C12.5282 90.1613 12.553 90.1878 12.583 90.2073C12.8464 90.2822 13.1281 90.2522 13.3703 90.1233C13.1182 90.0099 12.8468 89.9468 12.5711 89.9373Z" fill="#2354D7"/>
<path d="M13.5213 90.1773H13.4947C13.246 90.0873 12.731 89.6703 12.7399 89.4153C12.7408 89.3753 12.7555 89.3368 12.7814 89.3067C12.8074 89.2765 12.843 89.2566 12.8819 89.2503C12.9211 89.2392 12.962 89.2364 13.0022 89.2421C13.0425 89.2478 13.0811 89.2618 13.1158 89.2833C13.4118 89.4543 13.5568 90.0873 13.5627 90.1143C13.5655 90.1233 13.5656 90.133 13.5629 90.1421C13.5603 90.1511 13.5551 90.1592 13.5479 90.1653C13.5402 90.1715 13.531 90.1756 13.5213 90.1773V90.1773ZM12.9293 89.3433H12.9056C12.8405 89.3643 12.8405 89.3943 12.8375 89.4093C12.8375 89.5593 13.172 89.8833 13.4295 90.0093C13.3744 89.7581 13.2466 89.5294 13.0625 89.3523C13.0223 89.3349 12.9774 89.3318 12.9352 89.3433H12.9293Z" fill="#2354D7"/>
<path d="M17.4314 87.2496H13.0418L12.6599 85.5696L17.5084 85.6566L17.4314 87.2496Z" fill="#2354D7"/>
<path d="M25.7579 90.3453C25.6101 90.3813 25.4546 90.3654 25.3169 90.3003C25.2724 90.2721 25.2354 90.2333 25.2091 90.1873C25.1828 90.1413 25.168 90.0894 25.1659 90.0363C25.161 90.0059 25.1645 89.9746 25.176 89.9461C25.1875 89.9175 25.2065 89.8927 25.231 89.8743C25.453 89.7093 26.2315 90.0363 26.3203 90.0753C26.3299 90.079 26.3382 90.0856 26.344 90.0941C26.3498 90.1027 26.3529 90.1129 26.3528 90.1233C26.3531 90.1341 26.3501 90.1448 26.3443 90.1539C26.3385 90.163 26.3301 90.1701 26.3203 90.1743C26.1392 90.251 25.9507 90.3083 25.7579 90.3453V90.3453ZM25.3583 89.9373C25.335 89.9398 25.3126 89.948 25.2932 89.9613C25.2835 89.969 25.2761 89.9792 25.272 89.9909C25.2678 90.0025 25.2669 90.0152 25.2695 90.0273C25.2706 90.0633 25.2803 90.0986 25.2979 90.1299C25.3154 90.1613 25.3402 90.1878 25.3701 90.2073C25.6335 90.2822 25.9152 90.2522 26.1575 90.1233C25.9053 90.0099 25.634 89.9468 25.3583 89.9373Z" fill="#2354D7"/>
<path d="M26.3085 90.1773H26.2818C26.0361 90.0873 25.5181 89.6703 25.527 89.4152C25.5286 89.375 25.5439 89.3365 25.5704 89.3064C25.5968 89.2763 25.6328 89.2565 25.6721 89.2502C25.7106 89.2385 25.7512 89.2353 25.7911 89.241C25.8309 89.2467 25.8691 89.2611 25.9029 89.2832C26.1989 89.4542 26.344 90.0873 26.3499 90.1143C26.3546 90.1219 26.3571 90.1307 26.3571 90.1398C26.3571 90.1488 26.3546 90.1576 26.3499 90.1653C26.3381 90.1744 26.3233 90.1787 26.3085 90.1773V90.1773ZM25.7165 89.3432H25.6958C25.6277 89.3642 25.6277 89.3942 25.6277 89.4092C25.6277 89.5592 25.9592 89.8832 26.2197 90.0093C26.1635 89.7578 26.0347 89.5291 25.8497 89.3522C25.8094 89.3349 25.7646 89.3317 25.7224 89.3432H25.7165Z" fill="#2354D7"/>
<path d="M18.1655 31.0684C18.1655 31.0684 19.1749 51.2794 20.5602 57.7354C22.0786 64.8064 25.3938 87.1593 25.3938 87.1593H29.4668C29.4668 87.1593 28.1022 65.3763 27.235 58.3774C26.2966 50.7784 25.8438 31.0774 25.8438 31.0774L18.1655 31.0684Z" fill="#2354D7"/>
<path opacity="0.7" d="M18.1655 31.0684C18.1655 31.0684 19.1749 51.2794 20.5602 57.7354C22.0786 64.8064 25.3938 87.1593 25.3938 87.1593H29.4668C29.4668 87.1593 28.1022 65.3763 27.235 58.3774C26.2966 50.7784 25.8438 31.0774 25.8438 31.0774L18.1655 31.0684Z" fill="black"/>
<path d="M27.824 84.7203C27.8287 84.7195 27.8332 84.7179 27.8372 84.7153C27.8413 84.7128 27.8448 84.7095 27.8476 84.7056C27.8503 84.7017 27.8523 84.6972 27.8533 84.6925C27.8544 84.6878 27.8544 84.683 27.8536 84.6782C27.821 84.4682 26.8235 64.9202 26.045 58.6322C25.2014 51.8072 24.938 33.6992 24.9202 33.5462C24.9181 33.5362 24.9124 33.5273 24.9042 33.5212C24.8961 33.5151 24.8859 33.5123 24.8758 33.5132C24.8709 33.5136 24.8661 33.515 24.8617 33.5173C24.8573 33.5197 24.8534 33.523 24.8504 33.5269C24.8473 33.5309 24.8451 33.5354 24.8439 33.5403C24.8426 33.5452 24.8424 33.5503 24.8433 33.5552C24.861 33.7082 25.1393 51.8162 25.971 58.6412C26.7495 64.9412 27.747 84.4803 27.7796 84.6903C27.7817 84.7001 27.7876 84.7087 27.7958 84.7143C27.8041 84.7199 27.8142 84.722 27.824 84.7203V84.7203Z" fill="#2354D7"/>
<path opacity="0.4" d="M27.824 84.7203C27.8287 84.7195 27.8332 84.7179 27.8372 84.7153C27.8413 84.7128 27.8448 84.7095 27.8476 84.7056C27.8503 84.7017 27.8523 84.6972 27.8533 84.6925C27.8544 84.6878 27.8544 84.683 27.8536 84.6782C27.821 84.4682 26.8235 64.9202 26.045 58.6322C25.2014 51.8072 24.938 33.6992 24.9202 33.5462C24.9181 33.5362 24.9124 33.5273 24.9042 33.5212C24.8961 33.5151 24.8859 33.5123 24.8758 33.5132C24.8709 33.5136 24.8661 33.515 24.8617 33.5173C24.8573 33.5197 24.8534 33.523 24.8504 33.5269C24.8473 33.5309 24.8451 33.5354 24.8439 33.5403C24.8426 33.5452 24.8424 33.5503 24.8433 33.5552C24.861 33.7082 25.1393 51.8162 25.971 58.6412C26.7495 64.9412 27.747 84.4803 27.7796 84.6903C27.7817 84.7001 27.7876 84.7087 27.7958 84.7143C27.8041 84.7199 27.8142 84.722 27.824 84.7203V84.7203Z" fill="black"/>
<path d="M29.6267 87.2494H25.234L24.8522 85.5694L29.7125 85.4314L29.6267 87.2494Z" fill="#2354D7"/>
<path d="M22.055 6.95142C21.7353 8.60142 21.4156 11.6254 22.5552 12.7264C22.5552 12.7264 22.0431 13.8334 19.018 13.8334C16.2534 13.8334 17.4966 12.7264 17.4966 12.7264C19.3111 12.2854 19.2726 10.9264 18.9499 9.63941L22.055 6.95142Z" fill="#E4897B"/>
<path d="M20.7792 8.04932L18.941 9.63931C19.0198 9.93395 19.0723 10.2352 19.0979 10.5393C19.6899 11.1093 20.7437 9.66631 20.8177 8.93131C20.8568 8.63734 20.8438 8.33865 20.7792 8.04932Z" fill="#CE6F64"/>
<path d="M16.4901 1.92345C15.5015 2.59245 15.4867 5.76045 16.9963 6.19845C18.5059 6.63645 18.3638 0.669444 16.4901 1.92345Z" fill="#263238"/>
<path d="M22.2592 4.47033C22.126 6.70233 22.1585 8.01633 21.0456 9.16533C19.3702 10.8903 16.65 9.86433 16.1231 7.63533C15.6495 5.62833 15.9514 2.31333 18.1092 1.42234C18.5841 1.22379 19.1012 1.15171 19.6114 1.21296C20.1215 1.27421 20.6077 1.46676 21.0237 1.77227C21.4396 2.07779 21.7715 2.48611 21.9878 2.95837C22.2041 3.43064 22.2975 3.95113 22.2592 4.47033V4.47033Z" fill="#E4897B"/>
<path d="M23.0229 1.65344L20.8946 2.61944C21.7294 4.19745 19.8527 6.86145 21.7442 6.57045C22.6114 6.43545 25.3465 3.69344 23.0229 1.65344Z" fill="#263238"/>
<path d="M22.4723 5.70037C21.9454 5.57737 20.3056 5.23536 20.2878 5.23236C20.2755 5.22948 20.2648 5.22203 20.2576 5.21147C20.2505 5.20091 20.2476 5.18802 20.2494 5.17536C20.2504 5.16901 20.2527 5.16293 20.2562 5.15751C20.2596 5.15208 20.2641 5.1474 20.2693 5.14376C20.2746 5.14012 20.2805 5.13759 20.2867 5.13632C20.2929 5.13505 20.2994 5.13506 20.3056 5.13636C20.3234 5.13636 21.9662 5.48137 22.496 5.60437C22.5086 5.60437 22.5206 5.60943 22.5295 5.61843C22.5384 5.62743 22.5434 5.63964 22.5434 5.65237C22.5434 5.66511 22.5384 5.67731 22.5295 5.68632C22.5206 5.69532 22.5086 5.70037 22.496 5.70037H22.4723Z" fill="#263238"/>
<path d="M23.2449 6.93042C23.0985 7.16651 22.9076 7.37099 22.6831 7.53213C22.4586 7.69327 22.2049 7.80789 21.9366 7.86942C21.2173 8.03142 20.8976 7.36842 21.1315 6.70242C21.3446 6.10242 21.9721 5.29842 22.6766 5.43642C22.8298 5.46983 22.9725 5.54137 23.0916 5.64461C23.2108 5.74785 23.3027 5.87953 23.3591 6.02777C23.4155 6.17601 23.4346 6.33615 23.4146 6.49373C23.3947 6.65132 23.3364 6.80139 23.2449 6.93042Z" fill="#E4897B"/>
<path d="M19.0417 5.0944C19.0417 5.2744 18.944 5.4214 18.8285 5.4214C18.7131 5.4214 18.6154 5.2744 18.6154 5.0944C18.6154 4.9144 18.7101 4.7644 18.8285 4.7644C18.9469 4.7644 19.0417 4.9114 19.0417 5.0944Z" fill="#263238"/>
<path d="M17.0111 5.0944C17.0111 5.2744 16.9164 5.4214 16.798 5.4214C16.6796 5.4214 16.5878 5.2744 16.5878 5.0944C16.5878 4.9144 16.6826 4.7644 16.798 4.7644C16.9134 4.7644 17.0111 4.9114 17.0111 5.0944Z" fill="#263238"/>
<path d="M17.5232 5.18445C17.3094 5.73963 17.0216 6.26249 16.6677 6.73845C16.7896 6.82797 16.9294 6.88917 17.0773 6.91769C17.2251 6.94621 17.3774 6.94134 17.5232 6.90345V5.18445Z" fill="#DE5753"/>
<path d="M17.7896 7.68043C17.7826 7.68005 17.7757 7.67827 17.7694 7.6752C17.7631 7.67212 17.7574 7.66782 17.7528 7.66252C17.7481 7.65723 17.7445 7.65105 17.7422 7.64434C17.7399 7.63763 17.7389 7.63053 17.7393 7.62343C17.7393 7.61648 17.7407 7.60959 17.7434 7.6032C17.7461 7.59681 17.7501 7.59104 17.7551 7.58627C17.76 7.58149 17.7659 7.5778 17.7724 7.57542C17.7788 7.57304 17.7857 7.57202 17.7926 7.57243C18.0158 7.58698 18.2392 7.54813 18.4449 7.45901C18.6506 7.3699 18.8327 7.23302 18.9766 7.05943C18.9849 7.04808 18.997 7.04026 19.0107 7.03748C19.0244 7.03471 19.0386 7.03719 19.0506 7.04443C19.0601 7.0545 19.0655 7.06794 19.0655 7.08193C19.0655 7.09592 19.0601 7.10937 19.0506 7.11943C18.8993 7.3076 18.7061 7.4566 18.4869 7.55415C18.2676 7.6517 18.0286 7.69498 17.7896 7.68043V7.68043Z" fill="#263238"/>
<path d="M19.9563 3.5614C19.9404 3.56319 19.9244 3.56113 19.9095 3.5554C19.8945 3.54966 19.8812 3.5404 19.8705 3.5284C19.7854 3.42477 19.677 3.34342 19.5544 3.2912C19.4318 3.23898 19.2986 3.21744 19.166 3.22839C19.1383 3.23193 19.1102 3.22457 19.0877 3.20784C19.0651 3.19111 19.0497 3.16626 19.0446 3.1384C19.0403 3.1106 19.0469 3.08219 19.0629 3.05922C19.0789 3.03624 19.1032 3.02052 19.1305 3.01539C19.2963 3.00003 19.4633 3.02495 19.6178 3.08808C19.7722 3.15121 19.9096 3.25073 20.0185 3.3784C20.0376 3.39853 20.0483 3.42542 20.0483 3.4534C20.0483 3.48138 20.0376 3.50826 20.0185 3.5284C20.0015 3.54551 19.9798 3.55702 19.9563 3.5614V3.5614Z" fill="#263238"/>
<path d="M23.8984 18.7231L20.4224 18.605L20.4128 18.8928L23.8889 19.0109L23.8984 18.7231Z" fill="#E0E0E0"/>
<path d="M16.1083 3.54039C16.093 3.5354 16.0789 3.52722 16.0668 3.51639C16.0475 3.49575 16.0367 3.46836 16.0367 3.43989C16.0367 3.41141 16.0475 3.38402 16.0668 3.36339C16.182 3.24019 16.3246 3.14675 16.4827 3.0909C16.6408 3.03505 16.8098 3.01842 16.9756 3.04239C16.9907 3.04341 17.0054 3.0477 17.0188 3.05496C17.0322 3.06222 17.0439 3.07229 17.0531 3.0845C17.0623 3.0967 17.0688 3.11076 17.0723 3.12574C17.0757 3.14071 17.0759 3.15625 17.073 3.17133C17.07 3.1864 17.0639 3.20065 17.055 3.21314C17.0462 3.22563 17.0348 3.23605 17.0217 3.24373C17.0085 3.2514 16.9939 3.25614 16.9788 3.25763C16.9637 3.25913 16.9485 3.25734 16.9341 3.25239V3.25239C16.8029 3.23571 16.6696 3.25065 16.5452 3.296C16.4207 3.34136 16.3085 3.41584 16.2178 3.51339C16.2037 3.52753 16.186 3.53751 16.1667 3.54226C16.1474 3.54702 16.1272 3.54637 16.1083 3.54039V3.54039Z" fill="#263238"/>
<path d="M18.3195 1.65338C18.3195 1.65338 18.2544 -0.0866254 19.9889 0.00337477C21.3357 0.0723749 23.8606 2.05238 24.6509 1.65338C24.6509 1.65338 23.1709 3.42338 21.2232 2.85338C20.2071 2.58564 19.2306 2.1821 18.3195 1.65338V1.65338Z" fill="#263238"/>
<path d="M18.3194 1.65341C18.3194 1.65341 19.7757 0.75341 18.8108 0.240409C17.4077 -0.497592 15.7205 2.18441 14.9332 1.78541C14.9332 1.78541 15.1048 3.06041 16.9844 2.31341C17.4454 2.12827 17.8917 1.90763 18.3194 1.65341Z" fill="#263238"/>
<path d="M19.0417 6.63029C18.3254 6.63029 17.7422 5.89229 17.7422 4.98628C17.7422 4.18228 18.204 3.73828 19.0417 3.73828C19.8794 3.73828 20.3441 4.18228 20.3441 4.98628C20.3441 5.89229 19.761 6.63029 19.0417 6.63029ZM19.0417 3.83428C18.4941 3.83428 17.837 4.03528 17.837 4.98628C17.837 5.83829 18.3786 6.53129 19.0417 6.53129C19.7047 6.53129 20.2464 5.83829 20.2464 4.98628C20.2464 4.03528 19.5952 3.83428 19.0417 3.83428V3.83428Z" fill="#263238"/>
<path d="M16.1054 6.63029C15.5134 6.63029 15.0131 5.89229 15.0131 4.98628C15.0131 3.90028 15.6969 3.73828 16.1054 3.73828C16.5138 3.73828 17.1976 3.90028 17.1976 4.98628C17.1976 5.89229 16.7092 6.63029 16.1054 6.63029ZM16.1054 3.83428C15.6495 3.83428 15.1078 4.03528 15.1078 4.98628C15.1078 5.83829 15.5548 6.53129 16.1054 6.53129C16.6559 6.53129 17.1029 5.83829 17.1029 4.98628C17.1029 4.03528 16.5612 3.83428 16.1054 3.83428V3.83428Z" fill="#263238"/>
<path d="M17.0614 4.45539C17.053 4.45546 17.0448 4.45328 17.0375 4.44906C17.0302 4.44485 17.0241 4.43875 17.02 4.43139C17.0163 4.42601 17.0139 4.41991 17.0129 4.41349C17.0118 4.40708 17.0121 4.40051 17.0138 4.39424C17.0155 4.38797 17.0185 4.38214 17.0227 4.37716C17.0268 4.37218 17.0319 4.36816 17.0377 4.36539C17.1719 4.28397 17.3253 4.24097 17.4817 4.24097C17.6381 4.24097 17.7916 4.28397 17.9257 4.36539C17.9367 4.37172 17.945 4.38204 17.9488 4.39428C17.9527 4.40651 17.9518 4.41976 17.9464 4.43139C17.9436 4.43719 17.9397 4.44236 17.9348 4.44658C17.93 4.45081 17.9244 4.45399 17.9183 4.45595C17.9122 4.45792 17.9058 4.45861 17.8995 4.458C17.8931 4.45738 17.8869 4.45548 17.8813 4.45239C17.7623 4.37869 17.6256 4.33969 17.4862 4.33969C17.3467 4.33969 17.21 4.37869 17.091 4.45239L17.0614 4.45539Z" fill="#263238"/>
<path d="M19.6366 13.5125C19.6366 13.5125 20.4003 14.5955 20.5483 15.3785C21.46 14.9945 23.1856 14.0345 23.4165 12.6785C23.0834 12.5717 22.7659 12.4204 22.4723 12.2285C22.4723 12.2285 21.5517 13.0205 19.6366 13.5125Z" fill="#F0F0F0"/>
<path d="M19.0209 13.4613C18.5451 13.9224 18.233 14.5299 18.1329 15.1893C17.2213 14.8053 16.8631 13.5513 17.1029 12.7204C17.4489 12.5606 17.8112 12.4399 18.1833 12.3604C18.1696 12.6151 18.2466 12.8664 18.4004 13.0685C18.5541 13.2706 18.7743 13.41 19.0209 13.4613Z" fill="#F0F0F0"/>
<path d="M24.7752 12.8284L24.2128 12.7774C24.186 12.7754 24.1595 12.7835 24.1382 12.8001C24.1169 12.8167 24.1024 12.8407 24.0974 12.8674C22.5315 21.3784 23.4106 30.4144 23.4106 30.4144H24.0352C23.6945 24.5805 23.9783 18.7263 24.8818 12.9544C24.8838 12.9388 24.8827 12.923 24.8783 12.908C24.8739 12.893 24.8665 12.879 24.8564 12.8671C24.8463 12.8552 24.8339 12.8456 24.8199 12.8389C24.8059 12.8323 24.7907 12.8287 24.7752 12.8284V12.8284Z" fill="#2354D7"/>
<path opacity="0.7" d="M24.7752 12.8284L24.2128 12.7774C24.186 12.7754 24.1595 12.7835 24.1382 12.8001C24.1169 12.8167 24.1024 12.8407 24.0974 12.8674C22.5315 21.3784 23.4106 30.4144 23.4106 30.4144H24.0352C23.6945 24.5805 23.9783 18.7263 24.8818 12.9544C24.8838 12.9388 24.8827 12.923 24.8783 12.908C24.8739 12.893 24.8665 12.879 24.8564 12.8671C24.8463 12.8552 24.8339 12.8456 24.8199 12.8389C24.8059 12.8323 24.7907 12.8287 24.7752 12.8284V12.8284Z" fill="black"/>
<path d="M23.9198 30.6152H23.4906C23.438 30.6152 23.3875 30.594 23.3503 30.5563C23.3131 30.5186 23.2922 30.4675 23.2922 30.4142V30.4142C23.2922 30.3606 23.313 30.3092 23.3501 30.271C23.3872 30.2328 23.4377 30.211 23.4906 30.2102H23.9198C23.9729 30.211 24.0237 30.2327 24.0612 30.2708C24.0988 30.3089 24.1203 30.3603 24.121 30.4142V30.4142C24.1203 30.4678 24.0987 30.5189 24.061 30.5565C24.0234 30.5941 23.9726 30.6152 23.9198 30.6152V30.6152Z" fill="#E0E0E0"/>
<path d="M23.4432 31.1464V30.5764C23.4432 30.5415 23.45 30.5069 23.4633 30.4747C23.4766 30.4424 23.496 30.4132 23.5205 30.3886C23.545 30.3641 23.5741 30.3447 23.606 30.3316C23.638 30.3185 23.6722 30.312 23.7066 30.3124C23.7757 30.3124 23.842 30.3402 23.8908 30.3897C23.9397 30.4392 23.9671 30.5064 23.9671 30.5764V31.1464C23.9663 31.2162 23.9386 31.2829 23.89 31.3322C23.8413 31.3815 23.7755 31.4096 23.7066 31.4104V31.4104C23.6373 31.4104 23.5707 31.3827 23.5214 31.3333C23.4721 31.2838 23.444 31.2167 23.4432 31.1464Z" fill="#E0E0E0"/>
<path d="M15.3535 12.9424L14.797 13.0474C14.774 13.0517 14.753 13.0634 14.737 13.0806C14.7211 13.0979 14.711 13.1199 14.7082 13.1434C13.5242 21.6574 14.8236 30.4144 14.8236 30.4144H15.4512C14.5247 21.1474 15.3476 14.1634 15.4896 13.0654C15.493 13.0471 15.4916 13.0283 15.4857 13.0107C15.4798 12.9931 15.4695 12.9774 15.4558 12.965C15.4421 12.9526 15.4255 12.9441 15.4076 12.9401C15.3896 12.9361 15.371 12.9369 15.3535 12.9424V12.9424Z" fill="#2354D7"/>
<path opacity="0.7" d="M15.3535 12.9424L14.797 13.0474C14.774 13.0517 14.753 13.0634 14.737 13.0806C14.7211 13.0979 14.711 13.1199 14.7082 13.1434C13.5242 21.6574 14.8236 30.4144 14.8236 30.4144H15.4512C14.5247 21.1474 15.3476 14.1634 15.4896 13.0654C15.493 13.0471 15.4916 13.0283 15.4857 13.0107C15.4798 12.9931 15.4695 12.9774 15.4558 12.965C15.4421 12.9526 15.4255 12.9441 15.4076 12.9401C15.3896 12.9361 15.371 12.9369 15.3535 12.9424V12.9424Z" fill="black"/>
<path d="M15.3417 30.6152H14.9125C14.859 30.6146 14.8076 30.5936 14.7687 30.5563C14.7298 30.5191 14.7061 30.4683 14.7024 30.4142V30.4142C14.7016 30.388 14.7059 30.3618 14.7152 30.3373C14.7245 30.3128 14.7385 30.2904 14.7564 30.2714C14.7743 30.2524 14.7958 30.2372 14.8195 30.2267C14.8433 30.2162 14.8688 30.2106 14.8948 30.2102H15.324C15.3777 30.2109 15.4291 30.2325 15.4676 30.2704C15.5062 30.3083 15.5289 30.3598 15.5312 30.4142V30.4142C15.5328 30.4403 15.5291 30.4664 15.5203 30.4909C15.5115 30.5155 15.4977 30.5379 15.4799 30.5568C15.4621 30.5757 15.4406 30.5906 15.4169 30.6007C15.3931 30.6107 15.3675 30.6157 15.3417 30.6152Z" fill="#E0E0E0"/>
<path d="M14.8889 31.1464L14.8622 30.5764C14.8606 30.5421 14.8659 30.5077 14.8779 30.4756C14.8899 30.4434 14.9082 30.414 14.9317 30.3893C14.9553 30.3646 14.9836 30.345 15.0149 30.3318C15.0463 30.3185 15.0799 30.312 15.1138 30.3124C15.1838 30.3131 15.251 30.3407 15.3015 30.3898C15.3521 30.4388 15.3824 30.5055 15.3861 30.5764L15.4128 31.1464C15.4144 31.1805 15.4091 31.2145 15.3974 31.2465C15.3856 31.2785 15.3675 31.3077 15.3443 31.3324C15.321 31.3571 15.2931 31.3767 15.2621 31.3901C15.2311 31.4035 15.1978 31.4104 15.1641 31.4104V31.4104C15.0938 31.4098 15.0264 31.3822 14.9753 31.3332C14.9242 31.2843 14.8934 31.2175 14.8889 31.1464V31.1464Z" fill="#E0E0E0"/>
<path d="M21.1788 19.8694C21.1359 19.8663 21.0958 19.8464 21.0671 19.814C21.0384 19.7815 21.0233 19.739 21.0249 19.6954L21.1078 18.1954C21.1085 18.1736 21.1136 18.1521 21.1227 18.1324C21.1318 18.1126 21.1448 18.0949 21.1608 18.0803C21.1769 18.0658 21.1956 18.0546 21.216 18.0476C21.2364 18.0405 21.258 18.0378 21.2795 18.0394C21.3009 18.0405 21.3218 18.046 21.3411 18.0553C21.3605 18.0647 21.3778 18.0779 21.3921 18.094C21.4064 18.1102 21.4174 18.129 21.4245 18.1495C21.4316 18.17 21.4346 18.1917 21.4334 18.2134L21.3505 19.7134C21.3498 19.7352 21.3447 19.7567 21.3356 19.7764C21.3265 19.7962 21.3135 19.8139 21.2975 19.8285C21.2814 19.843 21.2626 19.8542 21.2423 19.8612C21.2219 19.8682 21.2003 19.871 21.1788 19.8694V19.8694Z" fill="#2354D7"/>
<path d="M21.685 20.4094C21.6718 20.4094 21.6587 20.4067 21.6466 20.4013C21.6344 20.3959 21.6236 20.388 21.6147 20.3782C21.6057 20.3683 21.599 20.3566 21.5948 20.3439C21.5905 20.3312 21.589 20.3177 21.5903 20.3044L21.6909 18.1684C21.6924 18.1411 21.7044 18.1154 21.7243 18.0969C21.7442 18.0784 21.7705 18.0686 21.7975 18.0694C21.8107 18.0701 21.8236 18.0736 21.8356 18.0794C21.8475 18.0852 21.8582 18.0934 21.867 18.1035C21.8758 18.1135 21.8825 18.1252 21.8868 18.1379C21.8912 18.1506 21.893 18.164 21.8922 18.1774L21.7915 20.3134C21.7908 20.3268 21.7874 20.3399 21.7817 20.352C21.7759 20.3641 21.7678 20.3749 21.7579 20.3838C21.748 20.3927 21.7365 20.3996 21.724 20.404C21.7115 20.4083 21.6982 20.4102 21.685 20.4094V20.4094Z" fill="#2354D7"/>
<path opacity="0.7" d="M21.1788 19.8694C21.1359 19.8663 21.0958 19.8464 21.0671 19.814C21.0384 19.7815 21.0233 19.739 21.0249 19.6954L21.1078 18.1954C21.1085 18.1736 21.1136 18.1521 21.1227 18.1324C21.1318 18.1126 21.1448 18.0949 21.1608 18.0803C21.1769 18.0658 21.1956 18.0546 21.216 18.0476C21.2364 18.0405 21.258 18.0378 21.2795 18.0394C21.3009 18.0405 21.3218 18.046 21.3411 18.0553C21.3605 18.0647 21.3778 18.0779 21.3921 18.094C21.4064 18.1102 21.4174 18.129 21.4245 18.1495C21.4316 18.17 21.4346 18.1917 21.4334 18.2134L21.3505 19.7134C21.3498 19.7352 21.3447 19.7567 21.3356 19.7764C21.3265 19.7962 21.3135 19.8139 21.2975 19.8285C21.2814 19.843 21.2626 19.8542 21.2423 19.8612C21.2219 19.8682 21.2003 19.871 21.1788 19.8694V19.8694Z" fill="black"/>
<path opacity="0.7" d="M21.685 20.4094C21.6718 20.4094 21.6587 20.4067 21.6466 20.4013C21.6344 20.3959 21.6236 20.388 21.6147 20.3782C21.6057 20.3683 21.599 20.3566 21.5948 20.3439C21.5905 20.3312 21.589 20.3177 21.5903 20.3044L21.6909 18.1684C21.6924 18.1411 21.7044 18.1154 21.7243 18.0969C21.7442 18.0784 21.7705 18.0686 21.7975 18.0694C21.8107 18.0701 21.8236 18.0736 21.8356 18.0794C21.8475 18.0852 21.8582 18.0934 21.867 18.1035C21.8758 18.1135 21.8825 18.1252 21.8868 18.1379C21.8912 18.1506 21.893 18.164 21.8922 18.1774L21.7915 20.3134C21.7908 20.3268 21.7874 20.3399 21.7817 20.352C21.7759 20.3641 21.7678 20.3749 21.7579 20.3838C21.748 20.3927 21.7365 20.3996 21.724 20.404C21.7115 20.4083 21.6982 20.4102 21.685 20.4094V20.4094Z" fill="black"/>
<path d="M19.2015 13.8303L19.6367 13.5123L20.5602 14.4123L19.2015 13.8303Z" fill="#2354D7"/>
<path opacity="0.5" d="M19.2015 13.8303L19.6367 13.5123L20.5602 14.4123L19.2015 13.8303Z" fill="black"/>
<path d="M19.2016 13.8304L19.021 13.4614L17.8281 14.4124L19.2016 13.8304Z" fill="#2354D7"/>
<path opacity="0.5" d="M19.2016 13.8304L19.021 13.4614L17.8281 14.4124L19.2016 13.8304Z" fill="black"/>
<path d="M19.616 14.2924C20.131 14.0974 22.1912 12.4114 22.7772 13.2874C23.3633 14.1634 22.573 14.4874 22.8305 15.0874C23.088 15.6874 23.4758 16.7014 22.1823 16.4374C20.7378 16.1374 20.0866 15.1144 19.6692 15.0904C19.6456 14.7364 19.616 14.2924 19.616 14.2924Z" fill="#2354D7"/>
<path opacity="0.7" d="M19.616 14.2924C20.131 14.0974 22.1912 12.4114 22.7772 13.2874C23.3633 14.1634 22.573 14.4874 22.8305 15.0874C23.088 15.6874 23.4758 16.7014 22.1823 16.4374C20.7378 16.1374 20.0866 15.1144 19.6692 15.0904C19.6456 14.7364 19.616 14.2924 19.616 14.2924Z" fill="black"/>
<path d="M18.796 14.1694C18.3638 13.9834 16.5819 12.4054 16.1497 13.2154C15.7176 14.0254 16.3836 14.3224 16.203 14.8744C16.0224 15.4264 15.762 16.3744 16.8098 16.1344C17.976 15.8704 18.4556 14.9194 18.796 14.8984V14.1694Z" fill="#2354D7"/>
<path opacity="0.7" d="M18.796 14.1694C18.3638 13.9834 16.5819 12.4054 16.1497 13.2154C15.7176 14.0254 16.3836 14.3224 16.203 14.8744C16.0224 15.4264 15.762 16.3744 16.8098 16.1344C17.976 15.8704 18.4556 14.9194 18.796 14.8984V14.1694Z" fill="black"/>
<path d="M19.7077 15.1354C19.9208 14.7724 20.0629 13.7734 19.607 13.9504C19.1512 14.1274 19.1009 14.1514 18.9706 14.0644C18.8404 13.9774 18.5 13.8184 18.4408 14.1844C18.3816 14.5504 18.4704 15.2794 18.8078 15.2644C19.1453 15.2494 19.4916 15.5074 19.7077 15.1354Z" fill="#2354D7"/>
<path opacity="0.7" d="M19.7077 15.1354C19.9208 14.7724 20.0629 13.7734 19.607 13.9504C19.1512 14.1274 19.1009 14.1514 18.9706 14.0644C18.8404 13.9774 18.5 13.8184 18.4408 14.1844C18.3816 14.5504 18.4704 15.2794 18.8078 15.2644C19.1453 15.2494 19.4916 15.5074 19.7077 15.1354Z" fill="black"/>
<path d="M3.77694 21.5854L3.12574 26.4694C3.11993 26.5076 3.10037 26.5422 3.07085 26.5665C3.04133 26.5909 3.00394 26.6033 2.9659 26.6014L0.893906 26.4754C0.855916 26.4718 0.820531 26.4542 0.794379 26.4261C0.768226 26.3979 0.753095 26.3611 0.751823 26.3224L0.737022 25.2214L0.698545 22.6534L0.680786 21.4054L3.77694 21.5854Z" fill="#2354D7"/>
<path opacity="0.3" d="M3.77694 21.5854L3.12574 26.4694C3.11993 26.5076 3.10037 26.5422 3.07085 26.5665C3.04133 26.5909 3.00394 26.6033 2.9659 26.6014L0.893906 26.4754C0.855916 26.4718 0.820531 26.4542 0.794379 26.4261C0.768226 26.3979 0.753095 26.3611 0.751823 26.3224L0.737022 25.2214L0.698545 22.6534L0.680786 21.4054L3.77694 21.5854Z" fill="black"/>
<path d="M4.1288 21.3634L0.349792 21.1332L0.320487 21.6273L4.0995 21.8575L4.1288 21.3634Z" fill="#2354D7"/>
<path d="M3.88941 21.1004L0.618591 20.9011L0.589286 21.3952L3.86011 21.5945L3.88941 21.1004Z" fill="#2354D7"/>
<path d="M3.88941 21.1004L0.618591 20.9011L0.589286 21.3952L3.86011 21.5945L3.88941 21.1004Z" fill="#F5F5F5"/>
<path d="M4.1288 21.3634L0.349792 21.1332L0.320487 21.6273L4.0995 21.8575L4.1288 21.3634Z" fill="#EBEBEB"/>
<path opacity="0.43" d="M1.91809 22.7194L1.76714 25.2754L0.716338 25.2124L0.677856 22.6444L1.91809 22.7194Z" fill="#EBEBEB"/>
<path d="M30.636 37.8694L19.4502 37.6144C19.305 37.606 19.1631 37.567 19.0335 37.5C18.904 37.4329 18.7896 37.3393 18.6977 37.225C18.6059 37.1107 18.5385 36.9783 18.4998 36.8361C18.4612 36.694 18.4522 36.5453 18.4734 36.3994L19.3999 26.4604C19.404 26.315 19.4397 26.1723 19.5044 26.0424C19.5691 25.9126 19.6613 25.7988 19.7743 25.7091C19.8874 25.6195 20.0185 25.5562 20.1584 25.5237C20.2984 25.4913 20.4436 25.4905 20.5839 25.5214L31.5359 28.0654C31.9088 28.1524 32.1752 28.6414 32.1279 29.1514L31.4175 36.9514C31.3642 37.4554 31.0179 37.8694 30.636 37.8694Z" fill="#2354D7"/>
<path opacity="0.3" d="M30.636 37.8694L19.4502 37.6144C19.305 37.606 19.1631 37.567 19.0335 37.5C18.904 37.4329 18.7896 37.3393 18.6977 37.225C18.6059 37.1107 18.5385 36.9783 18.4998 36.8361C18.4612 36.694 18.4522 36.5453 18.4734 36.3994L19.3999 26.4604C19.404 26.315 19.4397 26.1723 19.5044 26.0424C19.5691 25.9126 19.6613 25.7988 19.7743 25.7091C19.8874 25.6195 20.0185 25.5562 20.1584 25.5237C20.2984 25.4913 20.4436 25.4905 20.5839 25.5214L31.5359 28.0654C31.9088 28.1524 32.1752 28.6414 32.1279 29.1514L31.4175 36.9514C31.3642 37.4554 31.0179 37.8694 30.636 37.8694Z" fill="white"/>
<path d="M30.8432 37.8693L19.758 37.6143C19.6148 37.6054 19.4749 37.5665 19.3472 37.5001C19.2196 37.4337 19.1068 37.3413 19.0162 37.2285C18.9255 37.1158 18.8589 36.9852 18.8205 36.8451C18.7821 36.705 18.7727 36.5583 18.793 36.4143L19.7136 26.5143C19.7161 26.371 19.7497 26.2299 19.8118 26.1011C19.8739 25.9723 19.9631 25.8588 20.0732 25.7687C20.1832 25.6787 20.3114 25.6141 20.4488 25.5797C20.5861 25.5452 20.7292 25.5417 20.868 25.5693L31.7194 28.0893C32.0923 28.1733 32.3558 28.6623 32.3114 29.1723L31.6039 36.9393C31.5566 37.4613 31.2102 37.8693 30.8432 37.8693Z" fill="#2354D7"/>
<path opacity="0.7" d="M30.8432 37.8693L19.758 37.6143C19.6148 37.6054 19.4749 37.5665 19.3472 37.5001C19.2196 37.4337 19.1068 37.3413 19.0162 37.2285C18.9255 37.1158 18.8589 36.9852 18.8205 36.8451C18.7821 36.705 18.7727 36.5583 18.793 36.4143L19.7136 26.5143C19.7161 26.371 19.7497 26.2299 19.8118 26.1011C19.8739 25.9723 19.9631 25.8588 20.0732 25.7687C20.1832 25.6787 20.3114 25.6141 20.4488 25.5797C20.5861 25.5452 20.7292 25.5417 20.868 25.5693L31.7194 28.0893C32.0923 28.1733 32.3558 28.6623 32.3114 29.1723L31.6039 36.9393C31.5566 37.4613 31.2102 37.8693 30.8432 37.8693Z" fill="white"/>
<path d="M30.8846 37.4073L19.8113 37.0413C19.7436 37.0395 19.677 37.0234 19.6158 36.9939C19.5546 36.9645 19.5002 36.9224 19.4561 36.8703C19.405 36.8089 19.3666 36.7376 19.3432 36.6608C19.3198 36.5841 19.3119 36.5033 19.3199 36.4233L20.2316 26.6283C20.2383 26.5506 20.2606 26.4751 20.2973 26.4064C20.334 26.3378 20.3841 26.2775 20.4447 26.2293C20.4994 26.1898 20.5615 26.1622 20.6272 26.1483C20.693 26.1343 20.7608 26.1343 20.8266 26.1483L31.6927 28.5483C31.797 28.5929 31.8832 28.6722 31.937 28.7731C31.9908 28.874 32.009 28.9905 31.9887 29.1033L31.2783 36.9303C31.2804 37.0446 31.2418 37.1558 31.1694 37.2434C31.0971 37.3311 30.996 37.3893 30.8846 37.4073ZM20.7111 26.1963C20.6246 26.1961 20.5404 26.2246 20.4714 26.2773C20.4168 26.3201 20.3718 26.3739 20.3392 26.4354C20.3065 26.4969 20.287 26.5647 20.2819 26.6343L19.3673 36.4293C19.3538 36.5743 19.3974 36.7188 19.4886 36.8313C19.5279 36.877 19.576 36.9138 19.63 36.9396C19.684 36.9655 19.7427 36.9797 19.8024 36.9813V36.9813L30.8757 37.3503C31.0415 37.3503 31.1925 37.1643 31.2132 36.9333L31.9236 29.1063C31.9432 29.0061 31.9277 28.902 31.8795 28.8121C31.8314 28.7223 31.7538 28.6523 31.6601 28.6143L20.797 26.2143C20.7692 26.2047 20.7404 26.1986 20.7111 26.1963V26.1963Z" fill="white"/>
<path d="M26.3115 34.1374H26.199C26.0255 34.1169 25.8577 34.0619 25.7053 33.9753C25.5528 33.8888 25.4188 33.7726 25.311 33.6334C24.9909 33.2218 24.8431 32.6993 24.8995 32.1784C24.9164 31.924 24.9841 31.6759 25.0986 31.4489C25.2131 31.222 25.372 31.0211 25.5655 30.8584C25.701 30.7483 25.8574 30.6678 26.025 30.6219C26.1925 30.5759 26.3677 30.5655 26.5394 30.5914C26.7275 30.6249 26.9066 30.698 27.0652 30.806C27.2238 30.914 27.3582 31.0545 27.46 31.2184C27.4625 31.2209 27.4646 31.2239 27.466 31.2273C27.4674 31.2306 27.4682 31.2342 27.4682 31.2379C27.4682 31.2415 27.4674 31.2451 27.466 31.2485C27.4646 31.2518 27.4625 31.2548 27.46 31.2574C27.4575 31.26 27.4545 31.2621 27.4512 31.2635C27.4479 31.265 27.4443 31.2657 27.4407 31.2657C27.4371 31.2657 27.4336 31.265 27.4302 31.2635C27.4269 31.2621 27.424 31.26 27.4215 31.2574C27.3223 31.1007 27.1922 30.9665 27.0394 30.8633C26.8865 30.76 26.7143 30.6899 26.5335 30.6574C26.3694 30.633 26.2021 30.6434 26.0421 30.6878C25.8822 30.7322 25.733 30.8097 25.604 30.9154C25.417 31.0726 25.2634 31.2667 25.1524 31.4858C25.0415 31.705 24.9756 31.9447 24.9587 32.1904C24.9042 32.6972 25.0476 33.2054 25.3583 33.6064C25.5719 33.8756 25.8812 34.0491 26.2197 34.0894C26.3982 34.1027 26.5775 34.0766 26.7451 34.0129C26.9127 33.9492 27.0647 33.8494 27.1906 33.7204C27.1961 33.7149 27.2036 33.7118 27.2113 33.7118C27.2191 33.7118 27.2265 33.7149 27.232 33.7204C27.2368 33.7263 27.2395 33.7337 27.2395 33.7414C27.2395 33.749 27.2368 33.7564 27.232 33.7624C27.1106 33.8833 26.9667 33.9787 26.8087 34.0431C26.6507 34.1074 26.4817 34.1395 26.3115 34.1374V34.1374Z" fill="white"/>
<path d="M27.1935 33.7563C27.1858 33.7591 27.1775 33.7591 27.1698 33.7563C26.9126 33.3661 26.7985 32.897 26.8472 32.4303C26.8833 31.9753 27.081 31.5489 27.4037 31.2303C27.4096 31.2248 27.4174 31.2218 27.4254 31.2221C27.4335 31.2223 27.4411 31.2259 27.4466 31.2318C27.4521 31.2378 27.455 31.2457 27.4547 31.2539C27.4545 31.262 27.451 31.2698 27.4451 31.2753C27.1272 31.5847 26.9341 32.0027 26.9034 32.4483C26.8577 32.9003 26.9686 33.3542 27.2172 33.7323C27.2203 33.7349 27.2228 33.7381 27.2245 33.7417C27.2262 33.7453 27.2271 33.7493 27.2271 33.7533C27.2271 33.7574 27.2262 33.7613 27.2245 33.765C27.2228 33.7686 27.2203 33.7718 27.2172 33.7743L27.1935 33.7563Z" fill="white"/>
<path d="M28.7179 15.9093C29.1234 17.4903 29.4757 19.0683 29.7894 20.6703C29.9463 21.4713 30.0854 22.2723 30.2246 23.0853C30.2926 23.4903 30.3607 23.8983 30.417 24.3123L30.4998 24.9363L30.5472 25.2693L30.5679 25.4283L30.5857 25.6203C30.6492 26.5445 30.6035 27.4731 30.4495 28.3863C30.3168 29.2295 30.139 30.0647 29.9167 30.8883C29.4869 32.4966 28.9336 34.0684 28.2621 35.5893L26.6045 35.0463C26.9005 33.4983 27.1402 31.9113 27.3326 30.3693C27.4273 29.5983 27.4954 28.8303 27.5309 28.0833C27.5736 27.3932 27.5449 26.7004 27.4451 26.0163L27.4273 25.9083L27.3977 25.7703L27.3415 25.4883L27.2172 24.9213L26.9537 23.7693L26.4032 21.4293C26.0302 19.8783 25.6602 18.3093 25.3139 16.7523L28.7179 15.9093Z" fill="#E4897B"/>
<path d="M28.3331 34.3024L26.9124 34.5034L25.7698 36.4024L25.2666 37.8514L27.5369 37.7374L28.0815 36.8584C28.0815 36.8584 29.0909 35.5564 28.3331 34.3024Z" fill="#E4897B"/>
<path d="M26.5394 13.2364C28.9074 13.6624 31.4974 22.6114 31.4974 22.6114L26.0303 24.5044C26.0303 24.5044 24.2069 20.0614 24.5503 17.3044C24.8759 14.5804 24.2927 12.8314 26.5394 13.2364Z" fill="#2354D7"/>
<path opacity="0.3" d="M26.5394 13.2364C28.9074 13.6624 31.4974 22.6114 31.4974 22.6114L26.0303 24.5044C26.0303 24.5044 24.2069 20.0614 24.5503 17.3044C24.8759 14.5804 24.2927 12.8314 26.5394 13.2364Z" fill="black"/>
<path d="M52.7435 9.87336C51.7282 9.47736 49.082 8.52036 50.707 5.28936C52.3321 2.05836 56.2926 6.46836 57.6394 4.98936C57.4618 6.86436 55.8782 11.0944 52.7435 9.87336Z" fill="#263238"/>
<path d="M50.9261 9.98736C49.7243 9.37236 49.446 8.78736 49.3661 8.52336C49.3562 8.48643 49.3556 8.44756 49.3644 8.41034C49.3732 8.37311 49.3911 8.33873 49.4164 8.31036C49.6414 8.05236 50.3488 7.34736 50.9557 7.95336C51.5625 8.55936 52.1397 8.62236 51.2161 9.91236C51.1845 9.95775 51.1379 9.99022 51.0847 10.004C51.0316 10.0177 50.9753 10.0118 50.9261 9.98736V9.98736Z" fill="#2354D7"/>
<path opacity="0.3" d="M50.9261 9.98736C49.7243 9.37236 49.446 8.78736 49.3661 8.52336C49.3562 8.48643 49.3556 8.44756 49.3644 8.41034C49.3732 8.37311 49.3911 8.33873 49.4164 8.31036C49.6414 8.05236 50.3488 7.34736 50.9557 7.95336C51.5625 8.55936 52.1397 8.62236 51.2161 9.91236C51.1845 9.95775 51.1379 9.99022 51.0847 10.004C51.0316 10.0177 50.9753 10.0118 50.9261 9.98736V9.98736Z" fill="black"/>
<path d="M49.0524 20.5864C47.5891 20.4797 46.1201 20.4797 44.6568 20.5864C45.6484 19.6294 45.3702 16.8724 45.0919 15.4384L46.9597 17.0554L47.7914 17.7754C47.7241 18.0299 47.6785 18.2899 47.6553 18.5524C47.5813 19.4374 47.8358 20.2894 49.0524 20.5864Z" fill="#E4897B"/>
<path d="M53.8565 23.8654C53.9068 24.4114 53.969 25.0114 54.043 25.5844C54.117 26.1574 54.2058 26.7454 54.3005 27.3214C54.4876 28.4678 54.7346 29.6034 55.0405 30.7233C55.1974 31.2753 55.3661 31.8214 55.5615 32.3524L55.819 33.0303C55.8602 33.1363 55.9227 33.2323 56.0025 33.3124C56.1127 33.3968 56.2438 33.4487 56.3814 33.4624C56.5973 33.4857 56.8153 33.4796 57.0296 33.4444C57.5474 33.3528 58.053 33.2008 58.5363 32.9914L59.2259 33.9963C58.9774 34.226 58.7101 34.4337 58.4267 34.6174C58.1398 34.81 57.8343 34.9729 57.5151 35.1033C57.1597 35.2511 56.7846 35.3442 56.4021 35.3793C55.9267 35.4268 55.4477 35.3398 55.0182 35.1279C54.5887 34.9161 54.2255 34.5877 53.969 34.1793C53.8547 34.0128 53.7556 33.8361 53.673 33.6514L53.4776 33.2104C53.2201 32.6104 53.0011 32.0104 52.8057 31.4104C52.4201 30.2136 52.1145 28.9918 51.8911 27.7534C51.7697 27.1534 51.675 26.5234 51.5951 25.9054C51.5151 25.2874 51.447 24.6784 51.4086 24.0154L53.8565 23.8654Z" fill="#E4897B"/>
<path d="M53.0839 21.0693C54.0666 21.3213 54.7534 25.4193 54.7534 25.4193L52.045 27.2853C52.045 27.2853 49.4491 23.1513 50.2039 22.0593C50.9912 20.9223 51.6483 20.7063 53.0839 21.0693Z" fill="#2354D7"/>
<path opacity="0.7" d="M53.0839 21.0693C54.0666 21.3213 54.7534 25.4193 54.7534 25.4193L52.045 27.2853C52.045 27.2853 49.4491 23.1513 50.2039 22.0593C50.9912 20.9223 51.6483 20.7063 53.0839 21.0693Z" fill="black"/>
<path d="M63.0739 28.2903L59.0572 27.6393L58.853 28.4793L56.852 32.8743L60.8687 33.5253L62.8697 29.1303L63.0739 28.2903Z" fill="#263238"/>
<path d="M63.3019 28.3292L59.2852 27.6782L59.0809 28.5152L57.08 32.9132L61.0967 33.5642L63.0976 29.1662L63.3019 28.3292Z" fill="#2354D7"/>
<path d="M59.1253 34.0562L61.0226 32.5562L58.6546 32.0522C58.6546 32.0522 57.6571 33.2282 58.0152 34.1523L59.1253 34.0562Z" fill="#E4897B"/>
<path d="M61.5051 30.5823L59.4952 30.2673L58.6487 32.0493L61.0226 32.5533L61.5051 30.5823Z" fill="#E4897B"/>
<path d="M53.0839 21.0694C53.0839 21.0694 54.2176 21.4744 51.9443 35.6524H42.2621C42.4249 31.6564 42.4279 29.1964 40.5453 21.0004C41.9014 20.7228 43.2754 20.5453 44.6568 20.4694C46.1201 20.3627 47.5891 20.3627 49.0524 20.4694C50.9498 20.6314 53.0839 21.0694 53.0839 21.0694Z" fill="#2354D7"/>
<path opacity="0.7" d="M53.0839 21.0694C53.0839 21.0694 54.2176 21.4744 51.9443 35.6524H42.2621C42.4249 31.6564 42.4279 29.1964 40.5453 21.0004C41.9014 20.7228 43.2754 20.5453 44.6568 20.4694C46.1201 20.3627 47.5891 20.3627 49.0524 20.4694C50.9498 20.6314 53.0839 21.0694 53.0839 21.0694Z" fill="black"/>
<path d="M47.6879 90.0455H50.0707L50.3903 84.4504H48.0075L47.6879 90.0455Z" fill="#E4897B"/>
<path d="M36.8424 90.0455H39.2252L40.2494 84.4504H37.8666L36.8424 90.0455Z" fill="#E4897B"/>
<path d="M39.4679 89.7694H36.8039C36.758 89.769 36.7134 89.7854 36.6786 89.8158C36.6437 89.8461 36.6209 89.8883 36.6145 89.9344L36.3185 92.0824C36.3126 92.1367 36.3182 92.1915 36.3347 92.2434C36.3513 92.2954 36.3785 92.3431 36.4145 92.3837C36.4506 92.4242 36.4947 92.4565 36.5439 92.4785C36.5932 92.5005 36.6465 92.5118 36.7003 92.5114C37.6327 92.4964 38.0826 92.4394 39.2607 92.4394C39.9859 92.4394 41.0367 92.5174 42.0461 92.5174C43.0555 92.5174 43.0999 91.5124 42.6825 91.4224C40.8147 91.0144 40.5187 90.4534 39.8912 89.9224C39.7733 89.8207 39.6227 89.7663 39.4679 89.7694V89.7694Z" fill="#263238"/>
<path d="M50.2334 89.7693H47.5546C47.5085 89.7682 47.4636 89.7845 47.4286 89.8149C47.3937 89.8454 47.3711 89.888 47.3652 89.9343L47.0692 92.0823C47.0634 92.1366 47.0689 92.1915 47.0855 92.2434C47.102 92.2953 47.1292 92.3431 47.1653 92.3836C47.2013 92.4241 47.2454 92.4564 47.2947 92.4784C47.3439 92.5005 47.3972 92.5117 47.451 92.5114C48.3834 92.4964 48.8334 92.4393 50.0114 92.4393C50.7366 92.4393 52.2344 92.5173 53.2349 92.5173C54.2354 92.5173 54.2887 91.5123 53.8743 91.4223C52.0035 91.0143 51.2695 90.4533 50.639 89.9223C50.5264 89.8235 50.3824 89.7692 50.2334 89.7693V89.7693Z" fill="#263238"/>
<path d="M50.3903 84.4534L50.2245 87.3364H47.8417L48.0075 84.4534H50.3903Z" fill="#CE6F64"/>
<path d="M37.8666 84.4534H40.2494L39.7225 87.3364H37.3367L37.8666 84.4534Z" fill="#CE6F64"/>
<path d="M45.0741 19.7313C44.7527 19.8808 44.476 20.1136 44.272 20.4063C44.5058 20.7933 46.3085 21.5163 46.7969 21.4713C46.7792 21.078 46.8975 20.6908 47.1313 20.3763C47.1313 20.3763 45.8763 20.3343 45.0741 19.7313Z" fill="#2354D7"/>
<path d="M47.9898 19.7943C48.3155 19.9371 48.6156 20.1338 48.8778 20.3763C48.7771 20.7063 47.9898 21.3063 47.6464 21.4383C47.5773 21.0402 47.3953 20.6712 47.1225 20.3763C47.4516 20.2518 47.7482 20.0527 47.9898 19.7943V19.7943Z" fill="#2354D7"/>
<path d="M51.9443 35.6583C51.9443 35.6583 53.8239 54.2583 53.667 61.6353C53.5042 69.3003 50.7337 86.7783 50.7337 86.7783H47.5102C47.5102 86.7783 48.0223 69.7473 47.7352 62.2203C47.4244 54.0153 44.8551 35.6583 44.8551 35.6583H51.9443Z" fill="#2354D7"/>
<path d="M49.3869 35.6583C49.3869 35.6583 48.0046 52.2393 46.569 61.5843C45.4086 69.1323 40.2671 86.7843 40.2671 86.7843H37.0111C37.0111 86.7843 39.6929 69.7443 40.2671 62.2773C41.7471 43.3773 39.1453 40.0413 42.2474 35.6643L49.3869 35.6583Z" fill="#2354D7"/>
<path opacity="0.57" d="M47.1708 27.9679L48.4635 28.0141C49.0664 28.0356 49.5724 27.5578 49.5936 26.9468L49.6373 25.6906C49.6586 25.0796 49.1871 24.5668 48.5843 24.5452L47.2915 24.499C46.6887 24.4775 46.1827 24.9553 46.1615 25.5663L46.1178 26.8225C46.0965 27.4335 46.568 27.9463 47.1708 27.9679Z" fill="#2354D7"/>
<path d="M47.7914 17.7694C47.724 18.0239 47.6785 18.2839 47.6552 18.5464C47.007 18.4324 46.1575 17.7814 46.0923 17.1604C46.0531 16.9025 46.0651 16.6394 46.1279 16.3864L46.9596 17.0494L47.7914 17.7694Z" fill="#CE6F64"/>
<path d="M44.3253 12.1775C44.4704 14.5775 44.4822 15.5855 45.6751 16.8155C47.4689 18.6635 50.3371 17.9585 50.8995 15.5705C51.4086 13.4195 51.086 9.8705 48.7742 8.9135C48.2654 8.70059 47.7113 8.62316 47.1647 8.68857C46.618 8.75398 46.097 8.96005 45.6511 9.28719C45.2052 9.61433 44.8493 10.0517 44.6172 10.5576C44.3852 11.0635 44.2847 11.6211 44.3253 12.1775V12.1775Z" fill="#E4897B"/>
<path d="M43.9552 13.2033C43.9446 13.2064 43.9333 13.2064 43.9227 13.2033C43.9137 13.1995 43.9056 13.1938 43.8989 13.1866C43.8922 13.1794 43.887 13.1709 43.8837 13.1617C43.8803 13.1524 43.8789 13.1425 43.8795 13.1326C43.8801 13.1228 43.8827 13.1131 43.8872 13.1043C44.1832 12.4863 46.5719 12.0633 46.8472 12.0153C47.6217 11.9036 48.4064 11.8835 49.1856 11.9553C49.2781 11.9108 49.3792 11.8877 49.4816 11.8877C49.584 11.8877 49.6851 11.9108 49.7776 11.9553C50.2832 11.8985 50.7934 11.8985 51.299 11.9553C51.3089 11.956 51.3186 11.9588 51.3274 11.9635C51.3361 11.9683 51.3438 11.9748 51.35 11.9827C51.3561 11.9906 51.3605 11.9997 51.363 12.0095C51.3654 12.0193 51.3658 12.0294 51.3641 12.0393C51.3612 12.0587 51.3509 12.0762 51.3354 12.088C51.3199 12.0998 51.3004 12.1049 51.2812 12.1023C50.7805 12.0466 50.2753 12.0466 49.7746 12.1023C49.7619 12.1053 49.7488 12.1053 49.7361 12.1023C49.6612 12.0627 49.5779 12.0419 49.4934 12.0419C49.4089 12.0419 49.3256 12.0627 49.2507 12.1023C49.2427 12.1057 49.2342 12.1075 49.2255 12.1075C49.2169 12.1075 49.2083 12.1057 49.2004 12.1023C48.4263 12.0272 47.6461 12.0473 46.8768 12.1623C46.1634 12.2853 44.2542 12.7023 44.0322 13.1673C44.0249 13.1809 44.0135 13.1918 43.9996 13.1982C43.9857 13.2047 43.9702 13.2065 43.9552 13.2033V13.2033Z" fill="#263238"/>
<path d="M48.0045 13.9743H47.9335C47.7827 13.9735 47.6339 13.9389 47.4978 13.873C47.3617 13.8072 47.2416 13.7116 47.1461 13.5933C46.7199 13.0443 46.8886 12.1173 46.8945 12.0933C46.8952 12.0882 46.8969 12.0834 46.8996 12.079C46.9023 12.0747 46.9058 12.071 46.91 12.0681C46.9142 12.0653 46.919 12.0634 46.924 12.0625C46.929 12.0617 46.9341 12.062 46.9389 12.0633C46.9436 12.064 46.9481 12.0657 46.9522 12.0682C46.9562 12.0707 46.9597 12.074 46.9625 12.078C46.9653 12.0819 46.9672 12.0863 46.9682 12.091C46.9693 12.0957 46.9694 12.1006 46.9685 12.1053C46.9685 12.1053 46.7998 13.0413 47.2053 13.5633C47.2943 13.6734 47.4063 13.7621 47.5333 13.8228C47.6603 13.8835 47.799 13.9148 47.9394 13.9143C48.0737 13.928 48.2093 13.9112 48.3363 13.865C48.4633 13.8188 48.5785 13.7444 48.6735 13.6473C49.1737 13.1343 49.1086 12.0543 49.1086 12.0423C49.1082 12.0376 49.1087 12.0328 49.1102 12.0283C49.1116 12.0238 49.1139 12.0196 49.1169 12.0159C49.1199 12.0123 49.1236 12.0093 49.1278 12.0072C49.132 12.005 49.1365 12.0037 49.1412 12.0033V12.0033C49.1509 12.0033 49.1603 12.007 49.1674 12.0136C49.1745 12.0203 49.1789 12.0295 49.1797 12.0393C49.1797 12.0843 49.2448 13.1643 48.7238 13.7013C48.6282 13.7934 48.5152 13.8651 48.3916 13.912C48.268 13.9589 48.1364 13.9801 48.0045 13.9743V13.9743Z" fill="#263238"/>
<path d="M50.6301 13.9203C50.5164 13.9247 50.403 13.9041 50.2978 13.8601C50.1926 13.8161 50.098 13.7497 50.0203 13.6654C49.5704 13.1644 49.7243 12.1204 49.7243 12.0754C49.7246 12.0704 49.7259 12.0656 49.7283 12.0612C49.7306 12.0569 49.7339 12.0531 49.7379 12.0502C49.7419 12.0474 49.7465 12.0454 49.7513 12.0446C49.7561 12.0437 49.7611 12.044 49.7658 12.0454C49.7705 12.0461 49.775 12.0478 49.779 12.0503C49.783 12.0528 49.7866 12.0561 49.7893 12.06C49.7921 12.0639 49.794 12.0684 49.7951 12.0731C49.7961 12.0778 49.7962 12.0826 49.7954 12.0874C49.7954 12.0874 49.6414 13.1403 50.0647 13.6143C50.1435 13.6991 50.2407 13.7641 50.3486 13.8042C50.4565 13.8443 50.5721 13.8584 50.6863 13.8453C50.7633 13.8426 50.8387 13.8223 50.9068 13.7859C50.975 13.7496 51.0342 13.6981 51.08 13.6353C51.4323 13.1614 51.1836 12.0424 51.1807 12.0304C51.1796 12.0205 51.1819 12.0106 51.1874 12.0024C51.1928 11.9942 51.2009 11.9881 51.2103 11.9854C51.2151 11.984 51.2202 11.9838 51.2252 11.9846C51.2302 11.9854 51.235 11.9873 51.2392 11.9902C51.2434 11.993 51.2469 11.9967 51.2496 12.0011C51.2523 12.0054 51.254 12.0103 51.2547 12.0154C51.2547 12.0634 51.5122 13.1793 51.1392 13.6803C51.0865 13.7517 51.0188 13.8103 50.941 13.8518C50.8631 13.8933 50.7772 13.9167 50.6893 13.9203H50.6301Z" fill="#263238"/>
<path d="M43.9553 13.4434C47.6049 12.6934 49.1471 9.31839 49.1471 9.31839C49.1471 9.31839 48.6824 7.81839 46.5512 8.01939C44.8551 8.18439 41.4304 11.1934 43.9553 13.4434Z" fill="#263238"/>
<path d="M42.5019 9.90937C43.6563 9.53437 46.6459 8.63737 44.6331 5.09436C42.6203 1.55136 38.2514 6.09037 36.6411 4.44036C36.9401 6.45637 38.9499 11.0644 42.5019 9.90937Z" fill="#263238"/>
<path d="M50.9231 11.9223C49.5496 9.01233 47.1935 8.79333 47.1935 8.79333C47.1935 8.79333 48.5166 7.62034 50.3311 8.76033C51.6305 9.57933 51.4293 10.9893 50.9231 11.9223Z" fill="#263238"/>
<path d="M43.754 13.5065C43.8031 13.968 44.0309 14.391 44.3875 14.6825C44.8611 15.0635 45.3317 14.6825 45.3969 14.1125C45.4561 13.5905 45.2785 12.7655 44.7072 12.6125C44.5821 12.5807 44.4512 12.581 44.3263 12.6134C44.2014 12.6458 44.0865 12.7093 43.9919 12.798C43.8972 12.8867 43.826 12.998 43.7844 13.1217C43.7429 13.2454 43.7325 13.3776 43.754 13.5065Z" fill="#E4897B"/>
<path d="M47.892 13.2003C48.0179 13.2003 48.12 13.0418 48.12 12.8463C48.12 12.6508 48.0179 12.4923 47.892 12.4923C47.7662 12.4923 47.6641 12.6508 47.6641 12.8463C47.6641 13.0418 47.7662 13.2003 47.892 13.2003Z" fill="#263238"/>
<path d="M50.1032 13.2003C50.2291 13.2003 50.3311 13.0418 50.3311 12.8463C50.3311 12.6508 50.2291 12.4923 50.1032 12.4923C49.9773 12.4923 49.8752 12.6508 49.8752 12.8463C49.8752 13.0418 49.9773 13.2003 50.1032 13.2003Z" fill="#263238"/>
<path d="M50.0618 12.5044L50.5235 12.3694C50.5235 12.3694 50.2719 12.7354 50.0618 12.5044Z" fill="#263238"/>
<path d="M49.5052 13.1793C49.6774 13.6239 49.9085 14.0428 50.192 14.4243C50.0937 14.4952 49.9813 14.5434 49.8627 14.5657C49.7441 14.588 49.6221 14.5838 49.5052 14.5533V13.1793Z" fill="#DE5753"/>
<path d="M48.8304 15.3213C48.5721 15.3287 48.3157 15.2731 48.0829 15.1594C47.8502 15.0456 47.6477 14.8768 47.4925 14.6673C47.4846 14.6541 47.482 14.6383 47.4854 14.6232C47.4887 14.6081 47.4976 14.5949 47.5103 14.5863C47.5229 14.5785 47.538 14.576 47.5524 14.5793C47.5668 14.5827 47.5793 14.5917 47.5872 14.6043C47.7341 14.7955 47.923 14.9493 48.1388 15.0534C48.3546 15.1576 48.5914 15.2093 48.8304 15.2043C48.8451 15.2051 48.859 15.2113 48.8694 15.2218C48.8798 15.2324 48.886 15.2465 48.8867 15.2613C48.8871 15.2691 48.8859 15.2768 48.8833 15.2841C48.8806 15.2913 48.8766 15.298 48.8713 15.3036C48.866 15.3092 48.8597 15.3137 48.8527 15.3167C48.8456 15.3198 48.8381 15.3213 48.8304 15.3213V15.3213Z" fill="#263238"/>
<path d="M47.3593 11.2204C47.3351 11.2201 47.3116 11.2119 47.2924 11.197C47.2732 11.1821 47.2592 11.1613 47.2526 11.1377C47.2459 11.1142 47.2469 11.089 47.2555 11.0661C47.2641 11.0432 47.2797 11.0236 47.3001 11.0104C47.4991 10.893 47.7215 10.8224 47.951 10.8037C48.1805 10.785 48.4112 10.8188 48.6261 10.9024C48.64 10.908 48.6527 10.9164 48.6633 10.927C48.674 10.9376 48.6825 10.9502 48.6883 10.9642C48.6941 10.9782 48.697 10.9932 48.697 11.0083C48.697 11.0235 48.6941 11.0385 48.6883 11.0524C48.676 11.0798 48.6537 11.1013 48.6262 11.1125C48.5986 11.1236 48.5678 11.1236 48.5403 11.1124C48.3579 11.0444 48.163 11.0175 47.9693 11.0335C47.7755 11.0496 47.5876 11.1083 47.4185 11.2054C47.4005 11.216 47.38 11.2212 47.3593 11.2204V11.2204Z" fill="#263238"/>
<path d="M50.562 11.1034C50.5401 11.1035 50.5185 11.0973 50.4999 11.0854C50.383 11.0043 50.2486 10.9527 50.1081 10.935C49.9675 10.9172 49.8247 10.9338 49.6918 10.9834C49.6782 10.9897 49.6635 10.9932 49.6485 10.9938C49.6336 10.9943 49.6187 10.9919 49.6047 10.9866C49.5906 10.9813 49.5778 10.9733 49.5668 10.9629C49.5559 10.9526 49.547 10.9402 49.5408 10.9264C49.5346 10.9126 49.5311 10.8977 49.5306 10.8826C49.5301 10.8674 49.5325 10.8523 49.5377 10.8381C49.5429 10.8239 49.5508 10.8109 49.561 10.7998C49.5712 10.7887 49.5835 10.7797 49.5971 10.7734C49.7648 10.7087 49.9454 10.6858 50.1236 10.7067C50.3019 10.7276 50.4725 10.7916 50.6212 10.8934C50.6462 10.9095 50.6639 10.9348 50.6706 10.964C50.6772 10.9932 50.6723 11.0239 50.6568 11.0494C50.647 11.066 50.6331 11.0797 50.6165 11.0892C50.5999 11.0986 50.5811 11.1035 50.562 11.1034V11.1034Z" fill="#263238"/>
<path d="M40.2938 90.1891C40.0812 90.184 39.8699 90.1558 39.6633 90.1051C39.6521 90.1024 39.6419 90.0964 39.634 90.0879C39.6261 90.0793 39.6209 90.0687 39.6189 90.0571C39.6164 90.0459 39.6173 90.0341 39.6215 90.0234C39.6257 90.0127 39.6331 90.0035 39.6426 89.9971C39.7254 89.9401 40.4536 89.4662 40.7289 89.5952C40.7602 89.6099 40.7873 89.6325 40.8075 89.6608C40.8277 89.6892 40.8404 89.7224 40.8443 89.7571C40.8545 89.8112 40.8511 89.8669 40.8346 89.9193C40.818 89.9717 40.7888 90.0191 40.7496 90.0571C40.6183 90.1553 40.4564 90.2022 40.2938 90.1891V90.1891ZM39.829 90.0181C40.2405 90.1021 40.5483 90.0871 40.6697 89.9761C40.6951 89.9502 40.7135 89.9181 40.7234 89.883C40.7332 89.8478 40.7341 89.8107 40.7259 89.7751C40.7258 89.7602 40.7216 89.7455 40.7138 89.7328C40.7059 89.7201 40.6948 89.7098 40.6815 89.7031C40.5276 89.6371 40.1132 89.8381 39.8202 90.0181H39.829Z" fill="#2354D7"/>
<path d="M39.6662 90.1053C39.6565 90.108 39.6463 90.108 39.6366 90.1053C39.6281 90.1 39.6211 90.0925 39.6165 90.0835C39.6118 90.0746 39.6095 90.0645 39.61 90.0544C39.61 90.0244 39.61 89.3284 39.8705 89.0944C39.9029 89.0644 39.9415 89.0421 39.9835 89.0292C40.0255 89.0162 40.0698 89.0128 40.1132 89.0194C40.1586 89.0204 40.2023 89.037 40.2372 89.0664C40.2721 89.0958 40.2962 89.1363 40.3056 89.1814C40.3589 89.4544 39.9237 89.9763 39.6958 90.1053C39.6862 90.1084 39.6759 90.1084 39.6662 90.1053ZM40.0717 89.1273C40.0267 89.1269 39.9832 89.1441 39.9504 89.1753C39.8016 89.3972 39.7241 89.6602 39.7284 89.9284C39.9563 89.7454 40.2227 89.3583 40.1901 89.1933C40.1901 89.1693 40.1694 89.1363 40.0984 89.1273H40.0717Z" fill="#2354D7"/>
<path d="M51.1274 90.1893C50.8758 90.1841 50.6251 90.156 50.3785 90.1053C50.3666 90.1029 50.3558 90.0969 50.3474 90.0881C50.339 90.0793 50.3335 90.0681 50.3316 90.056C50.3296 90.044 50.3314 90.0316 50.3366 90.0205C50.3418 90.0095 50.3502 90.0003 50.3607 89.9943C50.4703 89.9373 51.4204 89.4453 51.7135 89.6073C51.7413 89.6221 51.7649 89.644 51.7821 89.6708C51.7992 89.6976 51.8092 89.7284 51.8111 89.7603C51.8169 89.8122 51.8106 89.8648 51.7926 89.9138C51.7746 89.9628 51.7454 90.0068 51.7075 90.0423C51.5361 90.1562 51.3316 90.208 51.1274 90.1893V90.1893ZM50.5739 90.0183C51.0978 90.1083 51.4855 90.0843 51.6276 89.9523C51.6522 89.93 51.671 89.9019 51.6823 89.8705C51.6937 89.8391 51.6973 89.8054 51.6927 89.7723C51.693 89.7599 51.6898 89.7477 51.6835 89.7371C51.6772 89.7265 51.6681 89.7179 51.6572 89.7123C51.5003 89.6223 50.9498 89.8323 50.5739 90.0183Z" fill="#2354D7"/>
<path d="M50.3873 90.1054C50.3769 90.1095 50.3652 90.1095 50.3548 90.1054C50.3463 90.1002 50.3396 90.0926 50.3354 90.0835C50.3311 90.0744 50.3297 90.0643 50.3311 90.0544C50.3311 90.0244 50.3873 89.3734 50.6893 89.1214C50.7319 89.0838 50.7819 89.0555 50.8359 89.0385C50.8899 89.0214 50.9468 89.016 51.003 89.0224C51.1688 89.0224 51.2073 89.1304 51.2162 89.1844C51.2606 89.4634 50.7041 89.9794 50.414 90.1114L50.3873 90.1054ZM50.9557 89.1274C50.8851 89.1274 50.8169 89.1529 50.7633 89.1994C50.5904 89.4088 50.4868 89.668 50.4673 89.9404C50.7633 89.7604 51.1333 89.3554 51.1066 89.1934C51.1066 89.1784 51.1066 89.1394 50.9971 89.1274H50.9557Z" fill="#2354D7"/>
<path d="M47.8359 12.5044L48.2858 12.3694C48.2858 12.3694 48.0608 12.7354 47.8359 12.5044Z" fill="#263238"/>
<path d="M40.4033 86.8563H36.7655L36.7981 84.7083L41.1078 84.7563L40.4033 86.8563Z" fill="#2354D7"/>
<path opacity="0.7" d="M40.4033 86.8563H36.7655L36.7981 84.7083L41.1078 84.7563L40.4033 86.8563Z" fill="white"/>
<path d="M51.1599 86.8563H47.2172L47.2468 84.7083L51.4174 84.7563L51.1599 86.8563Z" fill="#2354D7"/>
<path opacity="0.7" d="M51.1599 86.8563H47.2172L47.2468 84.7083L51.4174 84.7563L51.1599 86.8563Z" fill="white"/>
<path d="M42.1556 35.1693L41.7205 36.0483C41.685 36.1143 41.7649 36.1833 41.8774 36.1833H52.0302C52.116 36.1833 52.19 36.1413 52.1959 36.0843L52.2818 35.2083C52.2818 35.1453 52.2137 35.0943 52.116 35.0943H42.3125C42.2821 35.0916 42.2516 35.0971 42.224 35.1103C42.1965 35.1234 42.1728 35.1438 42.1556 35.1693V35.1693Z" fill="#2354D7"/>
<path opacity="0.6" d="M42.1556 35.1693L41.7205 36.0483C41.685 36.1143 41.7649 36.1833 41.8774 36.1833H52.0302C52.116 36.1833 52.19 36.1413 52.1959 36.0843L52.2818 35.2083C52.2818 35.1453 52.2137 35.0943 52.116 35.0943H42.3125C42.2821 35.0916 42.2516 35.0971 42.224 35.1103C42.1965 35.1234 42.1728 35.1438 42.1556 35.1693V35.1693Z" fill="white"/>
<path d="M43.0584 36.1923H42.795C42.7417 36.1923 42.7032 36.1653 42.7062 36.1323L42.8305 34.9893C42.8305 34.9563 42.8778 34.9293 42.9311 34.9293H43.1946C43.2449 34.9293 43.2863 34.9563 43.2834 34.9893L43.159 36.1323C43.1561 36.1653 43.1087 36.1923 43.0584 36.1923Z" fill="#2354D7"/>
<path d="M51.5417 36.1923H51.2783C51.228 36.1923 51.1865 36.1653 51.1895 36.1323L51.3138 34.9893C51.3138 34.9563 51.3641 34.9293 51.4144 34.9293H51.6779C51.7312 34.9293 51.7696 34.9563 51.7667 34.9893L51.6424 36.1323C51.6394 36.1653 51.595 36.1923 51.5417 36.1923Z" fill="#2354D7"/>
<path d="M48.1111 36.1923H47.8506C47.7973 36.1923 47.7589 36.1653 47.7618 36.1323L47.8832 34.9893C47.8832 34.9563 47.9335 34.9293 47.9868 34.9293H48.2502C48.3005 34.9293 48.342 34.9563 48.3361 34.9893L48.2147 36.1323C48.2117 36.1653 48.1644 36.1923 48.1111 36.1923Z" fill="#2354D7"/>
<path d="M44.0826 34.5694H44.5118C44.5668 34.5686 44.6196 34.5478 44.6609 34.511C44.7021 34.4741 44.729 34.4236 44.7367 34.3684V34.3684C44.7406 34.343 44.739 34.3171 44.732 34.2924C44.7249 34.2677 44.7127 34.2448 44.6961 34.2254C44.6794 34.206 44.6588 34.1905 44.6357 34.18C44.6126 34.1694 44.5875 34.1641 44.5621 34.1644H44.1418C44.0864 34.1654 44.0332 34.1866 43.9919 34.224C43.9505 34.2615 43.9239 34.3127 43.9168 34.3684C43.913 34.3929 43.9144 34.418 43.921 34.4419C43.9275 34.4658 43.939 34.488 43.9547 34.5071C43.9704 34.5261 43.9899 34.5415 44.012 34.5523C44.034 34.563 44.0581 34.5689 44.0826 34.5694V34.5694Z" fill="#E0E0E0"/>
<path d="M44.4969 35.0974L44.565 34.5274C44.5703 34.494 44.5682 34.4599 44.5589 34.4275C44.5496 34.3951 44.5334 34.3652 44.5113 34.34C44.4892 34.3147 44.4618 34.2947 44.4312 34.2815C44.4006 34.2682 44.3674 34.262 44.3341 34.2634V34.2634C44.2614 34.2628 44.1911 34.2894 44.1365 34.3381C44.0819 34.3868 44.0469 34.4542 44.0381 34.5274L43.9701 35.0974C43.9648 35.1307 43.9669 35.1648 43.9762 35.1972C43.9855 35.2296 44.0017 35.2595 44.0238 35.2848C44.0459 35.31 44.0733 35.33 44.1039 35.3433C44.1345 35.3565 44.1677 35.3627 44.201 35.3614V35.3614C44.2737 35.3619 44.344 35.3353 44.3986 35.2866C44.4532 35.2379 44.4882 35.1705 44.4969 35.0974Z" fill="#E0E0E0"/>
<path d="M50.2216 34.5694H50.6537C50.7084 34.5685 50.7608 34.5476 50.8016 34.5107C50.8423 34.4739 50.8686 34.4234 50.8757 34.3684V34.3684C50.8796 34.343 50.878 34.3171 50.8709 34.2924C50.8639 34.2677 50.8517 34.2448 50.835 34.2254C50.8184 34.206 50.7978 34.1905 50.7747 34.18C50.7516 34.1694 50.7264 34.1641 50.7011 34.1644H50.2689C50.2139 34.1666 50.1613 34.1882 50.1202 34.2254C50.0792 34.2626 50.0522 34.3132 50.044 34.3684V34.3684C50.0405 34.3939 50.0426 34.4198 50.05 34.4443C50.0574 34.4688 50.07 34.4915 50.0869 34.5106C50.1038 34.5297 50.1246 34.5449 50.1478 34.555C50.1711 34.5652 50.1963 34.5701 50.2216 34.5694V34.5694Z" fill="#E0E0E0"/>
<path d="M50.633 35.0974L50.7011 34.5274C50.7063 34.494 50.7043 34.4599 50.695 34.4275C50.6857 34.3951 50.6694 34.3652 50.6473 34.34C50.6252 34.3147 50.5979 34.2947 50.5672 34.2815C50.5366 34.2682 50.5035 34.262 50.4702 34.2634V34.2634C50.3975 34.2628 50.3271 34.2894 50.2725 34.3381C50.2179 34.3868 50.1829 34.4542 50.1742 34.5274L50.1061 35.0974C50.1014 35.1306 50.1038 35.1645 50.1133 35.1967C50.1228 35.2288 50.1391 35.2585 50.1611 35.2836C50.1831 35.3088 50.2102 35.3288 50.2406 35.3422C50.271 35.3556 50.3039 35.3621 50.337 35.3614C50.4097 35.3619 50.4801 35.3353 50.5347 35.2866C50.5893 35.2379 50.6243 35.1705 50.633 35.0974Z" fill="#E0E0E0"/>
<path d="M42.7357 20.4694L43.2182 20.4214C43.2549 20.4185 43.2914 20.4286 43.3216 20.45C43.3518 20.4713 43.3738 20.5025 43.384 20.5384C45.3938 27.3064 44.6272 34.3804 44.6272 34.3804H44.0085C44.4762 25.9624 42.8571 21.5674 42.6025 20.6644C42.5968 20.6426 42.5959 20.6198 42.5997 20.5976C42.6036 20.5754 42.6121 20.5543 42.6248 20.5358C42.6374 20.5172 42.6539 20.5017 42.6731 20.4902C42.6922 20.4788 42.7136 20.4717 42.7357 20.4694V20.4694Z" fill="#2354D7"/>
<path opacity="0.6" d="M42.7357 20.4694L43.2182 20.4214C43.2549 20.4185 43.2914 20.4286 43.3216 20.45C43.3518 20.4713 43.3738 20.5025 43.384 20.5384C45.3938 27.3064 44.6272 34.3804 44.6272 34.3804H44.0085C44.4762 25.9624 42.8571 21.5674 42.6025 20.6644C42.5968 20.6426 42.5959 20.6198 42.5997 20.5976C42.6036 20.5754 42.6121 20.5543 42.6248 20.5358C42.6374 20.5172 42.6539 20.5017 42.6731 20.4902C42.6922 20.4788 42.7136 20.4717 42.7357 20.4694V20.4694Z" fill="white"/>
<path d="M50.1624 20.4424L50.5857 20.5024C50.6184 20.5087 50.6484 20.525 50.6717 20.5491C50.695 20.5733 50.7104 20.6041 50.7159 20.6374C51.9177 25.8934 50.7662 34.3654 50.7662 34.3654H50.1446C50.932 25.1704 50.1269 21.4654 49.9907 20.6194C49.9873 20.5956 49.9894 20.5714 49.9968 20.5485C50.0042 20.5257 50.0167 20.5049 50.0333 20.4878C50.0499 20.4707 50.0702 20.4577 50.0926 20.4498C50.115 20.4419 50.1389 20.4394 50.1624 20.4424V20.4424Z" fill="#2354D7"/>
<path opacity="0.6" d="M50.1624 20.4424L50.5857 20.5024C50.6184 20.5087 50.6484 20.525 50.6717 20.5491C50.695 20.5733 50.7104 20.6041 50.7159 20.6374C51.9177 25.8934 50.7662 34.3654 50.7662 34.3654H50.1446C50.932 25.1704 50.1269 21.4654 49.9907 20.6194C49.9873 20.5956 49.9894 20.5714 49.9968 20.5485C50.0042 20.5257 50.0167 20.5049 50.0333 20.4878C50.0499 20.4707 50.0702 20.4577 50.0926 20.4498C50.115 20.4419 50.1389 20.4394 50.1624 20.4424V20.4424Z" fill="white"/>
<path d="M41.8478 23.9553C41.8478 24.6303 41.8685 25.3503 41.907 26.0553C41.9455 26.7603 41.9751 27.4563 42.0461 28.1553C42.1172 28.8543 42.206 29.5233 42.3421 30.1773C42.4072 30.5013 42.4812 30.8193 42.5671 31.1193C42.6124 31.2693 42.6598 31.4133 42.7091 31.5513L42.7772 31.7253C42.7759 31.7281 42.7752 31.7312 42.7752 31.7343C42.7752 31.7374 42.7759 31.7405 42.7772 31.7433C42.7772 31.7703 42.8897 31.8663 43.1117 31.9323C43.3754 32.0033 43.647 32.0396 43.9198 32.0403C44.5734 32.0451 45.2262 31.9909 45.8704 31.8783C46.5423 31.7733 47.2231 31.6263 47.898 31.4583C48.5729 31.2903 49.2626 31.1043 49.9256 30.9123L50.3814 32.0433C49.0609 32.7188 47.6791 33.2633 46.2552 33.6693C45.5059 33.8886 44.7361 34.0284 43.9583 34.0863C43.5159 34.1179 43.0713 34.0927 42.6351 34.0113C42.3741 33.9598 42.1205 33.8751 41.8803 33.7593C41.5897 33.6208 41.3299 33.4238 41.1167 33.1803C41.0018 33.0495 40.9025 32.9055 40.8207 32.7513C40.7733 32.6643 40.7615 32.6343 40.7348 32.5803L40.6638 32.4333C40.578 32.2353 40.498 32.0403 40.427 31.8333C40.2894 31.4562 40.1728 31.0716 40.0777 30.6813C39.8938 29.9365 39.7544 29.1811 39.6603 28.4193C39.4669 26.9277 39.3828 25.4235 39.4088 23.9193L41.8478 23.9553Z" fill="#E4897B"/>
<path d="M49.4017 31.2184L50.1505 28.8994L51.4263 30.9994C51.4263 30.9994 50.6774 32.3524 49.6858 32.3314L49.4017 31.2184Z" fill="#E4897B"/>
<path d="M51.8141 27.7684L52.7909 29.5744L51.4263 30.9874L50.1506 28.8994L51.8141 27.7684Z" fill="#E4897B"/>
<path d="M40.5453 21.0064C39.5745 21.3064 38.4112 24.6904 38.4112 24.6904L42.1733 27.4174C42.1733 27.4174 43.5468 24.5914 43.1383 23.3194C42.715 21.9964 41.6524 20.6644 40.5453 21.0064Z" fill="#2354D7"/>
<path opacity="0.7" d="M40.5453 21.0064C39.5745 21.3064 38.4112 24.6904 38.4112 24.6904L42.1733 27.4174C42.1733 27.4174 43.5468 24.5914 43.1383 23.3194C42.715 21.9964 41.6524 20.6644 40.5453 21.0064Z" fill="black"/>
<path d="M44.3785 9.89432C45.6957 9.39332 46.0657 8.80532 46.1545 8.55032C46.1688 8.51284 46.1736 8.47233 46.1684 8.43249C46.1632 8.39266 46.1483 8.35477 46.1249 8.32232C45.9207 8.02232 45.2636 7.21232 44.565 7.77332C43.8664 8.33432 43.2685 8.33432 44.0707 9.78332C44.0992 9.83734 44.1465 9.87866 44.2034 9.89918C44.2603 9.91971 44.3228 9.91798 44.3785 9.89432V9.89432Z" fill="#2354D7"/>
<path opacity="0.3" d="M44.3785 9.89432C45.6957 9.39332 46.0657 8.80532 46.1545 8.55032C46.1688 8.51284 46.1736 8.47233 46.1684 8.43249C46.1632 8.39266 46.1483 8.35477 46.1249 8.32232C45.9207 8.02232 45.2636 7.21232 44.565 7.77332C43.8664 8.33432 43.2685 8.33432 44.0707 9.78332C44.0992 9.83734 44.1465 9.87866 44.2034 9.89918C44.2603 9.91971 44.3228 9.91798 44.3785 9.89432V9.89432Z" fill="black"/>
</svg>
