<svg width="71" height="92" viewBox="0 0 71 92" fill="none" xmlns="http://www.w3.org/2000/svg">
<path d="M65.4258 57.5917H63.785V91.5117H65.4258V57.5917Z" fill="#263238"/>
<path d="M41.5873 57.5917H39.9464V91.5117H41.5873V57.5917Z" fill="#263238"/>
<path d="M67.1022 53.8267H17.7774V75.382H67.1022V53.8267Z" fill="#455A64"/>
<path d="M69.0215 52.9082H0.165833V56.5055H69.0215V52.9082Z" fill="#455A64"/>
<path d="M16.1341 54.7057H1.18744V75.3819H16.1341V54.7057Z" fill="#455A64"/>
<path d="M68.2121 56.2697C68.2121 56.3155 52.9404 56.3526 34.1083 56.3526C15.2762 56.3526 0 56.3155 0 56.2697C0 56.2238 15.2585 56.1868 34.1083 56.1868C52.958 56.1868 68.2121 56.2238 68.2121 56.2697Z" fill="#263238"/>
<path d="M17.7751 56.2698H16.1342V91.514H17.7751V56.2698Z" fill="#263238"/>
<path d="M2.74661 56.2698H1.10577V91.514H2.74661V56.2698Z" fill="#263238"/>
<path d="M53.2476 82.0747L54.2383 87.3102C54.2383 87.3102 49.1876 90.0567 49.2738 91.0406L59.612 89.5135L58.409 81.2915L53.2476 82.0747Z" fill="#2354D7"/>
<g opacity="0.3">
<path opacity="0.3" d="M53.2476 82.0747L54.2383 87.3102C54.2383 87.3102 49.1876 90.0567 49.2738 91.0406L59.612 89.5135L58.409 81.2915L53.2476 82.0747Z" fill="black"/>
</g>
<path d="M57.3787 86.3855C57.4835 86.4006 57.579 86.4536 57.6464 86.5342C57.7139 86.6149 57.7485 86.7174 57.7435 86.8218C57.7313 86.9266 57.6784 87.0226 57.5959 87.0897C57.5134 87.1568 57.4078 87.1898 57.3013 87.1817C57.1903 87.1671 57.089 87.1114 57.018 87.026C56.947 86.9405 56.9115 86.8317 56.9187 86.7215C56.9411 86.6151 57.0048 86.5216 57.0961 86.4609C57.1874 86.4002 57.2991 86.3771 57.4074 86.3964" fill="#E0E0E0"/>
<path d="M59.6121 89.5004L59.4595 88.678L49.6034 90.4537C49.6034 90.4537 49.1744 90.7199 49.2739 91.0318L59.6121 89.5004Z" fill="#263238"/>
<path d="M54.0614 87.2709C54.0614 87.321 54.3245 87.3058 54.5987 87.4301C54.873 87.5545 55.041 87.7421 55.0786 87.7159C55.1162 87.6897 55.0034 87.4127 54.6695 87.2687C54.3356 87.1247 54.0437 87.2272 54.0614 87.2709Z" fill="#263238"/>
<path d="M53.0465 87.8753C53.0465 87.9254 53.2676 87.9778 53.4755 88.1632C53.6834 88.3486 53.763 88.5624 53.8138 88.5537C53.8647 88.545 53.8514 88.257 53.5927 88.0323C53.334 87.8076 53.0399 87.836 53.0465 87.8753Z" fill="#263238"/>
<path d="M52.624 89.245C52.6727 89.245 52.7036 88.9898 52.5333 88.7368C52.3631 88.4837 52.1087 88.4095 52.0911 88.4532C52.0734 88.4968 52.2436 88.6233 52.3807 88.8327C52.5179 89.0422 52.5731 89.2472 52.624 89.245Z" fill="#263238"/>
<path d="M53.9708 86.0559C53.9995 86.0995 54.2207 85.9948 54.5082 85.973C54.7956 85.9512 55.0322 86.0057 55.0522 85.9577C55.0721 85.9097 54.831 85.7658 54.4927 85.7985C54.1543 85.8312 53.9398 86.021 53.9708 86.0559Z" fill="#263238"/>
<path d="M56.6244 83.3247L56.7195 88.6388C56.7195 88.6388 51.2751 90.5193 51.191 91.5031L61.6442 91.6907L61.8388 83.4011L56.6244 83.3247Z" fill="#2354D7"/>
<path d="M59.9592 88.2504C60.0591 88.2821 60.1436 88.3491 60.1966 88.4384C60.2497 88.5277 60.2675 88.6332 60.2466 88.7347C60.2176 88.8344 60.1511 88.9195 60.0607 88.9726C59.9704 89.0257 59.8629 89.0428 59.7601 89.0205C59.6529 88.988 59.5621 88.9165 59.5063 88.8205C59.4505 88.7245 59.4337 88.6112 59.4594 88.5035C59.5004 88.4024 59.5796 88.321 59.6802 88.2762C59.7808 88.2315 59.895 88.2269 59.999 88.2635" fill="#E0E0E0"/>
<path d="M61.6487 91.6907L61.6354 90.8552L51.6179 90.9861C51.6179 90.9861 51.1491 91.1781 51.1955 91.5031L61.6487 91.6907Z" fill="#263238"/>
<path d="M56.5515 88.5819C56.5515 88.632 56.8058 88.6604 57.0535 88.8262C57.3011 88.992 57.4316 89.208 57.4803 89.1883C57.5289 89.1687 57.4559 88.8764 57.153 88.68C56.85 88.4837 56.5404 88.5361 56.5515 88.5819Z" fill="#263238"/>
<path d="M55.4458 89.0095C55.4348 89.0597 55.6537 89.1491 55.8218 89.3651C55.9898 89.5811 56.0429 89.8014 56.0894 89.8014C56.1358 89.8014 56.1778 89.5156 55.9611 89.2517C55.7444 88.9877 55.448 88.9615 55.4458 89.0095Z" fill="#263238"/>
<path d="M54.8001 90.2925C54.8465 90.3056 54.9217 90.0547 54.8001 89.7776C54.6785 89.5006 54.4374 89.385 54.4153 89.4264C54.3932 89.4679 54.5369 89.6184 54.6364 89.8474C54.7359 90.0765 54.7492 90.2881 54.8001 90.2925Z" fill="#263238"/>
<path d="M56.6643 87.3691C56.6864 87.4149 56.9208 87.3495 57.2083 87.3691C57.4958 87.3887 57.7214 87.4869 57.7479 87.4433C57.7744 87.3996 57.5621 87.2251 57.2238 87.1924C56.8855 87.1597 56.64 87.3298 56.6643 87.3691Z" fill="#263238"/>
<path d="M63.9974 42.0616L63.8581 47.319L62.2836 63.641C62.2836 63.641 62.7855 71.5925 63.104 76.0755C63.3804 79.9825 62.5821 86.7452 62.5821 86.7452L55.9303 86.5728L54.1479 63.9268L53.0422 49.8038L50.8552 42.6048L63.9974 42.0616Z" fill="#263238"/>
<path d="M47.5357 42.9801L47.1376 64.6031C47.1163 65.6913 47.2961 66.7743 47.6684 67.799L53.3848 83.5057L53.6656 84.5419L57.6638 83.6912L54.8973 42.4435L47.5224 42.7423L47.5357 42.9801Z" fill="#263238"/>
<path d="M53.1326 47.0291C53.1292 47.0631 53.1292 47.0975 53.1326 47.1316C53.1326 47.2058 53.1326 47.3039 53.1326 47.4326C53.1326 47.7031 53.1326 48.0871 53.1326 48.5888C53.1326 49.5923 53.1613 51.0452 53.21 52.8384C53.3161 56.4269 53.5594 61.3833 53.9995 66.8392C54.4395 72.2951 54.9349 77.2296 55.3064 80.8008C55.4943 82.5787 55.6469 84.0185 55.7487 85.0241C55.8017 85.515 55.846 85.8967 55.8747 86.1716C55.8902 86.2959 55.9034 86.3897 55.9123 86.4683C55.9147 86.5021 55.9199 86.5356 55.9278 86.5686C55.9317 86.5346 55.9317 86.5002 55.9278 86.4661C55.9278 86.3941 55.9145 86.2938 55.9057 86.1672C55.8791 85.8967 55.846 85.5128 55.7995 85.0176C55.7022 84.0119 55.5629 82.5699 55.3904 80.7898C55.0432 77.2209 54.5523 72.282 54.1211 66.8283C53.6899 61.3746 53.4245 56.4226 53.2962 52.8362C53.2365 51.043 53.1923 49.5901 53.179 48.5866C53.168 48.0914 53.1591 47.7031 53.1525 47.4304C53.1525 47.3039 53.1525 47.2123 53.1414 47.1316C53.1414 47.0972 53.1384 47.0629 53.1326 47.0291V47.0291Z" fill="#455A64"/>
<path d="M52.7832 44.2454C52.781 44.3124 52.7991 44.3784 52.835 44.4352C52.8709 44.492 52.9231 44.537 52.985 44.5645C53.0469 44.592 53.1157 44.6008 53.1826 44.5897C53.2495 44.5786 53.3116 44.5481 53.361 44.5022C53.4104 44.4562 53.4448 44.3969 53.4599 44.3316C53.4751 44.2663 53.4702 44.1981 53.446 44.1355C53.4218 44.073 53.3792 44.0189 53.3239 43.9803C53.2685 43.9416 53.2027 43.92 53.1348 43.9182C53.0443 43.9159 52.9565 43.949 52.8906 44.0103C52.8247 44.0716 52.7861 44.1561 52.7832 44.2454V44.2454Z" fill="#455A64"/>
<path d="M47.3875 46.7694C47.5677 46.6532 47.7294 46.5113 47.8674 46.3483C48.2192 45.9695 48.5128 45.5417 48.7387 45.0787C48.964 44.6151 49.1183 44.1211 49.1964 43.6127C49.2395 43.4047 49.25 43.1913 49.2274 42.9801C49.2075 42.9801 49.1876 43.2201 49.1102 43.5975C49.0072 44.0911 48.8446 44.5708 48.6259 45.0263C48.404 45.4795 48.127 45.9044 47.8011 46.2916C47.5512 46.5883 47.372 46.7541 47.3875 46.7694Z" fill="#455A64"/>
<path d="M58.9375 43.41C58.9325 43.4913 58.94 43.5729 58.9597 43.6521C58.9967 43.8698 59.0537 44.0837 59.1299 44.2913C59.3814 44.9844 59.8138 45.5999 60.3833 46.0755C60.9529 46.5512 61.6395 46.8703 62.374 47.0007C62.5929 47.0409 62.8148 47.0621 63.0374 47.064C63.1198 47.0685 63.2024 47.0619 63.2829 47.0443C63.2829 47.0203 62.9335 47.0334 62.3873 46.9156C61.6762 46.7665 61.0137 46.4457 60.4591 45.982C59.9046 45.5182 59.4752 44.9261 59.2095 44.2586C59.0061 43.7481 58.9597 43.4056 58.9375 43.41Z" fill="#455A64"/>
<path d="M47.5224 42.7423C47.5533 42.7423 47.5445 44.8191 47.5025 47.3802C47.4605 49.9412 47.4008 52.0158 47.3698 52.0158C47.3388 52.0158 47.3455 49.9391 47.3875 47.378C47.4295 44.8169 47.4892 42.7401 47.5224 42.7423Z" fill="#455A64"/>
<path d="M63.827 46.824C63.8158 46.5839 63.8209 46.3434 63.8425 46.1041C63.8646 45.6678 63.8912 45.0439 63.9066 44.3589C63.9221 43.6739 63.9221 43.0674 63.9221 42.6137C63.9098 42.3729 63.9158 42.1315 63.9398 41.8916C63.9805 42.1295 64.002 42.3702 64.0039 42.6115C64.0238 43.0478 64.0371 43.6739 64.0216 44.3567C64.0062 45.0395 63.9663 45.6525 63.9243 46.1019C63.9152 46.3451 63.8826 46.5869 63.827 46.824V46.824Z" fill="#455A64"/>
<path d="M32.6111 13.7198L32.1688 13.1461C32.1688 13.1461 31.9477 12.6771 32.0472 12.4655C32.1467 12.2539 32.4895 12.3782 32.4895 12.3782L34.2188 14.3001L33.6151 14.7909L32.6797 13.7875" fill="white"/>
<path d="M42.2749 21.1195L38.7831 18.3163C38.7831 18.3163 38.5797 17.7927 38.248 17.6618C38.0717 17.567 37.92 17.4331 37.8049 17.2707C37.6898 17.1084 37.6144 16.9219 37.5846 16.726L37.0494 14.9022C37.0362 14.7081 36.5607 13.6697 36.386 13.5715L35.9106 13.4843C35.9106 13.4843 35.7536 12.7011 35.3909 12.6117C35.0282 12.5222 33.9071 12.5637 33.9071 12.5637L32.8323 13.0785C32.9094 13.2084 33.0177 13.3175 33.1477 13.3962C33.2777 13.475 33.4253 13.521 33.5776 13.5301C33.9023 13.5218 34.2254 13.4808 34.5417 13.4079L34.8248 14.2587C34.8248 14.2587 34.9066 14.8913 34.7982 15.1531C34.7457 15.2972 34.6558 15.4251 34.5373 15.524C34.2645 15.1738 34.0106 14.8097 33.7766 14.4332C33.5555 14.0362 32.9341 13.5432 32.6952 13.7788C32.4564 14.0144 32.9429 14.4899 33.0092 14.9306L33.0844 15.4978C33.0844 15.4978 33.4935 16.198 33.5267 16.3202C33.5599 16.4424 33.8518 17.1928 34.1614 17.448L35.5413 18.6151L36.8438 20.1422C37.233 20.5894 40.8707 24.5946 40.8707 24.5946L42.6862 22.0423L42.2749 21.1195Z" fill="#FFBE9D"/>
<path d="M38.909 18.1482C38.9488 18.2857 39.9838 19.1801 39.9838 19.1801C39.9838 19.1801 42.5976 21.1543 43.177 21.8437C43.7564 22.533 46.1115 23.7765 46.1115 23.7765L48.3671 19.3066L51.85 17.1142C52.6284 16.3441 54.8398 17.7687 54.8398 17.7687L48.3715 32.7141L43.5905 30.9514L37.3412 22.1338L36.3284 19.7342L38.909 18.1482Z" fill="#E0E0E0"/>
<path d="M58.6634 13.0698L59.5833 14.3547C59.5833 14.3547 65.4214 17.2605 65.669 17.651C65.9167 18.0414 64.1343 31.7892 64.1343 31.7892L64.8486 40.1422L63.9972 42.3891L47.4451 43.3053C47.1864 43.205 46.5605 42.6509 46.5053 41.7041C46.4699 40.9755 47.0603 40.2207 47.0559 39.7408C47.0161 36.3551 47.3854 28.5802 47.9404 25.7116C48.6813 21.9027 50.373 18.1418 50.373 18.1418L51.8568 17.1165L52.1531 15.4847L58.6634 13.0698Z" fill="#E0E0E0"/>
<g opacity="0.3">
<path opacity="0.3" d="M64.4661 38.1612C64.2272 38.0155 63.9566 37.928 63.6766 37.906C60.6006 37.3781 58.0508 35.214 55.0323 34.4156C54.4138 34.2192 53.7549 34.181 53.1173 34.3044C52.1 34.5574 51.3482 35.4605 51.0164 36.4378C50.6847 37.4152 50.6007 38.5844 50.6007 39.5879C51.4499 39.5138 52.3256 38.8113 52.7126 38.0609C52.8696 37.7555 52.9779 37.4064 53.2676 37.2057C53.5573 37.005 53.931 37.0465 54.2804 37.0879L56.6201 37.3693C57.2042 37.4211 57.7818 37.5285 58.345 37.69C58.9487 37.8842 59.5015 38.2005 60.0853 38.4492C61.3607 38.9906 62.7563 39.1972 64.1366 39.0491C64.307 39.0488 64.4717 38.9885 64.601 38.8789C64.7911 38.6826 64.6872 38.3314 64.4661 38.1612Z" fill="black"/>
</g>
<g opacity="0.3">
<path opacity="0.3" d="M53.1283 19.2258C52.8386 20.0984 52.7723 21.0343 52.7081 21.9548C52.487 25.0351 52.3963 27.8558 52.1818 30.9361C52.2216 30.851 52.142 31.0233 52.1818 30.9361L53.219 30.803C53.1889 26.1772 53.7129 21.5641 54.7802 17.0596C53.9642 17.5177 53.4202 18.3488 53.1283 19.2258Z" fill="black"/>
</g>
<path d="M52.3078 18.8571C52.3078 18.8571 50.709 22.2536 50.2402 23.6912C49.7714 25.1288 49.4485 30.672 49.4485 30.672L49.1544 37.7881L50.6007 39.5834L52.0027 38.3945L53.701 19.0163L52.3078 18.8571Z" fill="#2354D7"/>
<path d="M52.0026 38.4057C51.9717 38.4057 52.2238 34.0689 52.582 28.722C52.9402 23.3752 53.2454 19.0427 53.2764 19.0427C53.3073 19.0427 53.0552 23.3817 52.697 28.7286C52.3388 34.0754 52.0336 38.4078 52.0026 38.4057Z" fill="#263238"/>
<path d="M65.6691 17.6508C66.7525 18.3455 67.523 19.4252 67.8208 20.6656C68.3891 22.8231 70.2665 31.2306 70.4435 32.522C70.6204 33.8134 70.3108 35.5761 69.7425 36.0582C69.1741 36.5403 65.7222 38.7022 64.1919 38.7022C62.6616 38.7022 59.59 37.7183 59.59 37.7183L60.2534 34.3348L62.8385 33.7349L64.8487 31.7934L62.5754 26.8741C62.5754 26.8741 63.4754 18.0849 65.6691 17.6508Z" fill="#E0E0E0"/>
<path d="M68.5946 32.6704C68.5792 32.6834 68.4421 32.4915 68.1524 32.2471C67.7808 31.9333 67.3401 31.7092 66.8653 31.5927C66.3894 31.4791 65.8911 31.495 65.4235 31.6385C65.0631 31.7432 64.853 31.8567 64.8442 31.837C64.8353 31.8174 64.8884 31.7956 64.9813 31.7432C65.1156 31.6722 65.2553 31.6116 65.3992 31.5622C65.8787 31.3913 66.3986 31.3632 66.8941 31.4814C67.3873 31.6027 67.84 31.8486 68.2077 32.1948C68.3183 32.2981 68.4189 32.4113 68.5084 32.5329C68.5725 32.6136 68.6013 32.666 68.5946 32.6704Z" fill="#263238"/>
<path d="M62.6018 38.2791C62.5841 38.266 62.7654 38.0609 62.9667 37.6923C63.2297 37.2043 63.3693 36.6608 63.3735 36.1082C63.3777 35.5555 63.2465 35.01 62.991 34.5182C62.7964 34.1408 62.6173 33.9379 62.635 33.927C62.6526 33.9161 62.6902 33.9663 62.7676 34.0579C62.8781 34.1902 62.9765 34.3318 63.0618 34.4811C63.3451 34.978 63.4919 35.5394 63.4877 36.1095C63.4834 36.6796 63.3282 37.2388 63.0374 37.7315C62.9511 37.8797 62.8504 38.0193 62.7367 38.1482C62.6571 38.2398 62.6062 38.2835 62.6018 38.2791Z" fill="#263238"/>
<path d="M53.1747 16.2481L51.8833 17.906L52.2791 18.9269L53.6612 19.0884L54.8841 17.1686L53.701 16.1477L53.1747 16.2481Z" fill="#2354D7"/>
<path d="M67.8693 30.1508C67.8693 30.1726 67.6614 30.1508 67.3342 30.1726C67.1438 30.1883 66.9556 30.2234 66.7725 30.2773C66.5497 30.346 66.3348 30.4374 66.1312 30.55C65.7634 30.7636 65.4382 31.0416 65.1714 31.3702C64.9658 31.6211 64.8663 31.8065 64.8486 31.7891C64.9057 31.6188 64.9934 31.4599 65.1073 31.3201C65.3632 30.965 65.6926 30.6676 66.0737 30.4475C66.2827 30.3297 66.5055 30.2374 66.7371 30.1726C66.9285 30.122 67.1251 30.0935 67.3231 30.0875C67.4563 30.081 67.5898 30.089 67.7212 30.1115C67.7726 30.1155 67.8228 30.1288 67.8693 30.1508Z" fill="#263238"/>
<path d="M65.0719 17.943C65.0719 17.9626 64.864 18.0368 64.55 18.2179C63.7286 18.6998 63.1262 19.4744 62.8671 20.3819C62.7698 20.7288 62.7544 20.9534 62.7322 20.9513C62.7232 20.8986 62.7232 20.8447 62.7322 20.792C62.7372 20.645 62.7572 20.4988 62.7919 20.3557C62.9016 19.8865 63.1121 19.4459 63.4093 19.0639C63.7065 18.6819 64.0835 18.3673 64.5146 18.1415C64.6438 18.0725 64.7793 18.0155 64.9193 17.9714C64.9684 17.9543 65.0198 17.9447 65.0719 17.943Z" fill="#263238"/>
<path d="M59.3445 14.6033C59.2899 14.7042 59.227 14.8005 59.1565 14.8912L58.6059 15.6504C58.1393 16.2896 57.4869 17.1774 56.7594 18.1307L56.5227 18.4449L56.4874 18.4929L56.4387 18.4536C55.5719 17.7446 54.8045 17.1076 54.2539 16.6451L53.6192 16.0976C53.5387 16.0319 53.4647 15.9588 53.3981 15.8794C53.4878 15.9308 53.5723 15.9907 53.6502 16.0583L54.3136 16.5797C54.8753 17.0269 55.6537 17.653 56.525 18.362H56.4409L56.6775 18.0478C57.4051 17.0836 58.0685 16.2132 58.5528 15.5871L59.1322 14.8498C59.1959 14.762 59.267 14.6795 59.3445 14.6033Z" fill="#263238"/>
<path d="M61.4098 24.3241C61.4315 24.3553 61.4507 24.3881 61.4673 24.4223L61.611 24.708L62.1196 25.7704C62.5464 26.6692 63.1258 27.9148 63.7605 29.2935C64.174 30.1989 64.5632 31.0387 64.8927 31.7695L64.9082 31.8001L64.8839 31.8241C64.3067 32.4327 63.7782 32.8865 63.4244 33.2224L63.0152 33.6129C62.97 33.663 62.9196 33.7084 62.8649 33.7481C62.9027 33.6933 62.9448 33.6415 62.9909 33.5933C63.0794 33.4951 63.2121 33.3555 63.3823 33.181C63.7229 32.8319 64.247 32.3673 64.8109 31.7564V31.811L63.6654 29.3415C63.0307 27.9628 62.4602 26.7106 62.0555 25.8031L61.5801 24.7255L61.4562 24.431C61.4352 24.398 61.4195 24.3619 61.4098 24.3241V24.3241Z" fill="#263238"/>
<path d="M69.8884 35.8992C69.8636 35.9409 69.8331 35.9791 69.7977 36.0127C69.7612 36.0592 69.7197 36.1016 69.6739 36.1392C69.6208 36.185 69.5633 36.2439 69.4903 36.2963C69.0798 36.6076 68.6459 36.8876 68.1923 37.134C67.6239 37.4546 66.934 37.8102 66.1556 38.1811C65.3127 38.6158 64.3648 38.8135 63.4157 38.7526C63.0212 38.7264 62.6336 38.6373 62.268 38.4887H62.279L59.5414 37.7491L59.4971 37.7382V37.6946C59.6873 36.7675 59.8465 35.993 59.9615 35.4368C60.019 35.175 60.0632 34.9655 60.0986 34.8085C60.1125 34.7345 60.1317 34.6616 60.1561 34.5903C60.1528 34.6637 60.1431 34.7367 60.1274 34.8085C60.0986 34.9677 60.061 35.1793 60.0168 35.4433C59.9107 36.0018 59.7647 36.7762 59.5922 37.7077L59.5568 37.6531L62.2989 38.3774C62.6513 38.5199 63.0247 38.6054 63.4046 38.6305C64.3384 38.699 65.2735 38.5149 66.1092 38.0982C66.8898 37.7339 67.5819 37.3848 68.1525 37.0729C68.6064 36.835 69.0438 36.5676 69.4616 36.2723C69.6111 36.1563 69.7537 36.0317 69.8884 35.8992V35.8992Z" fill="#263238"/>
<path d="M48.9487 20.7507C48.9503 20.7854 48.9458 20.8201 48.9354 20.8533C48.9199 20.9318 48.9 21.0256 48.8779 21.1369C48.8204 21.403 48.7452 21.7564 48.6568 22.184C48.471 23.0566 48.2145 24.2891 48.0177 25.6504C47.8209 27.0116 47.6793 28.2529 47.6108 29.1517C47.5754 29.6011 47.5489 29.9654 47.5356 30.2162C47.5356 30.3319 47.5201 30.4344 47.5135 30.5064C47.5135 30.5411 47.5083 30.5757 47.498 30.6089C47.4923 30.575 47.4923 30.5403 47.498 30.5064V30.2162C47.498 29.9632 47.5113 29.5967 47.5378 29.1451C47.5865 28.2442 47.7015 26.9985 47.9115 25.6329C48.1216 24.2673 48.3671 23.0457 48.5727 22.1731C48.6767 21.7368 48.7673 21.379 48.8337 21.1347L48.9133 20.8533C48.92 20.8176 48.9319 20.783 48.9487 20.7507Z" fill="#263238"/>
<path d="M53.3848 15.8859C53.2917 16.0682 53.1821 16.242 53.0575 16.4051C52.8364 16.7192 52.5423 17.1468 52.2039 17.6158L51.6798 18.3291L51.5405 18.5167L51.587 18.2986C51.6555 17.9474 51.7174 17.6442 51.7639 17.4456C51.7799 17.3346 51.8104 17.2261 51.8545 17.1228C51.8604 17.2348 51.8507 17.3471 51.8258 17.4565C51.797 17.6747 51.7484 17.9648 51.6887 18.3161L51.5958 18.2768C51.7528 18.0586 51.9275 17.8143 52.1089 17.5569C52.4494 17.09 52.7612 16.669 52.9934 16.368C53.1077 16.1951 53.2388 16.0336 53.3848 15.8859V15.8859Z" fill="#263238"/>
<path d="M54.1919 16.5907C54.2074 16.6147 53.7076 16.9921 53.1769 17.5527C52.6462 18.1134 52.1751 18.5431 52.1508 18.5148C52.2252 18.3992 52.3136 18.293 52.414 18.1985C52.5865 18.013 52.8209 17.7622 53.0929 17.4742C53.3232 17.2335 53.5724 17.0111 53.8381 16.8088C53.9423 16.7164 54.062 16.6426 54.1919 16.5907Z" fill="#263238"/>
<path d="M45.5322 27.5766C45.498 27.3888 45.4861 27.1977 45.4969 27.0072C45.4995 26.5473 45.5343 26.0881 45.6008 25.6329C45.6664 25.1782 45.7631 24.7285 45.8905 24.2869C45.9323 24.0997 45.9985 23.9186 46.0873 23.748C46.0618 23.9367 46.0227 24.1234 45.9701 24.3065C45.8905 24.6468 45.791 25.1202 45.7136 25.6503C45.6362 26.1804 45.5986 26.6603 45.5787 27.0094C45.5799 27.1994 45.5644 27.3892 45.5322 27.5766V27.5766Z" fill="#263238"/>
<path d="M46.1004 26.7543C46.0225 26.2609 45.998 25.7607 46.0275 25.2622C46.0179 24.7629 46.0631 24.2641 46.1623 23.7744C46.1955 23.7744 46.1623 24.442 46.1424 25.2644C46.1225 26.0868 46.1424 26.7543 46.1004 26.7543Z" fill="#263238"/>
<path d="M40.4262 19.4965C40.2959 19.6462 40.1523 19.7841 39.9972 19.9088C39.692 20.1793 39.3338 20.5021 38.9247 20.8621C38.5156 21.222 38.1153 21.558 37.819 21.7892C37.6718 21.9233 37.5101 22.0411 37.3369 22.1404C37.4672 21.9907 37.6108 21.8527 37.7659 21.7281L38.8384 20.777C39.2608 20.4061 39.6478 20.0789 39.9441 19.8477C40.0924 19.7148 40.2539 19.5971 40.4262 19.4965V19.4965Z" fill="#263238"/>
<path d="M46.0608 30.681C45.9303 30.7574 44.975 31.2853 44.9286 31.7718L54.6321 33.4493L63.774 30.3821L61.9341 28.8551C61.9341 28.8551 54.1368 29.4965 54.2694 31.6431C54.2694 31.6431 53.9599 30.9537 52.5357 30.6723C51.1116 30.3909 46.0608 30.681 46.0608 30.681Z" fill="white"/>
<path d="M44.7405 31.7541L44.7627 31.885L46.1824 35.2794H58.042L62.8296 33.7305L64.0835 30.1572L55.6095 31.789C55.6095 31.789 55.3883 32.8317 54.4242 32.8797C53.5927 32.9277 53.3715 31.909 53.3715 31.909L44.7405 31.7541Z" fill="#2354D7"/>
<path d="M44.7405 31.7542H44.8887H45.331L47.0536 31.776L53.3583 31.8698H53.3981V31.9047C53.4573 32.1464 53.5741 32.3707 53.7386 32.5591C53.8238 32.6549 53.9306 32.7296 54.0505 32.777C54.1704 32.8244 54.2999 32.8431 54.4286 32.8318C54.7007 32.8123 54.9559 32.6942 55.1451 32.5002C55.3385 32.296 55.4749 32.0457 55.5409 31.7738V31.7411H55.5719L64.0636 30.1006L64.1609 30.0831L64.1299 30.1748C63.9198 30.7703 63.6987 31.4008 63.4665 32.0399C63.263 32.6158 63.064 33.1852 62.865 33.748V33.7764H62.8384L58.0508 35.3209L46.1824 35.2969H46.1602V35.2773C45.3332 33.279 44.8334 32.0727 44.7693 31.8741C44.7516 31.752 44.7516 31.7411 44.7516 31.7411C44.7516 31.7411 44.7516 31.7563 44.7781 31.872C44.871 32.0618 45.3818 33.2616 46.2244 35.2533L46.1956 35.2336L58.0641 35.2118H58.042L62.8274 33.6608L62.792 33.6957C62.9888 33.1329 63.1901 32.5635 63.3913 31.9876L64.0547 30.1224L64.1188 30.1966L55.6095 31.8392L55.6493 31.8C55.5791 32.0904 55.4326 32.3575 55.2247 32.5744C55.018 32.7844 54.74 32.9118 54.4441 32.9322C54.2994 32.9458 54.1536 32.9241 54.0195 32.8689C53.8887 32.8138 53.7717 32.7312 53.6767 32.6268C53.5021 32.4251 53.3792 32.1849 53.3185 31.9265L53.3627 31.9614L47.089 31.8174L45.3553 31.7738L44.8998 31.7607L44.7405 31.7542Z" fill="#263238"/>
<path d="M53.6037 34.4157C53.4706 33.9981 53.3853 33.5671 53.3494 33.1308C53.2761 32.6985 53.2516 32.2595 53.2764 31.8219C53.3666 32.2488 53.4294 32.6808 53.4644 33.1155C53.5378 33.5457 53.5844 33.9799 53.6037 34.4157V34.4157Z" fill="#263238"/>
<path d="M55.6824 34.446C55.6493 34.446 55.6493 33.857 55.6161 33.1371C55.5775 32.7019 55.5613 32.2651 55.5674 31.8282C55.7462 32.6893 55.785 33.573 55.6824 34.446V34.446Z" fill="#263238"/>
<g opacity="0.3">
<path opacity="0.3" d="M52.2106 34.9283C51.9493 34.7886 51.7227 34.5934 51.5472 34.3568C51.5186 34.3111 51.5001 34.26 51.493 34.2068C51.4858 34.1536 51.49 34.0995 51.5055 34.048C51.5209 33.9966 51.5472 33.9489 51.5826 33.9081C51.6179 33.8674 51.6616 33.8344 51.7108 33.8114C51.8326 33.79 51.9581 33.81 52.0668 33.8681C52.3742 33.9903 52.6772 34.1256 52.9757 34.2674C52.8187 34.0492 52.6617 33.7503 52.8276 33.5387C52.9934 33.3271 53.3207 33.4013 53.5684 33.4973C54.1345 33.7154 54.6873 33.9663 55.2667 34.1386C55.845 34.3301 56.4609 34.3847 57.0645 34.2979C57.2948 34.2685 57.5126 34.178 57.6948 34.0361C57.8347 33.8881 57.9613 33.7282 58.0729 33.5584C58.315 33.2525 58.6548 33.0365 59.0371 32.9454C59.0844 32.9283 59.1349 32.9213 59.1852 32.9247C59.2354 32.928 59.2844 32.9418 59.329 32.965C59.4705 33.0632 59.4307 33.2748 59.402 33.4427C59.3548 33.713 59.3735 33.9905 59.4565 34.2523C59.5396 34.514 59.6846 34.7525 59.8796 34.948L58.4555 35.3101L52.2106 34.9283Z" fill="black"/>
</g>
<path d="M60.2069 34.767C60.1685 34.5293 60.0645 34.3066 59.9061 34.1235C59.6673 33.8879 59.5214 33.8268 59.4904 33.6413C59.4594 33.4559 59.6872 33.2836 59.6872 33.0894C59.6872 32.8953 59.3467 32.6902 58.9309 32.8953C58.771 32.9925 58.6344 33.1229 58.5306 33.2773C58.4267 33.4317 58.3581 33.6065 58.3294 33.7897C58.2985 33.9795 58.4754 34.3176 58.3294 34.5009C58.1835 34.6841 57.4205 34.5838 57.4205 34.5838L54.946 34.4158C54.946 34.4158 53.4113 33.0174 52.4582 33.5192L53.0796 34.2653C53.0796 34.2653 51.9739 33.6108 51.4941 33.9489L51.4211 34.1016L54.2185 35.9734L55.9212 36.5798L59.8774 37.0445C59.8774 37.0445 60.5718 36.6584 60.5718 35.993C60.5671 35.5837 60.4576 35.1822 60.2533 34.8259" fill="#FFBE9D"/>
<path d="M56.3392 35.7702C56.109 35.7772 55.8787 35.7619 55.6515 35.7244C55.4029 35.6961 55.1563 35.6531 54.9129 35.5957C54.7664 35.5634 54.624 35.5152 54.4883 35.4517C54.345 35.3788 54.2081 35.2942 54.0792 35.1987C53.6396 34.8625 53.2364 34.4824 52.8762 34.0643C52.7173 33.8995 52.5792 33.7164 52.4649 33.5189C52.6302 33.6746 52.7874 33.8384 52.9359 34.0098C53.3089 34.4054 53.7142 34.7702 54.1478 35.1005C54.2713 35.1918 54.4014 35.2742 54.537 35.347C54.6665 35.4061 54.8012 35.4536 54.9394 35.4888C55.207 35.5608 55.4569 35.6022 55.6648 35.6393C55.8923 35.6678 56.1177 35.7115 56.3392 35.7702V35.7702Z" fill="#263238"/>
<path d="M53.7851 19.0208C53.2978 19.0545 52.8082 19.0118 52.3344 18.8943C52.8217 18.8607 53.3113 18.9034 53.7851 19.0208Z" fill="#263238"/>
<path d="M63.4444 5.57636C63.5496 5.57872 63.654 5.55635 63.7487 5.51107C63.8434 5.4658 63.9259 5.39894 63.9893 5.31601C64.0526 5.23308 64.0951 5.13647 64.1131 5.03415C64.1311 4.93183 64.1242 4.82676 64.0929 4.7276C64.0616 4.62844 64.0069 4.53805 63.9332 4.4639C63.8595 4.38975 63.769 4.33396 63.6691 4.30115C63.5692 4.26835 63.4628 4.25946 63.3588 4.27522C63.2547 4.29098 63.156 4.33095 63.0707 4.39181C63.2012 4.25905 63.2767 4.083 63.2824 3.89817C63.2881 3.71334 63.2237 3.53306 63.1016 3.39269C62.9737 3.25712 62.8181 3.14987 62.645 3.07804C62.4719 3.00622 62.2854 2.97144 62.0977 2.97602C61.5357 2.96099 60.9891 3.15763 60.5689 3.52598C60.1486 3.89433 59.8864 4.40673 59.8354 4.959L59.8509 4.84556C59.4374 5.4193 59.2251 5.78142 59.2892 6.48168C59.3113 6.72819 59.4197 7.02269 59.6696 7.04887C59.7534 7.04008 59.8379 7.04008 59.9217 7.04887C59.9919 7.07959 60.0523 7.12861 60.0964 7.19067C60.4436 7.60297 60.8482 8.01527 61.379 8.12653C61.9097 8.23779 62.5643 7.89529 62.5687 7.36083C62.6679 7.48785 62.813 7.57215 62.9737 7.59614C63.1344 7.62012 63.2983 7.58193 63.4311 7.48953C63.6905 7.29347 63.8607 7.00405 63.9044 6.68456C63.9906 6.24826 63.8756 5.69198 63.4444 5.57636Z" fill="#E0E0E0"/>
<path d="M59.59 8.71979C59.6077 8.42995 59.6619 8.14342 59.7515 7.86683C59.842 7.58995 59.8595 7.2949 59.8023 7.0095C59.7698 6.86906 59.6946 6.74177 59.5867 6.64469C59.4788 6.54761 59.3434 6.48537 59.1986 6.46631L57.5622 12.3083C58.3008 12.16 59.924 10.8642 59.8753 10.1269C59.8443 9.64038 59.59 9.19536 59.59 8.71979Z" fill="#E0E0E0"/>
<path d="M58.5506 13.1157L58.4997 5.95383C58.6258 3.33603 57.184 1.07164 54.5192 1.01929H54.2738C53.0783 1.06427 51.9438 1.55159 51.096 2.38429C50.2482 3.21699 49.7492 4.33404 49.6984 5.51316C49.6011 7.78846 49.5237 10.3125 49.5857 11.5188C49.7161 14.0363 52.2857 14.3308 52.2857 14.3308V15.4368L53.376 15.8273L58.5506 13.1157Z" fill="#FFBE9D"/>
<path d="M52.2925 14.3393C53.4724 14.316 54.6186 13.947 55.5852 13.2791C55.5852 13.2791 54.8687 15.1224 52.3124 14.9915L52.2925 14.3393Z" fill="#EB996E"/>
<path d="M50.3464 7.45029C50.3488 7.54403 50.3883 7.63313 50.4565 7.69841C50.5248 7.76369 50.6163 7.79993 50.7113 7.79933C50.7578 7.80138 50.8043 7.79418 50.8479 7.77816C50.8915 7.76215 50.9315 7.73764 50.9653 7.70609C50.9991 7.67454 51.0262 7.63661 51.0449 7.59454C51.0635 7.55246 51.0734 7.50712 51.074 7.4612C51.0717 7.36745 51.0321 7.27835 50.9639 7.21308C50.8956 7.1478 50.8042 7.11156 50.7091 7.11216C50.6626 7.11011 50.6161 7.11731 50.5725 7.13332C50.5289 7.14934 50.489 7.17385 50.4551 7.2054C50.4213 7.23694 50.3942 7.27488 50.3756 7.31695C50.3569 7.35902 50.347 7.40437 50.3464 7.45029V7.45029Z" fill="#263238"/>
<path d="M50.2115 6.39859C50.2579 6.44221 50.5277 6.23061 50.9191 6.21752C51.3105 6.20443 51.6069 6.3855 51.6489 6.3375C51.6909 6.28951 51.6179 6.23279 51.4896 6.14771C51.3154 6.03717 51.1106 5.98303 50.9036 5.99283C50.6999 5.99955 50.5038 6.07068 50.3442 6.19571C50.2269 6.29169 50.1894 6.37677 50.2115 6.39859Z" fill="#263238"/>
<path d="M53.9309 7.55713C53.9338 7.65069 53.9735 7.73947 54.0416 7.80463C54.1097 7.86979 54.2009 7.90621 54.2958 7.90617C54.3432 7.90827 54.3906 7.90075 54.435 7.88406C54.4794 7.86738 54.5198 7.84189 54.5538 7.80917C54.5878 7.77646 54.6146 7.73721 54.6326 7.69386C54.6506 7.65051 54.6594 7.60397 54.6585 7.55713C54.6561 7.46319 54.6167 7.37386 54.5485 7.30823C54.4803 7.24261 54.3888 7.20588 54.2936 7.20591C54.2459 7.2038 54.1984 7.21139 54.1538 7.2282C54.1093 7.24502 54.0688 7.2707 54.0347 7.30366C54.0007 7.33661 53.9739 7.37612 53.9561 7.41973C53.9382 7.46334 53.9296 7.51011 53.9309 7.55713V7.55713Z" fill="#263238"/>
<path d="M54.161 6.34637C54.2008 6.39654 54.4927 6.21548 54.8841 6.24384C55.2755 6.2722 55.5475 6.4838 55.594 6.44017C55.6404 6.39654 55.5763 6.33328 55.4591 6.23511C55.2977 6.10644 55.1 6.03023 54.8929 6.01696C54.6898 6.00267 54.4872 6.0515 54.3136 6.15658C54.1875 6.2482 54.1389 6.32455 54.161 6.34637Z" fill="#263238"/>
<path d="M52.8452 9.58583C52.636 9.53008 52.4206 9.50004 52.2039 9.49639C52.1022 9.49639 52.0071 9.47239 51.9828 9.40695C51.9702 9.30481 51.9895 9.20132 52.038 9.11027C52.1243 8.86812 52.2127 8.61507 52.3056 8.34674C52.6749 7.256 52.9381 6.36813 52.8939 6.35286C52.8496 6.33759 52.5135 7.208 52.1442 8.29657C52.0557 8.56489 51.9717 8.82013 51.8899 9.06445C51.8323 9.18573 51.819 9.32292 51.8523 9.45276C51.8683 9.4871 51.8919 9.51746 51.9214 9.54162C51.9508 9.56578 51.9854 9.58313 52.0226 9.59238C52.0791 9.605 52.1371 9.61086 52.195 9.60983C52.4119 9.62817 52.6303 9.62011 52.8452 9.58583Z" fill="#263238"/>
<path d="M54.024 4.92173C54.0682 5.02426 54.4663 4.95882 54.9196 4.99808C55.3729 5.03735 55.7599 5.14424 55.8174 5.04826C55.8417 5.00026 55.7732 4.90428 55.6206 4.80829C55.4185 4.69067 55.1913 4.6212 54.9572 4.60542C54.7204 4.58568 54.4822 4.62234 54.2628 4.71231C54.0881 4.78648 54.0063 4.87156 54.024 4.92173Z" fill="#E0E0E0"/>
<path d="M50.2667 5.5718C50.3397 5.65688 50.6073 5.55653 50.9301 5.53908C51.253 5.52163 51.5316 5.57617 51.5936 5.48018C51.6201 5.43437 51.5737 5.34929 51.4498 5.26203C51.2847 5.168 51.0949 5.12463 50.9047 5.13746C50.7144 5.15028 50.5324 5.21871 50.3817 5.33402C50.2689 5.43873 50.2358 5.53035 50.2667 5.5718Z" fill="#E0E0E0"/>
<path d="M54.0106 9.80826C53.9464 9.80826 53.9619 10.2271 53.6081 10.5391C53.2543 10.851 52.801 10.8227 52.7987 10.8816C52.7965 10.9405 52.9049 10.9601 53.0951 10.9579C53.3447 10.9516 53.5842 10.8589 53.7717 10.6961C53.9518 10.5392 54.0628 10.3194 54.0813 10.0831C54.0902 9.90861 54.0393 9.80608 54.0106 9.80826Z" fill="#263238"/>
<path d="M59.9836 6.2241C59.9256 6.15994 59.8906 6.07865 59.8841 5.99286C59.9016 5.92707 59.9324 5.86547 59.9748 5.8118C60.0003 5.76042 60.0147 5.70441 60.0173 5.64727C60.0199 5.59012 60.0105 5.53307 59.9898 5.47966C59.969 5.42624 59.9374 5.37762 59.8967 5.3368C59.8561 5.29599 59.8074 5.26386 59.7537 5.24243C59.8817 5.03243 59.9358 4.78654 59.9074 4.54308C59.879 4.29961 59.7697 4.07226 59.5966 3.89645C59.5267 3.846 59.4749 3.77496 59.4485 3.69357C59.4466 3.61753 59.4649 3.54233 59.5016 3.47542C59.6807 3.00204 59.3291 2.50902 58.9974 2.12507C58.6015 1.66696 58.1725 1.18921 57.5909 1.00379C57.4461 0.969029 57.3048 0.921575 57.1686 0.861991C57.0533 0.789428 56.9465 0.704566 56.8501 0.608938C56.4969 0.310732 56.0682 0.112657 55.6099 0.035823C55.1515 -0.0410111 54.6806 0.00627434 54.2473 0.172639C54.1497 0.216971 54.0483 0.25274 53.9444 0.279532C53.8386 0.29849 53.7312 0.306533 53.6237 0.303528C52.956 0.318095 52.3049 0.511106 51.7396 0.861991C51.566 0.988944 51.3809 1.09994 51.1868 1.19358C51.0563 1.24375 50.8064 1.23284 50.6936 1.31792C50.6021 1.3833 50.5352 1.47691 50.5035 1.58397C50.4719 1.69102 50.4773 1.80543 50.5189 1.90911C49.7317 2.26469 49.672 2.7817 49.7383 3.43615C49.7649 3.70011 49.9175 3.99461 50.1806 4.02516C50.3411 4.03085 50.4983 3.97892 50.6229 3.879C50.8195 3.75 50.9992 3.5976 51.158 3.42524C51.2424 3.31529 51.3457 3.22079 51.4632 3.14601C51.5733 3.09549 51.6903 3.06095 51.8104 3.04348C52.3518 2.9231 52.8368 2.62744 53.1881 2.20361C53.2566 2.11853 53.3407 2.02254 53.4512 2.03127C53.4951 2.03979 53.5371 2.05605 53.5751 2.07926C53.8524 2.21802 54.1646 2.27456 54.4738 2.24204C54.7831 2.20952 55.0762 2.08934 55.3176 1.89602C55.4476 2.31824 55.7026 2.69251 56.0497 2.97081C56.3968 3.24912 56.8203 3.41876 57.2659 3.45797C57.372 3.45797 57.487 3.47542 57.5467 3.56486C57.5788 3.63344 57.5828 3.71162 57.5578 3.78301C57.3366 4.98719 57.4494 6.4008 57.5909 7.61808C57.717 8.70882 58.1991 9.41563 58.6458 9.4898L59.4971 8.01511L59.9129 7.29085C60.0379 7.14347 60.1122 6.96066 60.1249 6.76888C60.1376 6.5771 60.0882 6.3863 59.9836 6.2241V6.2241Z" fill="#E0E0E0"/>
<path d="M53.2832 0.308011C53.2832 0.297104 53.177 0.284015 53.0267 0.377819C52.9792 0.408756 52.9413 0.451997 52.9171 0.502795C52.8929 0.553593 52.8834 0.609984 52.8896 0.665775C52.8906 0.708548 52.9044 0.750076 52.9291 0.785191C52.9539 0.820306 52.9886 0.847458 53.0289 0.863268C53.0692 0.879078 53.1133 0.882847 53.1558 0.874108C53.1983 0.865369 53.2372 0.844507 53.2677 0.814117L53.1704 0.711586C53.102 0.769413 53.0437 0.837956 52.9979 0.914465C52.9206 1.03741 52.8808 1.17968 52.8832 1.32432C52.8855 1.46897 52.9299 1.6099 53.0112 1.73034C53.1372 1.91141 53.2721 1.94849 53.2788 1.94849C53.2854 1.94849 53.1881 1.85469 53.0996 1.68453C53.0242 1.54195 52.9993 1.37856 53.029 1.2204C53.0586 1.06225 53.1411 0.918446 53.2633 0.811936L53.166 0.709405C53.1527 0.718506 53.1368 0.723382 53.1206 0.723382C53.1044 0.723382 53.0886 0.718506 53.0753 0.709405C53.0584 0.703262 53.0435 0.692713 53.0322 0.678883C53.021 0.665053 53.0137 0.64846 53.0112 0.630872C53.0053 0.594394 53.0089 0.557044 53.0217 0.522323C53.0345 0.487602 53.056 0.456646 53.0842 0.432356C53.1903 0.358185 53.292 0.327645 53.2832 0.308011Z" fill="white"/>
<path d="M50.3994 1.96811C50.3994 1.95502 50.3242 1.98774 50.3264 2.09464C50.3267 2.12569 50.3333 2.15637 50.3458 2.18486C50.3583 2.21334 50.3766 2.23905 50.3994 2.26043C50.417 2.27855 50.4386 2.29248 50.4625 2.30115C50.4865 2.30982 50.5121 2.31302 50.5374 2.3105C50.5628 2.30798 50.5872 2.2998 50.6089 2.28659C50.6306 2.27338 50.6489 2.25549 50.6625 2.23425L50.5431 2.21026C50.5479 2.30124 50.5804 2.38869 50.6364 2.46111C50.6925 2.53352 50.7694 2.58752 50.8571 2.61601C50.938 2.64127 51.0242 2.64504 51.107 2.62692L51.0208 2.56148C51.0221 2.66662 51.0446 2.77045 51.0871 2.86688C51.124 2.94824 51.1891 3.01397 51.2707 3.05231C51.4166 3.11557 51.5073 3.05231 51.4918 3.03922C51.4763 3.02613 51.4056 3.03922 51.3105 2.97378C51.2526 2.92131 51.2086 2.8558 51.182 2.78286C51.1554 2.70992 51.1471 2.63171 51.1579 2.55493V2.47204L51.0716 2.48949C51.0144 2.50457 50.9542 2.50457 50.8969 2.48949C50.8378 2.46726 50.7859 2.42949 50.7469 2.38028C50.7079 2.33106 50.6834 2.27227 50.6758 2.21026L50.6316 1.84595L50.5564 2.18844C50.5564 2.20589 50.5055 2.21898 50.4746 2.18844C50.4408 2.16562 50.4164 2.13154 50.406 2.09246C50.3795 2.0161 50.4082 1.97684 50.3994 1.96811Z" fill="white"/>
<path d="M58.3625 7.82763C58.4067 7.80799 60.0984 7.24953 60.1095 8.97291C60.1206 10.6963 58.3625 10.3538 58.3603 10.3036C58.3581 10.2534 58.3625 7.82763 58.3625 7.82763Z" fill="#FFBE9D"/>
<path d="M58.8888 9.64671C58.8888 9.64671 58.9198 9.66853 58.9728 9.69034C59.044 9.71741 59.1228 9.71741 59.194 9.69034C59.3797 9.62054 59.5323 9.3304 59.539 9.02063C59.5439 8.87042 59.5136 8.72112 59.4505 8.58433C59.435 8.53142 59.4068 8.48298 59.3683 8.44311C59.3298 8.40323 59.2822 8.3731 59.2294 8.35527C59.1944 8.34672 59.1575 8.35029 59.1249 8.36538C59.0923 8.38048 59.0659 8.40618 59.0502 8.43817C59.0281 8.48616 59.0392 8.52107 59.0303 8.52543C59.0215 8.52979 58.9927 8.49489 59.006 8.42508C59.0147 8.38228 59.0382 8.34375 59.0724 8.316C59.0958 8.29753 59.1227 8.28394 59.1516 8.27607C59.1805 8.26819 59.2107 8.26619 59.2404 8.27019C59.3125 8.28381 59.3798 8.31542 59.4359 8.36202C59.4921 8.40861 59.5351 8.46863 59.5611 8.53633C59.637 8.68497 59.6742 8.8499 59.6694 9.01626C59.6694 9.36312 59.4837 9.69034 59.2271 9.76452C59.1803 9.7776 59.1311 9.78047 59.083 9.77293C59.0349 9.7654 58.989 9.74764 58.9485 9.72088C58.8932 9.68816 58.8844 9.65108 58.8888 9.64671Z" fill="#EB996E"/>
<path d="M59.9171 4.59011C59.9392 4.57266 60.0609 4.67083 60.1913 4.88461C60.3557 5.16701 60.4518 5.48302 60.4721 5.80804C60.4925 6.13306 60.4365 6.45833 60.3085 6.75852C60.2046 6.97666 60.0874 7.09665 60.0719 7.08356C60.01 7.05302 60.2931 6.52291 60.2422 5.82047C60.1913 5.11803 59.8596 4.6272 59.9171 4.59011Z" fill="#2354D7"/>
<path d="M54.7956 10.0441C54.7625 10.0441 54.7205 9.87608 54.5856 9.7212C54.4507 9.56631 54.2892 9.50305 54.3003 9.4616C54.3113 9.42015 54.5214 9.4616 54.674 9.64703C54.8266 9.83245 54.8266 10.0462 54.7956 10.0441Z" fill="#EB996E"/>
<path d="M56.4941 6.90256C56.5162 6.92219 56.3879 7.08799 56.1447 7.15561C55.9014 7.22324 55.7024 7.15561 55.7157 7.11853C55.7289 7.08144 55.9058 7.10544 56.1137 7.04436C56.3216 6.98327 56.4786 6.88511 56.4941 6.90256Z" fill="#EB996E"/>
<path d="M56.6112 7.45679C56.5913 7.48297 56.4497 7.41534 56.264 7.37171C56.0782 7.32808 55.9212 7.31935 55.919 7.28881C55.9168 7.25827 56.0849 7.21028 56.2927 7.26045C56.5006 7.31063 56.6289 7.43279 56.6112 7.45679Z" fill="#EB996E"/>
<path d="M50.0944 7.43274C50.0944 7.43274 50.1098 7.43274 50.0944 7.4611C50.0789 7.48946 50.0634 7.49382 50.0435 7.49819C49.9945 7.50675 49.9441 7.50223 49.8975 7.4851C49.7958 7.45456 49.7295 7.39784 49.7405 7.36948C49.7516 7.34112 49.8378 7.34767 49.9307 7.36948C49.9682 7.38063 50.0052 7.39373 50.0413 7.40875L50.0612 7.42402C50.0612 7.42402 50.0811 7.43056 50.0944 7.43274Z" fill="#EB996E"/>
<path d="M58.9486 2.12094C58.8162 2.25475 58.6584 2.36149 58.4842 2.43508C58.0661 2.63589 57.603 2.72825 57.1387 2.70344C56.6744 2.67863 56.2242 2.53746 55.8305 2.29328C55.6592 2.20326 55.5086 2.07922 55.3882 1.92897C55.3993 1.9137 55.5607 2.05768 55.8615 2.22347C56.2522 2.43796 56.6867 2.56321 57.133 2.58996C57.5797 2.61374 58.0261 2.53923 58.44 2.37182C58.7606 2.23002 58.9375 2.10349 58.9486 2.12094Z" fill="#263238"/>
<path d="M59.5434 3.08066C59.3899 3.22164 59.2154 3.33861 59.026 3.42752C58.8266 3.54072 58.61 3.62173 58.3847 3.66748C58.1055 3.71859 57.8191 3.71859 57.5399 3.66748C57.0418 3.5605 56.5727 3.34923 56.1645 3.04794C55.9863 2.93938 55.8241 2.80726 55.6824 2.65527C55.8637 2.75485 56.0394 2.86408 56.2087 2.9825C56.6203 3.25411 57.079 3.4486 57.562 3.55623C57.8266 3.60785 58.0984 3.61302 58.3648 3.5715C58.5832 3.52994 58.7942 3.45641 58.9906 3.35335C59.3334 3.1941 59.5346 3.06539 59.5434 3.08066Z" fill="#263238"/>
<path d="M63.4953 7.2931C63.4923 7.14156 63.4553 6.99255 63.3869 6.8568C63.3088 6.71804 63.1811 6.61302 63.0287 6.5623C62.935 6.53142 62.8356 6.52109 62.7374 6.53201C62.6393 6.54294 62.5447 6.57487 62.4603 6.62557L62.3719 6.6801V6.57757C62.3714 6.46968 62.3408 6.36401 62.2834 6.27216C62.2168 6.17359 62.1312 6.08894 62.0314 6.02306C61.9316 5.95718 61.8196 5.91136 61.7018 5.88822C61.5024 5.85056 61.2976 5.85056 61.0981 5.88822C60.9131 5.9382 60.7256 5.97898 60.5364 6.01038C60.7061 5.91605 60.8896 5.84834 61.0804 5.80969C61.2893 5.75356 61.5079 5.74167 61.7217 5.77478C61.8567 5.79871 61.9853 5.84979 62.0994 5.92485C62.2136 5.99991 62.3108 6.09734 62.3851 6.21108C62.453 6.32152 62.4882 6.44845 62.4869 6.57757L62.4006 6.52958C62.4993 6.47056 62.6103 6.4344 62.7252 6.42382C62.8401 6.41324 62.956 6.42852 63.064 6.4685C63.2364 6.53116 63.377 6.65806 63.4555 6.8219C63.4981 6.89223 63.5239 6.97126 63.5308 7.05294C63.5377 7.13462 63.5255 7.21678 63.4953 7.2931V7.2931Z" fill="#263238"/>
<g opacity="0.3">
<path opacity="0.3" d="M47.361 30.6809L48.533 22.256C47.1705 24.8473 46.7565 27.8233 47.361 30.6809V30.6809Z" fill="black"/>
</g>
<g opacity="0.3">
<path opacity="0.3" d="M68.3736 31.1913C67.8904 30.9706 67.3521 30.8947 66.8256 30.9732C66.0759 31.0539 65.229 31.2764 64.8685 31.8458C65.4015 31.5295 66.2285 31.307 66.8765 31.4967C67.5244 31.6865 68.0595 32.1294 68.5505 32.5875C68.7075 32.7358 68.9485 32.8951 69.1188 32.762C69.1616 32.72 69.194 32.6688 69.2136 32.6125C69.2332 32.5561 69.2393 32.4961 69.2316 32.437C69.2112 32.1735 69.1212 31.92 68.9707 31.7014C68.8202 31.4829 68.6143 31.3071 68.3736 31.1913V31.1913Z" fill="black"/>
</g>
</svg>
