<svg width="70" height="92" viewBox="0 0 70 92" fill="none" xmlns="http://www.w3.org/2000/svg">
<path d="M65.4258 57.5916H63.785V91.5116H65.4258V57.5916Z" fill="#4E4E4E"/>
<path d="M41.5873 57.5916H39.9464V91.5116H41.5873V57.5916Z" fill="#263238"/>
<path d="M67.1022 53.8267H17.7774V75.382H67.1022V53.8267Z" fill="#767676"/>
<path d="M16.1341 54.7056H1.18744V75.3818H16.1341V54.7056Z" fill="#767676"/>
<path d="M69.0215 52.9082H0.165833V56.5055H69.0215V52.9082Z" fill="#455A64"/>
<path d="M68.2121 56.2697C68.2121 56.3155 52.9404 56.3526 34.1083 56.3526C15.2762 56.3526 0 56.3155 0 56.2697C0 56.2238 15.2585 56.1868 34.1083 56.1868C52.958 56.1868 68.2121 56.2238 68.2121 56.2697Z" fill="#263238"/>
<path d="M17.7751 56.2698H16.1342V91.514H17.7751V56.2698Z" fill="#4E4E4E"/>
<path d="M2.74661 56.2698H1.10577V91.514H2.74661V56.2698Z" fill="#4E4E4E"/>
<path d="M52.7545 82.0747L53.7452 87.3102C53.7452 87.3102 48.6944 90.0567 48.7806 91.0406L59.1188 89.5135L57.9158 81.2915L52.7545 82.0747Z" fill="#2A2A2A"/>
<path d="M56.8855 86.3855C56.9904 86.4006 57.0858 86.4536 57.1533 86.5342C57.2207 86.6149 57.2553 86.7174 57.2504 86.8218C57.2381 86.9266 57.1852 87.0226 57.1027 87.0897C57.0203 87.1568 56.9147 87.1898 56.8081 87.1817C56.6971 87.1671 56.5959 87.1114 56.5249 87.026C56.4539 86.9405 56.4184 86.8317 56.4255 86.7215C56.448 86.6151 56.5116 86.5216 56.6029 86.4609C56.6942 86.4002 56.8059 86.3771 56.9142 86.3964" fill="#E0E0E0"/>
<path d="M59.1189 89.5004L58.9663 88.678L49.1102 90.4537C49.1102 90.4537 48.6812 90.7199 48.7807 91.0318L59.1189 89.5004Z" fill="#263238"/>
<path d="M53.5682 87.2709C53.5682 87.321 53.8314 87.3058 54.1056 87.4301C54.3798 87.5545 54.5479 87.7421 54.5855 87.7159C54.623 87.6897 54.5103 87.4127 54.1763 87.2687C53.8424 87.1247 53.5505 87.2272 53.5682 87.2709Z" fill="#ABABAB"/>
<path d="M52.5533 87.8753C52.5533 87.9254 52.7745 87.9778 52.9823 88.1632C53.1902 88.3486 53.2698 88.5624 53.3207 88.5537C53.3715 88.545 53.3583 88.257 53.0995 88.0323C52.8408 87.8076 52.5467 87.836 52.5533 87.8753Z" fill="#ABABAB"/>
<path d="M52.1308 89.245C52.1795 89.245 52.2105 88.9898 52.0402 88.7368C51.8699 88.4837 51.6156 88.4095 51.5979 88.4532C51.5802 88.4968 51.7505 88.6233 51.8876 88.8327C52.0247 89.0422 52.08 89.2472 52.1308 89.245Z" fill="#ABABAB"/>
<path d="M53.4776 86.0559C53.5064 86.0995 53.7275 85.9948 54.015 85.973C54.3025 85.9512 54.5391 86.0057 54.559 85.9577C54.5789 85.9097 54.3379 85.7658 53.9995 85.7985C53.6612 85.8312 53.4467 86.021 53.4776 86.0559Z" fill="#263238"/>
<path d="M56.1312 83.3247L56.2263 88.6388C56.2263 88.6388 50.7819 90.5193 50.6979 91.5031L61.1511 91.6907L61.3457 83.4011L56.1312 83.3247Z" fill="#2B2B2B"/>
<path d="M59.466 88.2504C59.5659 88.2821 59.6504 88.3491 59.7035 88.4384C59.7565 88.5277 59.7743 88.6332 59.7535 88.7347C59.7244 88.8344 59.658 88.9195 59.5676 88.9726C59.4772 89.0257 59.3697 89.0428 59.267 89.0205C59.1597 88.988 59.069 88.9165 59.0131 88.8205C58.9573 88.7245 58.9405 88.6112 58.9662 88.5035C59.0073 88.4024 59.0864 88.321 59.187 88.2762C59.2876 88.2315 59.4019 88.2269 59.5058 88.2635" fill="#E0E0E0"/>
<path d="M61.1555 91.6907L61.1422 90.8552L51.1247 90.9861C51.1247 90.9861 50.6559 91.1781 50.7023 91.5031L61.1555 91.6907Z" fill="#263238"/>
<path d="M56.0583 88.5819C56.0583 88.632 56.3126 88.6604 56.5603 88.8262C56.808 88.992 56.9385 89.208 56.9871 89.1883C57.0358 89.1687 56.9628 88.8764 56.6598 88.68C56.3569 88.4837 56.0473 88.5361 56.0583 88.5819Z" fill="#ABABAB"/>
<path d="M54.9527 89.0095C54.9416 89.0597 55.1605 89.1491 55.3286 89.3651C55.4967 89.5811 55.5498 89.8014 55.5962 89.8014C55.6426 89.8014 55.6846 89.5156 55.4679 89.2517C55.2512 88.9877 54.9549 88.9615 54.9527 89.0095Z" fill="#ABABAB"/>
<path d="M54.3069 90.2925C54.3533 90.3056 54.4285 90.0547 54.3069 89.7776C54.1853 89.5006 53.9443 89.385 53.9221 89.4264C53.9 89.4679 54.0438 89.6184 54.1433 89.8474C54.2428 90.0765 54.2561 90.2881 54.3069 90.2925Z" fill="#ABABAB"/>
<path d="M56.1712 87.3691C56.1933 87.4149 56.4277 87.3495 56.7152 87.3691C57.0026 87.3887 57.2282 87.4869 57.2547 87.4433C57.2813 87.3996 57.069 87.2251 56.7306 87.1924C56.3923 87.1597 56.1468 87.3298 56.1712 87.3691Z" fill="#263238"/>
<path d="M63.5042 42.0615L63.3649 47.3189L61.7904 63.6409C61.7904 63.6409 62.2924 71.5924 62.6108 76.0754C62.8872 79.9824 62.0889 86.7451 62.0889 86.7451L55.4371 86.5727L53.6547 63.9266L52.5491 49.8036L50.362 42.6047L63.5042 42.0615Z" fill="#5A5A5A"/>
<path d="M47.0425 42.9803L46.6445 64.6032C46.6231 65.6915 46.803 66.7745 47.1752 67.7991L52.8916 83.5059L53.1724 84.5421L57.1706 83.6913L54.4042 42.4436L47.0292 42.7425L47.0425 42.9803Z" fill="#5A5A5A"/>
<path d="M52.6394 47.0291C52.6361 47.0631 52.6361 47.0975 52.6394 47.1316C52.6394 47.2058 52.6394 47.3039 52.6394 47.4326C52.6394 47.7031 52.6394 48.0871 52.6394 48.5888C52.6394 49.5923 52.6682 51.0452 52.7168 52.8384C52.823 56.4269 53.0662 61.3833 53.5063 66.8392C53.9464 72.2951 54.4417 77.2296 54.8132 80.8008C55.0012 82.5787 55.1538 84.0185 55.2555 85.0241C55.3086 85.515 55.3528 85.8967 55.3815 86.1716C55.397 86.2959 55.4103 86.3897 55.4191 86.4683C55.4215 86.5021 55.4267 86.5356 55.4346 86.5686C55.4385 86.5346 55.4385 86.5002 55.4346 86.4661C55.4346 86.3941 55.4213 86.2938 55.4125 86.1672C55.386 85.8967 55.3528 85.5128 55.3063 85.0176C55.209 84.0119 55.0697 82.5699 54.8972 80.7898C54.5501 77.2209 54.0591 72.282 53.6279 66.8283C53.1967 61.3746 52.9313 56.4226 52.8031 52.8362C52.7434 51.043 52.6991 49.5901 52.6859 48.5866C52.6748 48.0914 52.666 47.7031 52.6593 47.4304C52.6593 47.3039 52.6593 47.2123 52.6483 47.1316C52.6482 47.0972 52.6453 47.0629 52.6394 47.0291V47.0291Z" fill="#455A64"/>
<path d="M52.29 44.2453C52.2879 44.3122 52.3059 44.3783 52.3418 44.4351C52.3777 44.4919 52.43 44.5369 52.4919 44.5644C52.5537 44.5919 52.6225 44.6007 52.6894 44.5896C52.7564 44.5785 52.8185 44.548 52.8678 44.5021C52.9172 44.4561 52.9516 44.3967 52.9668 44.3315C52.9819 44.2662 52.977 44.198 52.9528 44.1354C52.9286 44.0729 52.8861 44.0188 52.8307 43.9801C52.7753 43.9414 52.7095 43.9198 52.6416 43.9181C52.5511 43.9157 52.4633 43.9488 52.3974 44.0101C52.3315 44.0715 52.2929 44.156 52.29 44.2453V44.2453Z" fill="#455A64"/>
<path d="M46.8944 46.7692C47.0745 46.653 47.2362 46.5112 47.3742 46.3482C47.7261 45.9693 48.0196 45.5416 48.2455 45.0786C48.4709 44.615 48.6251 44.1209 48.7033 43.6126C48.7464 43.4045 48.7568 43.1912 48.7342 42.98C48.7143 42.98 48.6944 43.2199 48.617 43.5973C48.514 44.091 48.3514 44.5707 48.1327 45.0262C47.9108 45.4794 47.6338 45.9043 47.3079 46.2915C47.058 46.5882 46.8789 46.754 46.8944 46.7692Z" fill="#455A64"/>
<path d="M58.4444 43.41C58.4394 43.4913 58.4468 43.5729 58.4665 43.6521C58.5035 43.8698 58.5605 44.0837 58.6368 44.2913C58.8883 44.9844 59.3206 45.5999 59.8902 46.0755C60.4597 46.5512 61.1464 46.8703 61.8809 47.0007C62.0997 47.0409 62.3217 47.0621 62.5443 47.064C62.6266 47.0685 62.7092 47.0619 62.7897 47.0443C62.7897 47.0203 62.4403 47.0334 61.8941 46.9156C61.183 46.7665 60.5206 46.4457 59.966 45.982C59.4114 45.5182 58.9821 44.9261 58.7164 44.2586C58.5129 43.7481 58.4665 43.4056 58.4444 43.41Z" fill="#455A64"/>
<path d="M47.0292 42.7424C47.0602 42.7424 47.0513 44.8192 47.0093 47.3803C46.9673 49.9414 46.9076 52.016 46.8766 52.016C46.8457 52.016 46.8523 49.9392 46.8943 47.3781C46.9363 44.817 46.9961 42.7403 47.0292 42.7424Z" fill="#455A64"/>
<path d="M63.3339 46.824C63.3226 46.5839 63.3278 46.3434 63.3493 46.1041C63.3715 45.6678 63.398 45.0439 63.4135 44.3589C63.4289 43.6739 63.4289 43.0674 63.4289 42.6137C63.4167 42.3729 63.4226 42.1315 63.4466 41.8916C63.4874 42.1295 63.5088 42.3702 63.5108 42.6115C63.5307 43.0478 63.5439 43.6739 63.5285 44.3567C63.513 45.0395 63.4732 45.6525 63.4312 46.1019C63.422 46.3451 63.3895 46.5869 63.3339 46.824V46.824Z" fill="#455A64"/>
<path d="M32.118 13.72L31.6757 13.1462C31.6757 13.1462 31.4545 12.6772 31.5541 12.4656C31.6536 12.254 31.9963 12.3783 31.9963 12.3783L33.7256 14.3002L33.1219 14.7911L32.1865 13.7876" fill="white"/>
<path d="M41.7817 21.1194L38.29 18.3161C38.29 18.3161 38.0865 17.7926 37.7548 17.6617C37.5785 17.5668 37.4268 17.433 37.3117 17.2706C37.1966 17.1082 37.1212 16.9218 37.0914 16.7258L36.5563 14.9021C36.543 14.708 36.0676 13.6696 35.8929 13.5714L35.4174 13.4841C35.4174 13.4841 35.2604 12.701 34.8977 12.6115C34.5351 12.5221 33.4139 12.5635 33.4139 12.5635L32.3392 13.0784C32.4162 13.2082 32.5246 13.3174 32.6545 13.3961C32.7845 13.4749 32.9321 13.5208 33.0844 13.5299C33.4092 13.5216 33.7322 13.4807 34.0486 13.4078L34.3316 14.2586C34.3316 14.2586 34.4134 14.8912 34.3051 15.153C34.2526 15.297 34.1626 15.4249 34.0441 15.5238C33.7714 15.1737 33.5174 14.8096 33.2834 14.4331C33.0623 14.0361 32.4409 13.543 32.2021 13.7786C31.9632 14.0142 32.4497 14.4898 32.5161 14.9305L32.5913 15.4977C32.5913 15.4977 33.0004 16.1979 33.0335 16.3201C33.0667 16.4422 33.3586 17.1927 33.6682 17.4479L35.0481 18.615L36.3506 20.1421C36.7398 20.5893 40.3775 24.5945 40.3775 24.5945L42.1931 22.0421L41.7817 21.1194Z" fill="#CBCBCB"/>
<path d="M38.4159 18.1481C38.4557 18.2856 39.4906 19.18 39.4906 19.18C39.4906 19.18 42.1045 21.1542 42.6838 21.8436C43.2632 22.5329 45.6183 23.7764 45.6183 23.7764L47.8739 19.3065L51.3569 17.1141C52.1353 16.344 54.3466 17.7685 54.3466 17.7685L47.8784 32.714L43.0974 30.9513L36.848 22.1337L35.8352 19.7341L38.4159 18.1481Z" fill="#DCDCDC"/>
<path d="M58.1702 13.0698L59.0902 14.3547C59.0902 14.3547 64.9282 17.2605 65.1759 17.651C65.4235 18.0414 63.6412 31.7892 63.6412 31.7892L64.3555 40.1422L63.5041 42.3891L46.9519 43.3053C46.6932 43.205 46.0674 42.6509 46.0121 41.7041C45.9767 40.9755 46.5671 40.2207 46.5627 39.7408C46.5229 36.3551 46.8922 28.5802 47.4473 25.7116C48.1881 21.9027 49.8798 18.1418 49.8798 18.1418L51.3636 17.1165L51.6599 15.4847L58.1702 13.0698Z" fill="#DCDCDC"/>
<g opacity="0.3">
<path opacity="0.3" d="M63.9729 38.1613C63.734 38.0157 63.4634 37.9282 63.1834 37.9061C60.1074 37.3782 57.5577 35.2142 54.5392 34.4157C53.9206 34.2194 53.2617 34.1811 52.6241 34.3045C51.6069 34.5575 50.855 35.4607 50.5233 36.438C50.1916 37.4153 50.1075 38.5846 50.1075 39.588C50.9567 39.5139 51.8324 38.8114 52.2194 38.061C52.3764 37.7556 52.4848 37.4066 52.7745 37.2059C53.0642 37.0052 53.4379 37.0466 53.7873 37.0881L56.1269 37.3695C56.711 37.4213 57.2887 37.5286 57.8518 37.6901C58.4555 37.8843 59.0083 38.2006 59.5921 38.4493C60.8675 38.9907 62.2631 39.1974 63.6434 39.0492C63.8138 39.049 63.9785 38.9886 64.1078 38.8791C64.298 38.6827 64.194 38.3315 63.9729 38.1613Z" fill="black"/>
</g>
<g opacity="0.3">
<path opacity="0.3" d="M52.6351 19.2258C52.3455 20.0984 52.2791 21.0343 52.215 21.9548C51.9938 25.0351 51.9032 27.8558 51.6887 30.9361C51.7285 30.851 51.6489 31.0233 51.6887 30.9361L52.7258 30.803C52.6957 26.1772 53.2198 21.5641 54.287 17.0596C53.471 17.5177 52.927 18.3488 52.6351 19.2258Z" fill="black"/>
</g>
<path d="M51.8147 18.8572C51.8147 18.8572 50.2159 22.2538 49.747 23.6914C49.2782 25.129 48.9554 30.6721 48.9554 30.6721L48.6613 37.7882L50.1075 39.5835L51.5095 38.3946L53.2078 19.0164L51.8147 18.8572Z" fill="#878787"/>
<path d="M51.5095 38.4057C51.4785 38.4057 51.7306 34.0689 52.0888 28.722C52.4471 23.3752 52.7523 19.0427 52.7832 19.0427C52.8142 19.0427 52.5621 23.3817 52.2038 28.7286C51.8456 34.0754 51.5404 38.4078 51.5095 38.4057Z" fill="#263238"/>
<path d="M65.1759 17.6506C66.2593 18.3454 67.0299 19.425 67.3276 20.6655C67.8959 22.823 69.7734 31.2304 69.9503 32.5219C70.1272 33.8133 69.8176 35.576 69.2493 36.0581C68.681 36.5402 65.229 38.702 63.6987 38.702C62.1685 38.702 59.0969 37.7182 59.0969 37.7182L59.7603 34.3347L62.3454 33.7348L64.3555 31.7933L62.0822 26.874C62.0822 26.874 62.9822 18.0848 65.1759 17.6506Z" fill="#DCDCDC"/>
<path d="M68.1015 32.6705C68.086 32.6836 67.9489 32.4916 67.6592 32.2473C67.2876 31.9334 66.8469 31.7093 66.3722 31.5928C65.8962 31.4792 65.3979 31.4951 64.9304 31.6386C64.5699 31.7433 64.3598 31.8568 64.351 31.8371C64.3421 31.8175 64.3952 31.7957 64.4881 31.7433C64.6224 31.6723 64.7621 31.6117 64.906 31.5623C65.3855 31.3914 65.9054 31.3633 66.4009 31.4816C66.8941 31.6028 67.3468 31.8487 67.7145 32.1949C67.8251 32.2982 67.9258 32.4114 68.0152 32.533C68.0794 32.6138 68.1081 32.6661 68.1015 32.6705Z" fill="#263238"/>
<path d="M62.1086 38.2791C62.0909 38.266 62.2723 38.0609 62.4735 37.6923C62.7365 37.2043 62.8761 36.6608 62.8803 36.1082C62.8846 35.5555 62.7533 35.01 62.4978 34.5182C62.3032 34.1408 62.1241 33.9379 62.1418 33.927C62.1595 33.9161 62.1971 33.9663 62.2745 34.0579C62.385 34.1902 62.4834 34.3318 62.5686 34.4811C62.8519 34.978 62.9988 35.5394 62.9945 36.1095C62.9902 36.6796 62.835 37.2388 62.5443 37.7315C62.458 37.8797 62.3572 38.0193 62.2435 38.1482C62.1639 38.2398 62.113 38.2835 62.1086 38.2791Z" fill="#263238"/>
<path d="M52.6816 16.2481L51.3901 17.906L51.786 18.9269L53.1681 19.0884L54.391 17.1686L53.2079 16.1477L52.6816 16.2481Z" fill="#878787"/>
<path d="M67.3762 30.1509C67.3762 30.1727 67.1683 30.1509 66.841 30.1727C66.6506 30.1884 66.4624 30.2235 66.2793 30.2774C66.0565 30.3461 65.8416 30.4375 65.638 30.5501C65.2703 30.7638 64.945 31.0417 64.6783 31.3704C64.4726 31.6212 64.3731 31.8067 64.3554 31.7892C64.4126 31.6189 64.5002 31.46 64.6141 31.3202C64.87 30.9651 65.1994 30.6677 65.5805 30.4476C65.7896 30.3299 66.0123 30.2376 66.2439 30.1727C66.4353 30.1222 66.6319 30.0936 66.8299 30.0876C66.9631 30.0811 67.0966 30.0892 67.228 30.1116C67.2794 30.1156 67.3296 30.129 67.3762 30.1509Z" fill="#263238"/>
<path d="M64.5787 17.9431C64.5787 17.9627 64.3708 18.0369 64.0568 18.218C63.2355 18.6999 62.633 19.4746 62.374 20.382C62.2767 20.7289 62.2612 20.9536 62.2391 20.9514C62.23 20.8987 62.23 20.8449 62.2391 20.7921C62.244 20.6451 62.264 20.4989 62.2988 20.3558C62.4084 19.8866 62.6189 19.446 62.9161 19.064C63.2134 18.682 63.5903 18.3675 64.0214 18.1416C64.1507 18.0726 64.2861 18.0156 64.4261 17.9715C64.4752 17.9544 64.5267 17.9448 64.5787 17.9431Z" fill="#263238"/>
<path d="M58.8513 14.6033C58.7967 14.7042 58.7339 14.8005 58.6633 14.8912L58.1127 15.6504C57.6461 16.2896 56.9937 17.1774 56.2662 18.1307L56.0296 18.4449L55.9942 18.4929L55.9456 18.4536C55.0787 17.7446 54.3113 17.1076 53.7607 16.6451L53.126 16.0976C53.0456 16.0319 52.9715 15.9588 52.9049 15.8794C52.9947 15.9308 53.0791 15.9907 53.157 16.0583L53.8204 16.5797C54.3821 17.0269 55.1605 17.653 56.0318 18.362H55.9478L56.1844 18.0478C56.9119 17.0836 57.5753 16.2132 58.0596 15.5871L58.639 14.8498C58.7028 14.762 58.7738 14.6795 58.8513 14.6033Z" fill="#263238"/>
<path d="M60.9166 24.3242C60.9383 24.3555 60.9575 24.3883 60.9741 24.4224L61.1179 24.7082L61.6265 25.7705C62.0533 26.6693 62.6326 27.915 63.2673 29.2937C63.6808 30.199 64.07 31.0389 64.3995 31.7697L64.415 31.8002L64.3907 31.8242C63.8135 32.4328 63.285 32.8866 62.9312 33.2225L62.5221 33.613C62.4769 33.6632 62.4265 33.7085 62.3717 33.7483C62.4095 33.6935 62.4517 33.6417 62.4978 33.5934C62.5862 33.4952 62.7189 33.3556 62.8892 33.1811C63.2297 32.832 63.7538 32.3674 64.3177 31.7566V31.8111L63.1722 29.3417C62.5376 27.9629 61.967 26.7108 61.5623 25.8033L61.0869 24.7256L60.9631 24.4311C60.942 24.3981 60.9264 24.362 60.9166 24.3242V24.3242Z" fill="#263238"/>
<path d="M69.3952 35.8992C69.3704 35.9409 69.3399 35.9791 69.3046 36.0127C69.2681 36.0592 69.2266 36.1016 69.1807 36.1392C69.1277 36.185 69.0702 36.2439 68.9972 36.2963C68.5867 36.6076 68.1527 36.8876 67.6991 37.134C67.1308 37.4546 66.4408 37.8102 65.6624 38.1811C64.8195 38.6158 63.8717 38.8135 62.9225 38.7526C62.528 38.7264 62.1404 38.6373 61.7748 38.4887H61.7859L59.0482 37.7491L59.004 37.7382V37.6946C59.1941 36.7675 59.3534 35.993 59.4684 35.4368C59.5259 35.175 59.5701 34.9655 59.6055 34.8085C59.6193 34.7345 59.6385 34.6616 59.663 34.5903C59.6596 34.6637 59.65 34.7367 59.6342 34.8085C59.6055 34.9677 59.5679 35.1793 59.5236 35.4433C59.4175 36.0018 59.2715 36.7762 59.0991 37.7077L59.0637 37.6531L61.8058 38.3774C62.1581 38.5199 62.5315 38.6054 62.9115 38.6305C63.8453 38.699 64.7803 38.5149 65.616 38.0982C66.3966 37.7339 67.0888 37.3848 67.6593 37.0729C68.1132 36.835 68.5506 36.5676 68.9684 36.2723C69.118 36.1563 69.2605 36.0317 69.3952 35.8992V35.8992Z" fill="#263238"/>
<path d="M48.4555 20.7507C48.4571 20.7854 48.4526 20.8201 48.4422 20.8533C48.4268 20.9318 48.4069 21.0256 48.3847 21.1369C48.3273 21.403 48.2521 21.7564 48.1636 22.184C47.9779 23.0566 47.7213 24.2891 47.5245 25.6504C47.3277 27.0116 47.1862 28.2529 47.1176 29.1517C47.0822 29.6011 47.0557 29.9654 47.0424 30.2162C47.0424 30.3319 47.027 30.4344 47.0203 30.5064C47.0203 30.5411 47.0151 30.5757 47.0048 30.6089C46.9991 30.575 46.9991 30.5403 47.0048 30.5064V30.2162C47.0048 29.9632 47.0181 29.5967 47.0447 29.1451C47.0933 28.2442 47.2083 26.9985 47.4184 25.6329C47.6285 24.2673 47.8739 23.0457 48.0796 22.1731C48.1835 21.7368 48.2742 21.379 48.3405 21.1347L48.4201 20.8533C48.4268 20.8176 48.4387 20.783 48.4555 20.7507Z" fill="#263238"/>
<path d="M52.8916 15.886C52.7985 16.0684 52.689 16.2421 52.5644 16.4052C52.3432 16.7193 52.0491 17.1469 51.7108 17.6159L51.1867 18.3293L51.0474 18.5169L51.0938 18.2987C51.1624 17.9475 51.2243 17.6443 51.2707 17.4458C51.2868 17.3347 51.3173 17.2262 51.3614 17.1229C51.3672 17.2349 51.3576 17.3472 51.3326 17.4567C51.3039 17.6748 51.2552 17.965 51.1955 18.3162L51.1026 18.2769C51.2597 18.0588 51.4344 17.8144 51.6157 17.557C51.9562 17.0902 52.268 16.6691 52.5002 16.3681C52.6145 16.1952 52.7456 16.0337 52.8916 15.886V15.886Z" fill="#263238"/>
<path d="M53.6988 16.5908C53.7142 16.6148 53.2145 16.9922 52.6837 17.5529C52.153 18.1135 51.682 18.5433 51.6577 18.5149C51.7321 18.3993 51.8204 18.2931 51.9208 18.1986C52.0933 18.0132 52.3277 17.7623 52.5997 17.4743C52.8301 17.2336 53.0793 17.0112 53.3449 16.809C53.4491 16.7165 53.5689 16.6427 53.6988 16.5908Z" fill="#263238"/>
<path d="M45.0391 27.5766C45.0048 27.3888 44.993 27.1977 45.0037 27.0072C45.0064 26.5473 45.0411 26.0881 45.1076 25.6329C45.1732 25.1782 45.27 24.7285 45.3973 24.2869C45.4392 24.0997 45.5053 23.9186 45.5941 23.748C45.5687 23.9367 45.5295 24.1234 45.4769 24.3065C45.3973 24.6468 45.2978 25.1202 45.2204 25.6503C45.143 26.1804 45.1054 26.6603 45.0855 27.0094C45.0868 27.1994 45.0712 27.3892 45.0391 27.5766V27.5766Z" fill="#263238"/>
<path d="M45.6073 26.7543C45.5293 26.2609 45.5048 25.7607 45.5343 25.2622C45.5247 24.7629 45.5699 24.2641 45.6692 23.7744C45.7023 23.7744 45.6692 24.442 45.6493 25.2644C45.6294 26.0868 45.6493 26.7543 45.6073 26.7543Z" fill="#263238"/>
<path d="M39.933 19.4963C39.8027 19.646 39.6591 19.784 39.504 19.9086C39.1989 20.1791 38.8406 20.502 38.4315 20.862C38.0224 21.2219 37.6222 21.5579 37.3258 21.7891C37.1786 21.9232 37.0169 22.0409 36.8438 22.1403C36.9741 21.9906 37.1176 21.8526 37.2728 21.728L38.3453 20.7769C38.7677 20.406 39.1546 20.0788 39.451 19.8476C39.5992 19.7147 39.7607 19.597 39.933 19.4963V19.4963Z" fill="#263238"/>
<path d="M45.5677 30.6809C45.4372 30.7572 44.4819 31.2852 44.4354 31.7716L54.1389 33.4492L63.2808 30.382L61.4409 28.855C61.4409 28.855 53.6436 29.4963 53.7763 31.6429C53.7763 31.6429 53.4667 30.9536 52.0426 30.6722C50.6184 30.3908 45.5677 30.6809 45.5677 30.6809Z" fill="white"/>
<path d="M44.2474 31.7541L44.2695 31.885L45.6892 35.2794H57.5488L62.3364 33.7305L63.5903 30.1572L55.1163 31.789C55.1163 31.789 54.8952 32.8317 53.931 32.8797C53.0995 32.9277 52.8784 31.909 52.8784 31.909L44.2474 31.7541Z" fill="#878787"/>
<path d="M44.2474 31.7543H44.3955H44.8378L46.5605 31.7761L52.8651 31.8699H52.9049V31.9048C52.9642 32.1465 53.0809 32.3709 53.2455 32.5593C53.3306 32.6551 53.4374 32.7297 53.5573 32.7771C53.6772 32.8245 53.8068 32.8433 53.9354 32.8319C54.2075 32.8124 54.4627 32.6943 54.6519 32.5004C54.8454 32.2961 54.9818 32.0458 55.0477 31.7739V31.7412H55.0787L63.5704 30.1007L63.6677 30.0833L63.6367 30.1749C63.4266 30.7704 63.2055 31.4009 62.9733 32.0401C62.7699 32.616 62.5708 33.1853 62.3718 33.7482V33.7765H62.3453L57.5577 35.321L45.6892 35.297H45.6671V35.2774C44.84 33.2791 44.3403 32.0728 44.2761 31.8743C44.2584 31.7521 44.2584 31.7412 44.2584 31.7412C44.2584 31.7412 44.2584 31.7565 44.285 31.8721C44.3778 32.0619 44.8887 33.2617 45.7312 35.2534L45.7025 35.2338L57.5709 35.212H57.5488L62.3342 33.6609L62.2988 33.6958C62.4957 33.133 62.6969 32.5636 62.8981 31.9877L63.5615 30.1225L63.6257 30.1967L55.1163 31.8394L55.1561 31.8001C55.0859 32.0905 54.9395 32.3576 54.7315 32.5745C54.5248 32.7845 54.2469 32.9119 53.9509 32.9323C53.8063 32.9459 53.6604 32.9242 53.5263 32.869C53.3955 32.8139 53.2785 32.7313 53.1836 32.6269C53.0089 32.4252 52.8861 32.185 52.8253 31.9266L52.8695 31.9615L46.5959 31.8175L44.8621 31.7739L44.4066 31.7608L44.2474 31.7543Z" fill="#263238"/>
<path d="M53.1105 34.4158C52.9774 33.9982 52.8921 33.5672 52.8562 33.1309C52.7829 32.6986 52.7584 32.2596 52.7832 31.822C52.8734 32.2489 52.9362 32.681 52.9712 33.1156C53.0447 33.5458 53.0912 33.98 53.1105 34.4158V34.4158Z" fill="#263238"/>
<path d="M55.1893 34.4462C55.1561 34.4462 55.1561 33.8572 55.1229 33.1373C55.0843 32.7021 55.0681 32.2652 55.0743 31.8284C55.253 32.6894 55.2918 33.5731 55.1893 34.4462V34.4462Z" fill="#263238"/>
<g opacity="0.3">
<path opacity="0.3" d="M51.7174 34.9283C51.4561 34.7886 51.2295 34.5934 51.054 34.3568C51.0254 34.3111 51.007 34.26 50.9998 34.2068C50.9926 34.1536 50.9969 34.0995 51.0123 34.048C51.0278 33.9966 51.054 33.9489 51.0894 33.9081C51.1248 33.8674 51.1685 33.8344 51.2176 33.8114C51.3394 33.79 51.4649 33.81 51.5737 33.8681C51.8811 33.9903 52.184 34.1256 52.4826 34.2674C52.3255 34.0492 52.1685 33.7503 52.3344 33.5387C52.5002 33.3271 52.8275 33.4013 53.0752 33.4973C53.6413 33.7154 54.1942 33.9663 54.7735 34.1386C55.3519 34.3301 55.9677 34.3847 56.5714 34.2979C56.8016 34.2685 57.0194 34.178 57.2016 34.0361C57.3416 33.8881 57.4681 33.7282 57.5798 33.5584C57.8218 33.2525 58.1616 33.0365 58.5439 32.9454C58.5913 32.9283 58.6417 32.9213 58.692 32.9247C58.7423 32.928 58.7913 32.9418 58.8358 32.965C58.9774 33.0632 58.9376 33.2748 58.9088 33.4427C58.8616 33.713 58.8803 33.9905 58.9634 34.2523C59.0464 34.514 59.1915 34.7525 59.3865 34.948L57.9623 35.3101L51.7174 34.9283Z" fill="black"/>
</g>
<path d="M59.7137 34.767C59.6754 34.5293 59.5713 34.3066 59.413 34.1235C59.1741 33.8879 59.0282 33.8268 58.9972 33.6413C58.9663 33.4559 59.194 33.2836 59.194 33.0894C59.194 32.8953 58.8535 32.6902 58.4378 32.8953C58.2779 32.9925 58.1413 33.1229 58.0374 33.2773C57.9336 33.4317 57.8649 33.6065 57.8363 33.7897C57.8053 33.9795 57.9822 34.3176 57.8363 34.5009C57.6903 34.6841 56.9274 34.5838 56.9274 34.5838L54.4529 34.4158C54.4529 34.4158 52.9182 33.0174 51.9651 33.5192L52.5865 34.2653C52.5865 34.2653 51.4808 33.6108 51.0009 33.9489L50.9279 34.1016L53.7253 35.9734L55.4281 36.5798L59.3842 37.0445C59.3842 37.0445 60.0786 36.6584 60.0786 35.993C60.074 35.5837 59.9644 35.1822 59.7602 34.8259" fill="#CBCBCB"/>
<path d="M55.8461 35.7701C55.6159 35.7771 55.3855 35.7618 55.1583 35.7243C54.9097 35.696 54.6631 35.653 54.4197 35.5956C54.2732 35.5633 54.1308 35.515 53.9951 35.4516C53.8518 35.3787 53.715 35.2941 53.586 35.1986C53.1464 34.8624 52.7433 34.4823 52.3831 34.0642C52.2242 33.8994 52.086 33.7163 51.9717 33.5188C52.137 33.6745 52.2942 33.8383 52.4428 34.0096C52.8158 34.4053 53.2211 34.7701 53.6546 35.1004C53.7781 35.1917 53.9082 35.2741 54.0438 35.3469C54.1734 35.406 54.3081 35.4535 54.4463 35.4887C54.7138 35.5607 54.9637 35.6021 55.1716 35.6392C55.3992 35.6676 55.6245 35.7114 55.8461 35.7701V35.7701Z" fill="#263238"/>
<path d="M53.2919 19.021C52.8046 19.0546 52.315 19.0119 51.8412 18.8944C52.3285 18.8608 52.8182 18.9035 53.2919 19.021Z" fill="#263238"/>
<path d="M62.9512 5.57624C63.0565 5.5786 63.1608 5.55622 63.2555 5.51095C63.3503 5.46568 63.4327 5.39882 63.4961 5.31589C63.5595 5.23296 63.6019 5.13634 63.6199 5.03403C63.638 4.93171 63.6311 4.82664 63.5998 4.72748C63.5685 4.62832 63.5137 4.53793 63.44 4.46378C63.3663 4.38963 63.2758 4.33384 63.1759 4.30103C63.076 4.26822 62.9697 4.25933 62.8656 4.2751C62.7616 4.29086 62.6628 4.33083 62.5775 4.39169C62.708 4.25893 62.7835 4.08288 62.7892 3.89805C62.795 3.71322 62.7305 3.53294 62.6085 3.39257C62.4805 3.25699 62.3249 3.14975 62.1518 3.07792C61.9788 3.0061 61.7922 2.97132 61.6045 2.9759C61.0426 2.96086 60.4959 3.15751 60.0757 3.52586C59.6555 3.89421 59.3932 4.40661 59.3423 4.95888L59.3578 4.84544C58.9442 5.41917 58.7319 5.7813 58.7961 6.48156C58.8182 6.72807 58.9265 7.02257 59.1764 7.04875C59.2602 7.03996 59.3447 7.03996 59.4285 7.04875C59.4987 7.07947 59.5591 7.12849 59.6032 7.19055C59.9504 7.60285 60.3551 8.01515 60.8858 8.12641C61.4165 8.23766 62.0711 7.89517 62.0755 7.3607C62.1747 7.48772 62.3198 7.57203 62.4805 7.59601C62.6412 7.62 62.8051 7.5818 62.938 7.48941C63.1974 7.29334 63.3675 7.00392 63.4112 6.68444C63.4975 6.24814 63.3825 5.69186 62.9512 5.57624Z" fill="#525252"/>
<path d="M59.0969 8.71979C59.1145 8.42995 59.1687 8.14342 59.2583 7.86683C59.3488 7.58995 59.3663 7.2949 59.3092 7.0095C59.2766 6.86906 59.2014 6.74177 59.0935 6.64469C58.9856 6.54761 58.8502 6.48537 58.7055 6.46631L57.069 12.3083C57.8076 12.16 59.4308 10.8642 59.3821 10.1269C59.3512 9.64038 59.0969 9.19536 59.0969 8.71979Z" fill="#E0E0E0"/>
<path d="M58.0574 13.1157L58.0066 5.95383C58.1326 3.33603 56.6908 1.07164 54.0261 1.01929H53.7806C52.5851 1.06427 51.4506 1.55159 50.6028 2.38429C49.755 3.21699 49.2561 4.33404 49.2053 5.51316C49.108 7.78846 49.0306 10.3125 49.0925 11.5188C49.223 14.0363 51.7926 14.3308 51.7926 14.3308V15.4368L52.8828 15.8273L58.0574 13.1157Z" fill="#CBCBCB"/>
<path d="M51.7993 14.3393C52.9792 14.316 54.1254 13.947 55.0921 13.2791C55.0921 13.2791 54.3756 15.1224 51.8192 14.9915L51.7993 14.3393Z" fill="#CBCBCB"/>
<path d="M49.8533 7.45029C49.8556 7.54403 49.8951 7.63313 49.9634 7.69841C50.0316 7.76369 50.1231 7.79993 50.2181 7.79933C50.2647 7.80138 50.3111 7.79418 50.3547 7.77816C50.3984 7.76215 50.4383 7.73764 50.4721 7.70609C50.506 7.67454 50.533 7.63661 50.5517 7.59454C50.5704 7.55246 50.5803 7.50712 50.5808 7.4612C50.5785 7.36745 50.539 7.27835 50.4707 7.21308C50.4025 7.1478 50.311 7.11156 50.2159 7.11216C50.1694 7.11011 50.123 7.11731 50.0793 7.13332C50.0357 7.14934 49.9958 7.17385 49.962 7.2054C49.9281 7.23694 49.9011 7.27488 49.8824 7.31695C49.8637 7.35902 49.8538 7.40437 49.8533 7.45029V7.45029Z" fill="#263238"/>
<path d="M49.7183 6.39859C49.7647 6.44221 50.0345 6.23061 50.4259 6.21752C50.8174 6.20443 51.1137 6.3855 51.1557 6.3375C51.1977 6.28951 51.1247 6.23279 50.9965 6.14771C50.8222 6.03717 50.6174 5.98303 50.4105 5.99283C50.2068 5.99955 50.0106 6.07068 49.851 6.19571C49.7338 6.29169 49.6962 6.37677 49.7183 6.39859Z" fill="#263238"/>
<path d="M53.4377 7.55713C53.4406 7.65069 53.4803 7.73947 53.5484 7.80463C53.6166 7.86979 53.7077 7.90621 53.8026 7.90617C53.8501 7.90827 53.8974 7.90075 53.9418 7.88406C53.9862 7.86738 54.0266 7.84189 54.0606 7.80917C54.0946 7.77646 54.1214 7.73721 54.1394 7.69386C54.1574 7.65051 54.1662 7.60397 54.1653 7.55713C54.163 7.46319 54.1235 7.37386 54.0553 7.30823C53.9872 7.24261 53.8957 7.20588 53.8004 7.20591C53.7528 7.2038 53.7052 7.21139 53.6607 7.2282C53.6162 7.24502 53.5756 7.2707 53.5416 7.30366C53.5076 7.33661 53.4808 7.37612 53.4629 7.41973C53.4451 7.46334 53.4365 7.51011 53.4377 7.55713V7.55713Z" fill="#263238"/>
<path d="M53.6678 6.34649C53.7076 6.39666 53.9995 6.2156 54.3909 6.24396C54.7824 6.27232 55.0544 6.48392 55.1008 6.44029C55.1472 6.39666 55.0831 6.3334 54.9659 6.23523C54.8046 6.10657 54.6068 6.03036 54.3998 6.01709C54.1966 6.00279 53.994 6.05162 53.8204 6.1567C53.6944 6.24832 53.6457 6.32467 53.6678 6.34649Z" fill="#263238"/>
<path d="M52.352 9.58571C52.1428 9.52996 51.9274 9.49992 51.7107 9.49627C51.609 9.49627 51.5139 9.47227 51.4896 9.40683C51.477 9.30469 51.4963 9.2012 51.5449 9.11014C51.6311 8.868 51.7196 8.61494 51.8125 8.34662C52.1818 7.25587 52.4449 6.36801 52.4007 6.35274C52.3565 6.33747 52.0203 7.20788 51.651 8.29645C51.5626 8.56477 51.4785 8.82001 51.3967 9.06433C51.3391 9.18561 51.3259 9.3228 51.3591 9.45264C51.3751 9.48698 51.3987 9.51734 51.4282 9.5415C51.4577 9.56566 51.4922 9.583 51.5294 9.59225C51.586 9.60487 51.6439 9.61073 51.7019 9.60971C51.9188 9.62804 52.1371 9.61998 52.352 9.58571Z" fill="#263238"/>
<path d="M53.5308 4.92185C53.575 5.02438 53.9731 4.95894 54.4264 4.9982C54.8798 5.03747 55.2667 5.14436 55.3242 5.04838C55.3486 5.00039 55.28 4.9044 55.1274 4.80842C54.9253 4.69079 54.6981 4.62133 54.464 4.60554C54.2272 4.5858 53.9891 4.62246 53.7696 4.71243C53.5949 4.7866 53.5131 4.87168 53.5308 4.92185Z" fill="#E0E0E0"/>
<path d="M49.7736 5.5718C49.8465 5.65688 50.1141 5.55653 50.437 5.53908C50.7598 5.52163 51.0385 5.57617 51.1004 5.48018C51.1269 5.43437 51.0805 5.34929 50.9567 5.26203C50.7915 5.168 50.6017 5.12463 50.4115 5.13746C50.2213 5.15028 50.0392 5.21871 49.8886 5.33402C49.7758 5.43873 49.7426 5.53035 49.7736 5.5718Z" fill="#E0E0E0"/>
<path d="M53.5174 9.80838C53.4533 9.80838 53.4688 10.2272 53.1149 10.5392C52.7611 10.8511 52.3078 10.8228 52.3056 10.8817C52.3034 10.9406 52.4117 10.9602 52.6019 10.958C52.8516 10.9517 53.0911 10.859 53.2786 10.6963C53.4586 10.5394 53.5696 10.3195 53.5882 10.0833C53.597 9.90873 53.5462 9.8062 53.5174 9.80838Z" fill="#263238"/>
<path d="M59.4905 6.2241C59.4324 6.15994 59.3974 6.07865 59.391 5.99286C59.4084 5.92707 59.4393 5.86547 59.4816 5.8118C59.5071 5.76042 59.5216 5.70441 59.5242 5.64727C59.5267 5.59012 59.5174 5.53307 59.4966 5.47966C59.4759 5.42624 59.4442 5.37762 59.4036 5.3368C59.363 5.29599 59.3142 5.26386 59.2605 5.24243C59.3886 5.03243 59.4426 4.78654 59.4142 4.54308C59.3858 4.29961 59.2766 4.07226 59.1035 3.89645C59.0336 3.846 58.9817 3.77496 58.9553 3.69357C58.9534 3.61753 58.9717 3.54233 59.0084 3.47542C59.1875 3.00204 58.8359 2.50902 58.5042 2.12507C58.1084 1.66696 57.6794 1.18921 57.0978 1.00379C56.953 0.969029 56.8116 0.921575 56.6754 0.861991C56.5601 0.789428 56.4534 0.704566 56.357 0.608938C56.0037 0.310732 55.5751 0.112657 55.1167 0.035823C54.6583 -0.0410111 54.1874 0.00627434 53.7542 0.172639C53.6566 0.216971 53.5552 0.25274 53.4512 0.279532C53.3455 0.29849 53.238 0.306533 53.1306 0.303528C52.4629 0.318095 51.8117 0.511106 51.2465 0.861991C51.0728 0.988944 50.8878 1.09994 50.6936 1.19358C50.5631 1.24375 50.3133 1.23284 50.2005 1.31792C50.1089 1.3833 50.042 1.47691 50.0104 1.58397C49.9787 1.69102 49.9842 1.80543 50.0258 1.90911C49.2385 2.26469 49.1788 2.7817 49.2452 3.43615C49.2717 3.70011 49.4243 3.99461 49.6874 4.02516C49.8479 4.03085 50.0051 3.97892 50.1297 3.879C50.3263 3.75 50.5061 3.5976 50.6649 3.42524C50.7493 3.31529 50.8526 3.22079 50.97 3.14601C51.0801 3.09549 51.1971 3.06095 51.3172 3.04348C51.8586 2.9231 52.3436 2.62744 52.6949 2.20361C52.7635 2.11853 52.8475 2.02254 52.9581 2.03127C53.0019 2.03979 53.0439 2.05605 53.0819 2.07926C53.3593 2.21802 53.6714 2.27456 53.9807 2.24204C54.2899 2.20952 54.583 2.08934 54.8245 1.89602C54.9545 2.31824 55.2094 2.69251 55.5565 2.97081C55.9036 3.24912 56.3271 3.41876 56.7727 3.45797C56.8788 3.45797 56.9938 3.47542 57.0535 3.56486C57.0857 3.63344 57.0896 3.71162 57.0646 3.78301C56.8435 4.98719 56.9562 6.4008 57.0978 7.61808C57.2238 8.70882 57.7059 9.41563 58.1526 9.4898L59.004 8.01511L59.4197 7.29085C59.5448 7.14347 59.619 6.96066 59.6317 6.76888C59.6445 6.5771 59.595 6.3863 59.4905 6.2241V6.2241Z" fill="#525252"/>
<path d="M52.79 0.307889C52.79 0.296982 52.6839 0.283893 52.5335 0.377697C52.486 0.408634 52.4481 0.451875 52.4239 0.502673C52.3997 0.553471 52.3902 0.609862 52.3964 0.665653C52.3974 0.708426 52.4112 0.749954 52.436 0.785069C52.4608 0.820184 52.4955 0.847336 52.5358 0.863146C52.5761 0.878956 52.6202 0.882725 52.6626 0.873986C52.7051 0.865247 52.744 0.844384 52.7745 0.813995L52.6772 0.711464C52.6088 0.769291 52.5506 0.837834 52.5048 0.914343C52.4275 1.03729 52.3876 1.17956 52.39 1.3242C52.3923 1.46885 52.4368 1.60978 52.518 1.73022C52.6441 1.91128 52.779 1.94837 52.7856 1.94837C52.7922 1.94837 52.6949 1.85457 52.6065 1.68441C52.531 1.54183 52.5061 1.37843 52.5358 1.22028C52.5655 1.06212 52.6479 0.918323 52.7701 0.811814L52.6728 0.709283C52.6595 0.718384 52.6437 0.72326 52.6275 0.72326C52.6113 0.72326 52.5955 0.718384 52.5821 0.709283C52.5653 0.70314 52.5504 0.692591 52.5391 0.678761C52.5278 0.664931 52.5205 0.648338 52.518 0.630749C52.5122 0.594272 52.5158 0.556922 52.5285 0.522201C52.5413 0.48748 52.5628 0.456523 52.591 0.432234C52.6971 0.358063 52.7989 0.327522 52.79 0.307889Z" fill="white"/>
<path d="M49.9062 1.96811C49.9062 1.95502 49.831 1.98774 49.8332 2.09464C49.8335 2.12569 49.8401 2.15637 49.8526 2.18486C49.8652 2.21334 49.8834 2.23905 49.9062 2.26043C49.9239 2.27855 49.9455 2.29248 49.9694 2.30115C49.9933 2.30982 50.0189 2.31302 50.0443 2.3105C50.0696 2.30798 50.094 2.2998 50.1157 2.28659C50.1374 2.27338 50.1557 2.25549 50.1694 2.23425L50.05 2.21026C50.0547 2.30124 50.0872 2.38869 50.1433 2.46111C50.1993 2.53352 50.2763 2.58752 50.364 2.61601C50.4448 2.64127 50.531 2.64504 50.6139 2.62692L50.5276 2.56148C50.5289 2.66662 50.5515 2.77045 50.594 2.86688C50.6309 2.94824 50.6959 3.01397 50.7775 3.05231C50.9235 3.11557 51.0141 3.05231 50.9986 3.03922C50.9832 3.02613 50.9124 3.03922 50.8173 2.97378C50.7595 2.92131 50.7154 2.8558 50.6888 2.78286C50.6622 2.70992 50.654 2.63171 50.6647 2.55493V2.47204L50.5785 2.48949C50.5213 2.50457 50.461 2.50457 50.4038 2.48949C50.3446 2.46726 50.2927 2.42949 50.2538 2.38028C50.2148 2.33106 50.1902 2.27227 50.1826 2.21026L50.1384 1.84595L50.0632 2.18844C50.0632 2.20589 50.0124 2.21898 49.9814 2.18844C49.9476 2.16562 49.9233 2.13154 49.9129 2.09246C49.8863 2.0161 49.9151 1.97684 49.9062 1.96811Z" fill="white"/>
<path d="M57.8693 7.82751C57.9136 7.80787 59.6053 7.24941 59.6163 8.97279C59.6274 10.6962 57.8693 10.3537 57.8671 10.3035C57.8649 10.2533 57.8693 7.82751 57.8693 7.82751Z" fill="#CBCBCB"/>
<path d="M58.3956 9.64684C58.3956 9.64684 58.4266 9.66865 58.4797 9.69047C58.5508 9.71753 58.6297 9.71753 58.7008 9.69047C58.8866 9.62066 59.0392 9.33052 59.0458 9.02075C59.0507 8.87054 59.0204 8.72124 58.9573 8.58445C58.9419 8.53155 58.9137 8.4831 58.8752 8.44323C58.8367 8.40335 58.789 8.37323 58.7362 8.35539C58.7012 8.34684 58.6643 8.35041 58.6317 8.36551C58.5991 8.3806 58.5728 8.4063 58.5571 8.43829C58.535 8.48628 58.546 8.52119 58.5372 8.52555C58.5283 8.52991 58.4996 8.49501 58.5128 8.4252C58.5216 8.3824 58.545 8.34387 58.5792 8.31613C58.6026 8.29765 58.6296 8.28407 58.6585 8.27619C58.6873 8.26832 58.7176 8.26632 58.7473 8.27031C58.8193 8.28393 58.8866 8.31554 58.9428 8.36214C58.9989 8.40873 59.042 8.46875 59.0679 8.53646C59.1438 8.68509 59.181 8.85002 59.1763 9.01639C59.1763 9.36324 58.9905 9.69047 58.734 9.76464C58.6871 9.77772 58.6379 9.78059 58.5898 9.77306C58.5417 9.76552 58.4958 9.74776 58.4554 9.72101C58.4001 9.68828 58.3912 9.6512 58.3956 9.64684Z" fill="#A7A7A7"/>
<path d="M59.424 4.59011C59.4461 4.57266 59.5677 4.67083 59.6982 4.88461C59.8626 5.16701 59.9587 5.48302 59.979 5.80804C59.9993 6.13306 59.9433 6.45833 59.8154 6.75852C59.7114 6.97666 59.5942 7.09665 59.5788 7.08356C59.5168 7.05302 59.7999 6.52291 59.749 5.82047C59.6982 5.11803 59.3665 4.6272 59.424 4.59011Z" fill="#2354D7"/>
<path d="M54.3025 10.0442C54.2693 10.0442 54.2273 9.87621 54.0924 9.72132C53.9575 9.56643 53.7961 9.50317 53.8071 9.46172C53.8182 9.42027 54.0283 9.46172 54.1808 9.64715C54.3334 9.83258 54.3334 10.0464 54.3025 10.0442Z" fill="#A7A7A7"/>
<path d="M56.0009 6.90268C56.023 6.92231 55.8948 7.08811 55.6515 7.15574C55.4082 7.22336 55.2092 7.15573 55.2225 7.11865C55.2358 7.08156 55.4127 7.10556 55.6205 7.04448C55.8284 6.9834 55.9854 6.88523 56.0009 6.90268Z" fill="#A7A7A7"/>
<path d="M56.118 7.45667C56.0981 7.48285 55.9566 7.41522 55.7708 7.37159C55.5851 7.32796 55.4281 7.31923 55.4259 7.28869C55.4237 7.25815 55.5917 7.21016 55.7996 7.26033C56.0074 7.31051 56.1357 7.43267 56.118 7.45667Z" fill="#A7A7A7"/>
<path d="M49.6012 7.43274C49.6012 7.43274 49.6167 7.43274 49.6012 7.4611C49.5857 7.48946 49.5702 7.49382 49.5503 7.49819C49.5014 7.50675 49.451 7.50223 49.4044 7.4851C49.3026 7.45456 49.2363 7.39784 49.2474 7.36948C49.2584 7.34112 49.3447 7.34767 49.4375 7.36948C49.4751 7.38063 49.512 7.39373 49.5481 7.40875L49.568 7.42402C49.568 7.42402 49.5879 7.43056 49.6012 7.43274Z" fill="#A7A7A7"/>
<path d="M58.4554 2.12107C58.323 2.25487 58.1652 2.36161 57.991 2.4352C57.5729 2.63601 57.1099 2.72837 56.6456 2.70356C56.1812 2.67875 55.731 2.53759 55.3374 2.2934C55.166 2.20338 55.0154 2.07934 54.8951 1.92909C54.9061 1.91382 55.0676 2.0578 55.3683 2.2236C55.759 2.43809 56.1936 2.56333 56.6399 2.59009C57.0865 2.61386 57.5329 2.53935 57.9468 2.37194C58.2674 2.23014 58.4444 2.10361 58.4554 2.12107Z" fill="#263238"/>
<path d="M59.0503 3.08066C58.8967 3.22164 58.7222 3.33861 58.5328 3.42752C58.3334 3.54072 58.1169 3.62173 57.8915 3.66748C57.6123 3.71859 57.326 3.71859 57.0468 3.66748C56.5486 3.5605 56.0795 3.34923 55.6713 3.04794C55.4932 2.93938 55.331 2.80726 55.1892 2.65527C55.3705 2.75485 55.5462 2.86408 55.7155 2.9825C56.1271 3.25411 56.5859 3.4486 57.0689 3.55623C57.3335 3.60785 57.6052 3.61302 57.8716 3.5715C58.0901 3.52994 58.301 3.45641 58.4974 3.35335C58.8402 3.1941 59.0414 3.06539 59.0503 3.08066Z" fill="#263238"/>
<path d="M63.0021 7.29298C62.9991 7.14143 62.9621 6.99243 62.8937 6.85668C62.8157 6.71792 62.6879 6.6129 62.5355 6.56218C62.4418 6.5313 62.3424 6.52097 62.2442 6.53189C62.1461 6.54282 62.0515 6.57475 61.9672 6.62544L61.8787 6.67998V6.57745C61.8782 6.46956 61.8476 6.36389 61.7903 6.27204C61.7237 6.17347 61.638 6.08882 61.5382 6.02294C61.4384 5.95706 61.3264 5.91123 61.2087 5.8881C61.0092 5.85044 60.8044 5.85044 60.605 5.8881C60.4199 5.93808 60.2325 5.97885 60.0433 6.01026C60.213 5.91593 60.3965 5.84822 60.5873 5.80956C60.7961 5.75344 61.0147 5.74154 61.2286 5.77466C61.3636 5.79859 61.4922 5.84967 61.6063 5.92473C61.7204 5.99979 61.8177 6.09722 61.892 6.21096C61.9598 6.3214 61.995 6.44833 61.9937 6.57745L61.9075 6.52946C62.0062 6.47044 62.1171 6.43428 62.2321 6.4237C62.347 6.41312 62.4628 6.42839 62.5709 6.46838C62.7432 6.53103 62.8838 6.65793 62.9623 6.82178C63.005 6.89211 63.0307 6.97114 63.0376 7.05282C63.0445 7.1345 63.0324 7.21666 63.0021 7.29298V7.29298Z" fill="#263238"/>
<g opacity="0.3">
<path opacity="0.3" d="M46.8678 30.681L48.0398 22.2561C46.6773 24.8475 46.2633 27.8234 46.8678 30.681V30.681Z" fill="black"/>
</g>
<g opacity="0.3">
<path opacity="0.3" d="M67.8804 31.1913C67.3972 30.9706 66.8589 30.8947 66.3324 30.9732C65.5828 31.0539 64.7358 31.2764 64.3754 31.8458C64.9083 31.5295 65.7354 31.307 66.3833 31.4967C67.0312 31.6865 67.5664 32.1294 68.0573 32.5875C68.2143 32.7358 68.4554 32.8951 68.6256 32.762C68.6684 32.72 68.7009 32.6688 68.7204 32.6125C68.74 32.5561 68.7461 32.4961 68.7384 32.437C68.718 32.1735 68.6281 31.92 68.4775 31.7014C68.327 31.4829 68.1212 31.3071 67.8804 31.1913V31.1913Z" fill="black"/>
</g>
</svg>
